# https://github.com/mikedh/trimesh
v -0.01704765 -0.00044956 0.00981040
v -0.01706570 -0.00541205 0.00915070
v -0.01705686 -0.00047608 -0.00881634
v -0.03454449 -0.00048867 -0.00864616
v -0.03454628 -0.00047515 0.00971968
v -0.01707956 -0.00548281 -0.00835415
v -0.03452656 -0.00542986 0.00908458
v -0.03453488 -0.00549256 -0.00813450
vn 0.57043143 0.54074617 0.61822452
vn 0.58317656 -0.60967253 0.53684682
vn 0.57103838 0.55048699 -0.60899856
vn -0.57625799 0.54943748 -0.60501669
vn -0.57375748 0.54155930 0.61442321
vn 0.57795420 -0.60264046 -0.55026668
vn -0.58402037 -0.60973695 0.53585545
vn -0.58501631 -0.60540779 -0.53966408
f 1//1 2//2 3//3
f 1//1 3//3 4//4
f 5//5 1//1 4//4
f 6//6 3//3 2//2
f 6//6 4//4 3//3
f 7//7 2//2 1//1
f 7//7 1//1 5//5
f 7//7 6//6 2//2
f 8//8 7//7 5//5
f 8//8 5//5 4//4
f 8//8 4//4 6//6
f 8//8 6//6 7//7

