# https://github.com/mikedh/trimesh
v -0.01909517 -0.00991973 0.00816276
v -0.01918494 -0.01289958 0.00561438
v -0.01915349 -0.00967690 -0.00730859
v -0.04900220 -0.00966786 -0.00442343
v -0.04273075 -0.01263296 0.00547556
v -0.04868409 -0.00866983 0.00614745
v -0.01914166 -0.01423887 -0.00154837
v -0.02964347 -0.01323673 0.00533804
v -0.02707317 -0.00968426 -0.00733033
v -0.04337867 -0.00932692 0.00783614
v -0.04744776 -0.01238190 0.00136676
v -0.01918050 -0.01425003 0.00280704
v -0.02706352 -0.01322348 0.00536243
v -0.04180901 -0.01322182 -0.00249391
v -0.01918041 -0.01123005 -0.00603925
v -0.04766941 -0.01180414 0.00345308
v -0.03751928 -0.01428550 0.00298661
v -0.02796824 -0.01413229 0.00359917
v -0.04752998 -0.01241189 -0.00084759
v -0.01915190 -0.01372787 -0.00260100
v -0.02704817 -0.01124666 -0.00603413
v -0.04421757 -0.01314272 0.00356667
v -0.04769352 -0.01097418 0.00436954
v -0.03662855 -0.01428517 -0.00072691
v -0.01919630 -0.01341493 0.00456231
v -0.03142683 -0.01413591 0.00357308
v -0.04601686 -0.01240629 -0.00241089
v -0.03311648 -0.01412504 -0.00150651
v -0.04668844 -0.01248021 0.00327507
v -0.04180516 -0.01321657 0.00448415
v -0.04430027 -0.01313191 -0.00159029
v -0.04496506 -0.01257644 0.00423580
v -0.04757019 -0.01170423 -0.00249906
v -0.03751671 -0.01426219 0.00062394
vn 0.56641637 0.32769572 0.75616666
vn 0.64679361 -0.60340122 0.46643863
vn 0.56000562 0.35130910 -0.75031701
vn -0.69554333 0.25147440 -0.67303797
vn -0.16986359 -0.75661465 0.63141162
vn -0.71030306 0.39459905 0.58289035
vn 0.65813653 -0.73274685 -0.17302703
vn -0.01356836 -0.76952481 0.63847276
vn -0.05501658 0.37668456 -0.92470640
vn -0.14441073 0.26609729 0.95306756
vn -0.60998033 -0.79078262 0.05086100
vn 0.65368391 -0.73929643 0.16167293
vn 0.00594953 -0.78458200 0.61999652
vn -0.11385161 -0.84044058 -0.52980887
vn 0.65067992 -0.55358793 -0.51976538
vn -0.69999387 -0.63908009 0.31872438
vn -0.06736514 -0.97019951 0.23275490
vn 0.00610848 -0.94472961 0.32779362
vn -0.60015472 -0.79496134 -0.08860461
vn 0.67308325 -0.63329926 -0.38195680
vn -0.03622097 -0.73238249 -0.67992936
vn -0.22373917 -0.94927224 0.22095926
vn -0.42079792 -0.66710428 0.61473653
vn -0.05164282 -0.97877835 -0.19830772
vn 0.29156376 -0.86140654 0.41589584
vn -0.00997416 -0.92985393 0.36779367
vn -0.23906303 -0.82988972 -0.50411499
vn -0.01746301 -0.91442295 -0.40438314
vn -0.38393082 -0.86450216 0.32439658
vn -0.11047771 -0.91806027 0.38073616
vn -0.19285608 -0.96002748 -0.20286391
vn -0.32518403 -0.78223858 0.53137383
vn -0.46221577 -0.78026575 -0.42135725
vn -0.10614014 -0.99392653 -0.02905725
f 6//6 1//1 3//3
f 7//7 3//3 1//1
f 8//8 1//1 5//5
f 9//9 6//6 3//3
f 9//9 4//4 6//6
f 10//10 6//6 5//5
f 10//10 5//5 1//1
f 10//10 1//1 6//6
f 12//12 7//7 1//1
f 12//12 1//1 2//2
f 13//13 2//2 1//1
f 13//13 1//1 8//8
f 14//14 4//4 9//9
f 15//15 9//9 3//3
f 16//16 6//6 4//4
f 17//17 8//8 5//5
f 18//18 2//2 13//13
f 18//18 17//17 12//12
f 18//18 13//13 8//8
f 19//19 16//16 4//4
f 19//19 11//11 16//16
f 20//20 15//15 3//3
f 20//20 3//3 7//7
f 21//21 14//14 9//9
f 21//21 9//9 15//15
f 21//21 15//15 20//20
f 22//22 11//11 19//19
f 23//23 5//5 6//6
f 23//23 6//6 16//16
f 24//24 7//7 12//12
f 24//24 12//12 17//17
f 25//25 18//18 12//12
f 25//25 12//12 2//2
f 25//25 2//2 18//18
f 26//26 18//18 8//8
f 26//26 8//8 17//17
f 26//26 17//17 18//18
f 27//27 4//4 14//14
f 28//28 21//21 20//20
f 28//28 14//14 21//21
f 28//28 24//24 14//14
f 28//28 20//20 7//7
f 28//28 7//7 24//24
f 29//29 16//16 11//11
f 29//29 11//11 22//22
f 30//30 22//22 17//17
f 30//30 17//17 5//5
f 30//30 5//5 22//22
f 31//31 22//22 19//19
f 31//31 17//17 22//22
f 31//31 14//14 24//24
f 31//31 27//27 14//14
f 31//31 19//19 27//27
f 32//32 23//23 16//16
f 32//32 5//5 23//23
f 32//32 16//16 29//29
f 32//32 29//29 22//22
f 32//32 22//22 5//5
f 33//33 27//27 19//19
f 33//33 19//19 4//4
f 33//33 4//4 27//27
f 34//34 31//31 24//24
f 34//34 24//24 17//17
f 34//34 17//17 31//31

