# https://github.com/mikedh/trimesh
v 0.01195826 0.00990040 0.00851370
v 0.02170703 0.01349337 0.00476989
v -0.02818961 0.01341313 0.00303887
v -0.02826361 0.00961906 -0.00592444
v 0.01196874 0.00975873 -0.00690114
v -0.02651959 0.00952463 0.00799956
v 0.02160420 0.01338163 0.00502685
v 0.00754791 0.01420437 -0.00087948
v -0.02830553 0.00985995 0.00757685
v 0.01018339 0.00951522 0.00891097
v -0.01865718 0.01424813 0.00283377
v 0.02147803 0.01450842 0.00050386
v -0.02127373 0.01240814 -0.00399901
v -0.02818782 0.01342817 -0.00069679
v -0.01946863 0.01241794 0.00627872
v 0.01190805 0.01257033 0.00618484
v -0.01518082 0.00952932 -0.00664553
v 0.00581478 0.01328632 0.00555133
v 0.01196941 0.01268972 -0.00411741
v 0.02166873 0.01441942 0.00219534
v -0.01339221 0.01423986 -0.00006059
v -0.02818937 0.01173734 -0.00390129
v -0.01863998 0.01429345 0.00253423
v -0.02821728 0.01099664 0.00674563
v -0.02730273 0.01240006 0.00535430
v -0.01253048 0.01101055 0.00758267
v 0.01188544 0.01092971 0.00766290
v 0.01197920 0.01033010 -0.00648429
v -0.02213528 0.01092275 -0.00535118
v -0.00815046 0.01327277 0.00547840
v 0.00843733 0.01330135 -0.00306562
v 0.02166360 0.01459101 0.00082540
v -0.02212419 0.01327109 -0.00227268
v -0.01604791 0.01426474 0.00078650
v -0.02037688 0.01185307 0.00672285
v -0.02039040 0.01328808 0.00452595
v -0.02646711 0.01329117 0.00369717
v -0.02817410 0.01167083 0.00602081
v 0.00321610 0.00953823 0.00890424
v 0.00322449 0.01009652 0.00848337
v 0.01016242 0.01004702 0.00848384
v -0.01517789 0.01005770 -0.00621716
v -0.02469591 0.01175580 -0.00446479
v 0.00234002 0.01330201 -0.00305400
v -0.00027776 0.01421589 -0.00089785
v -0.02735143 0.01241807 -0.00316047
v -0.01776283 0.01426505 0.00166093
v -0.02648494 0.01009180 0.00758269
v -0.02819925 0.01010496 -0.00549403
v -0.02731886 0.01322014 -0.00141356
vn 0.34630265 -0.37852176 0.85836808
vn 0.93305551 0.18116837 0.31078196
vn -0.68440584 0.71022811 0.16481711
vn -0.58665074 -0.34671437 -0.73186751
vn 0.29045170 -0.43025326 -0.85470459
vn -0.15555464 -0.46246320 0.87288633
vn 0.75169356 -0.02723861 0.65894981
vn 0.00524225 0.95040031 -0.31098515
vn -0.66298754 -0.29703659 0.68718031
vn 0.13250569 -0.44784536 0.88423796
vn -0.04254759 0.95354034 0.29824575
vn 0.73356445 0.22414573 -0.64159324
vn -0.02839618 0.79787877 -0.60214875
vn -0.68558893 0.71213711 -0.15109119
vn -0.03615957 0.77629904 0.62932686
vn 0.01863425 0.70424212 0.70971530
vn -0.02122264 -0.42975490 -0.90269614
vn 0.00163900 0.83636645 0.54816828
vn 0.07604448 0.79945453 -0.59589403
vn 0.66617655 0.72689180 0.16684458
vn -0.01694863 0.98016005 -0.19748168
vn -0.70155683 0.55794107 -0.44330551
vn -0.04646086 0.99814441 0.03935900
vn -0.65864938 0.52046350 0.54341397
vn -0.15883935 0.82189314 0.54704820
vn -0.01584158 0.58591360 0.81021867
vn 0.03063013 0.65515201 0.75487591
vn 0.14034539 0.63068685 -0.76324129
vn -0.03476334 0.62453860 -0.78021987
vn -0.00543088 0.84197343 0.53949166
vn 0.00748601 0.89775020 -0.44044131
vn 0.86554324 0.41928405 -0.27392659
vn -0.04481951 0.92785082 -0.37024865
vn -0.02988732 0.99437431 -0.10161932
vn -0.04875740 0.61985165 0.78320281
vn -0.05320441 0.88780776 0.45712872
vn -0.07586812 0.90920160 0.40938549
vn -0.66014946 0.58808244 0.46729192
vn -0.00864264 -0.38664466 0.92218827
vn -0.00257187 0.63939718 0.76887231
vn 0.01673813 0.64607088 0.76309387
vn -0.01519525 0.63886663 -0.76916743
vn -0.07376799 0.72993904 -0.67951989
vn -0.00631330 0.87898484 -0.47680791
vn -0.00882365 0.96244704 -0.27132606
vn -0.15948746 0.85283408 -0.49723011
vn -0.04605331 0.99516714 -0.08672628
vn -0.06672547 0.59893418 0.79801351
vn -0.27761780 0.66197705 -0.69621458
vn -0.09009521 0.91697857 -0.38862984
f 7//7 5//5 2//2
f 7//7 1//1 5//5
f 9//9 4//4 6//6
f 10//10 5//5 1//1
f 12//12 2//2 5//5
f 14//14 9//9 3//3
f 14//14 4//4 9//9
f 17//17 10//10 6//6
f 17//17 6//6 4//4
f 17//17 5//5 10//10
f 18//18 7//7 2//2
f 18//18 16//16 7//7
f 20//20 18//18 2//2
f 20//20 11//11 18//18
f 22//22 4//4 14//14
f 23//23 14//14 3//3
f 23//23 3//3 11//11
f 23//23 11//11 20//20
f 24//24 9//9 6//6
f 24//24 3//3 9//9
f 25//25 24//24 15//15
f 27//27 1//1 7//7
f 27//27 7//7 16//16
f 28//28 5//5 17//17
f 28//28 13//13 19//19
f 28//28 19//19 12//12
f 28//28 12//12 5//5
f 29//29 17//17 4//4
f 29//29 13//13 28//28
f 30//30 18//18 11//11
f 30//30 11//11 15//15
f 30//30 15//15 18//18
f 31//31 8//8 12//12
f 31//31 12//12 19//19
f 32//32 20//20 2//2
f 32//32 2//2 12//12
f 32//32 23//23 20//20
f 32//32 12//12 8//8
f 33//33 14//14 21//21
f 34//34 21//21 14//14
f 34//34 32//32 21//21
f 34//34 23//23 32//32
f 35//35 15//15 24//24
f 35//35 26//26 15//15
f 35//35 6//6 26//26
f 36//36 25//25 15//15
f 36//36 15//15 11//11
f 37//37 11//11 3//3
f 37//37 3//3 25//25
f 37//37 36//36 11//11
f 37//37 25//25 36//36
f 38//38 25//25 3//3
f 38//38 3//3 24//24
f 38//38 24//24 25//25
f 39//39 26//26 6//6
f 39//39 6//6 10//10
f 40//40 18//18 15//15
f 40//40 15//15 26//26
f 40//40 26//26 39//39
f 40//40 39//39 10//10
f 40//40 16//16 18//18
f 41//41 10//10 1//1
f 41//41 1//1 27//27
f 41//41 40//40 10//10
f 41//41 27//27 16//16
f 41//41 16//16 40//40
f 42//42 29//29 28//28
f 42//42 28//28 17//17
f 42//42 17//17 29//29
f 43//43 13//13 29//29
f 43//43 29//29 4//4
f 44//44 31//31 19//19
f 44//44 19//19 13//13
f 44//44 13//13 33//33
f 45//45 32//32 8//8
f 45//45 21//21 32//32
f 45//45 8//8 31//31
f 45//45 31//31 44//44
f 45//45 44//44 33//33
f 45//45 33//33 21//21
f 46//46 22//22 14//14
f 46//46 33//33 13//13
f 46//46 43//43 22//22
f 46//46 13//13 43//43
f 47//47 34//34 14//14
f 47//47 14//14 23//23
f 47//47 23//23 34//34
f 48//48 35//35 24//24
f 48//48 24//24 6//6
f 48//48 6//6 35//35
f 49//49 43//43 4//4
f 49//49 4//4 22//22
f 49//49 22//22 43//43
f 50//50 46//46 14//14
f 50//50 14//14 33//33
f 50//50 33//33 46//46

