# https://github.com/mikedh/trimesh
v 0.02264548 -0.00783897 -0.00530682
v 0.02263014 -0.01343256 -0.00501013
v 0.02262925 -0.00772643 -0.01022719
v -0.03750998 -0.00753242 -0.00963667
v -0.03990835 -0.01136578 -0.00492379
v -0.02109818 -0.01055256 -0.00873243
v 0.00771935 -0.00757147 -0.01061611
v -0.04000781 -0.00754373 -0.00880376
v 0.02260441 -0.01138704 -0.00798925
v -0.03573684 -0.01205184 -0.00642803
v -0.02462511 -0.00763372 -0.01061136
v -0.04134036 -0.00932941 -0.00684815
v 0.02260227 -0.00903422 -0.00967244
v -0.03928588 -0.00867084 -0.00872307
v -0.02635013 -0.01324510 -0.00496485
v -0.03920883 -0.01108510 -0.00643462
v 0.00770696 -0.00836320 -0.01035859
v -0.03508026 -0.00872747 -0.00962375
v -0.03979002 -0.00821781 -0.00866691
v -0.03753629 -0.01226405 -0.00492580
v -0.02546493 -0.01227969 -0.00700379
v -0.03975960 -0.01111020 -0.00568452
v -0.03663128 -0.01129675 -0.00694053
v -0.02460027 -0.00821491 -0.01036640
v 0.02174769 -0.01066244 -0.00867290
v -0.03748385 -0.00820718 -0.00939771
v -0.03744611 -0.01195339 -0.00565871
v 0.02261053 -0.01224714 -0.00711710
v -0.02634326 -0.01290813 -0.00569355
v -0.03577103 -0.00959803 -0.00874872
vn 0.58535828 0.58078551 0.56572420
vn 0.55434398 -0.70803344 0.43748303
vn 0.57008744 0.46334329 -0.67846393
vn -0.17650862 0.57105703 -0.80170978
vn -0.65181988 -0.34639087 0.67464377
vn -0.00780659 -0.64269053 -0.76608612
vn 0.01230548 0.60262109 -0.79793258
vn -0.63527178 0.68525863 -0.35616060
vn 0.68464975 -0.49218662 -0.53759375
vn -0.11995114 -0.85074610 -0.51170577
vn -0.02256316 0.49173231 -0.87045404
vn -0.98141762 0.13705468 0.13429617
vn 0.66411083 -0.35839299 -0.65613358
vn -0.32612740 -0.49586227 -0.80483634
vn -0.02525365 -0.85407673 0.51953363
vn -0.34696966 -0.77403098 -0.52961127
vn 0.00588966 -0.45403737 -0.89096317
vn -0.09184869 -0.44908900 -0.88875356
vn -0.48355419 -0.36498161 -0.79559020
vn -0.20488465 -0.81697709 0.53904612
vn -0.02622698 -0.79631270 -0.60431633
vn -0.51323120 -0.77202950 -0.37491891
vn -0.18192057 -0.68440520 -0.70604138
vn -0.02297190 -0.49263534 -0.86993259
vn 0.05376406 -0.60657726 -0.79320455
vn -0.20086672 -0.40494624 -0.89200398
vn -0.24307748 -0.87827965 -0.41175016
vn 0.66878927 -0.59194247 -0.44980553
vn -0.02927124 -0.90040802 -0.43406059
vn -0.12532183 -0.66625799 -0.73511545
f 1//1 2//2 3//3
f 5//5 2//2 1//1
f 7//7 1//1 3//3
f 8//8 7//7 4//4
f 8//8 1//1 7//7
f 11//11 4//4 7//7
f 12//12 5//5 1//1
f 12//12 1//1 8//8
f 13//13 3//3 9//9
f 14//14 8//8 4//4
f 16//16 12//12 14//14
f 17//17 7//7 3//3
f 17//17 3//3 13//13
f 17//17 11//11 7//7
f 18//18 4//4 11//11
f 19//19 14//14 12//12
f 19//19 12//12 8//8
f 19//19 8//8 14//14
f 20//20 15//15 2//2
f 20//20 2//2 5//5
f 20//20 10//10 15//15
f 20//20 5//5 16//16
f 21//21 6//6 9//9
f 21//21 18//18 6//6
f 22//22 16//16 5//5
f 22//22 5//5 12//12
f 22//22 12//12 16//16
f 23//23 16//16 14//14
f 23//23 10//10 16//16
f 24//24 17//17 6//6
f 24//24 11//11 17//17
f 24//24 18//18 11//11
f 24//24 6//6 18//18
f 25//25 17//17 13//13
f 25//25 13//13 9//9
f 25//25 9//9 6//6
f 25//25 6//6 17//17
f 26//26 18//18 14//14
f 26//26 14//14 4//4
f 26//26 4//4 18//18
f 27//27 20//20 16//16
f 27//27 16//16 10//10
f 27//27 10//10 20//20
f 28//28 21//21 9//9
f 28//28 2//2 21//21
f 28//28 9//9 3//3
f 28//28 3//3 2//2
f 29//29 21//21 2//2
f 29//29 2//2 15//15
f 29//29 15//15 10//10
f 29//29 10//10 21//21
f 30//30 10//10 23//23
f 30//30 21//21 10//10
f 30//30 18//18 21//21
f 30//30 23//23 14//14
f 30//30 14//14 18//18

