# https://github.com/mikedh/trimesh
v 0.02308818 -0.00770405 0.01163353
v 0.02315850 -0.00957728 0.01043610
v 0.02306307 -0.01192606 0.00825479
v -0.03468449 -0.01209869 0.00845756
v -0.03030212 -0.01071448 0.01022617
v -0.03457596 -0.00764236 0.01125900
v 0.02309366 -0.00847449 0.01134882
v 0.01335671 -0.01232512 0.00850864
v -0.03279258 -0.00901375 0.01106337
v -0.01376521 -0.01063400 0.01025617
v -0.03365457 -0.01218945 0.00857275
v 0.01340639 -0.01258896 0.00817781
v -0.03528346 -0.00903272 0.01057683
v -0.03365096 -0.01131732 0.00947656
v -0.03376700 -0.01240922 0.00825146
v -0.03453963 -0.00845579 0.01103692
v -0.03460017 -0.01166961 0.00891752
v -0.03455274 -0.00992107 0.01024142
vn 0.53481211 0.73467070 0.41741463
vn 0.81805638 -0.38550698 0.42681159
vn 0.67808541 -0.54678552 -0.49114741
vn -0.70576579 -0.52252224 -0.47839854
vn -0.01509802 -0.60341162 0.79728694
vn -0.49114548 0.80348446 0.33643548
vn 0.63128497 -0.36885497 0.68222086
vn 0.01910313 -0.70718983 0.70676561
vn -0.06186174 -0.35671733 0.93216193
vn 0.00166279 -0.58756216 0.80917732
vn -0.06789055 -0.76988118 0.63456587
vn 0.03221909 -0.87452909 -0.48390164
vn -0.98911249 0.10542100 0.10267856
vn -0.12203858 -0.63547081 0.76241946
vn -0.20511172 -0.71999015 -0.66298067
vn -0.21523852 -0.33677289 0.91665501
vn -0.36942445 -0.62451975 0.68811384
vn -0.22717226 -0.53551025 0.81340121
f 1//1 2//2 3//3
f 6//6 1//1 3//3
f 7//7 2//2 1//1
f 8//8 3//3 2//2
f 8//8 2//2 7//7
f 9//9 1//1 6//6
f 9//9 7//7 1//1
f 9//9 5//5 7//7
f 10//10 8//8 7//7
f 10//10 7//7 5//5
f 10//10 5//5 8//8
f 11//11 8//8 5//5
f 12//12 3//3 8//8
f 12//12 8//8 11//11
f 13//13 6//6 4//4
f 14//14 4//4 11//11
f 14//14 11//11 5//5
f 14//14 5//5 9//9
f 15//15 3//3 12//12
f 15//15 6//6 3//3
f 15//15 4//4 6//6
f 15//15 12//12 11//11
f 15//15 11//11 4//4
f 16//16 9//9 6//6
f 16//16 6//6 13//13
f 17//17 13//13 4//4
f 17//17 4//4 14//14
f 18//18 14//14 9//9
f 18//18 17//17 14//14
f 18//18 13//13 17//17
f 18//18 16//16 13//13
f 18//18 9//9 16//16

