# https://github.com/mikedh/trimesh
v 0.05400339 0.00243533 0.01108647
v 0.06014613 -0.00152650 0.00319084
v 0.05408330 0.01307841 0.00077234
v 0.03924198 0.00493676 -0.00795354
v 0.03923823 -0.00946978 0.00376590
v 0.05402593 0.00323202 -0.00874221
v 0.03939692 0.00726971 0.00858172
v 0.05832931 0.00914870 0.00402283
v 0.05452563 -0.00695148 0.00609811
v 0.05422931 0.00895687 -0.00630911
v 0.03922250 -0.00793332 -0.00551193
v 0.03933994 0.01122512 -0.00238867
v 0.03928225 -0.00315093 0.00933567
v 0.05839496 0.00334947 0.00794203
v 0.05476087 0.00896908 0.00835458
v 0.05315683 0.00646082 -0.00788275
v 0.05778157 0.00950606 -0.00245388
v 0.03922443 -0.00617979 0.00765970
v 0.03922205 -0.00322167 -0.00810550
v 0.05212981 -0.00940576 0.00005039
v 0.03934833 0.01134750 0.00300206
v 0.03928205 0.00811143 -0.00620427
v 0.05230181 0.01215296 -0.00295594
v 0.04107889 0.00242947 0.01023329
v 0.05219379 -0.00294715 0.01009977
v 0.06002935 0.00332623 0.00451696
v 0.05828572 -0.00216094 0.00710270
v 0.04820002 0.00636681 0.01009319
v 0.05757672 0.00623522 0.00777887
v 0.05447216 0.01232247 0.00445433
v 0.05447333 0.00578422 -0.00790077
v 0.04900054 0.00412055 -0.00878631
v 0.05781295 0.01042078 0.00014285
v 0.05923333 -0.00078462 -0.00397366
v 0.03923117 -0.00883722 0.00518673
v 0.05129217 -0.00534477 -0.00707342
v 0.05122485 -0.00872206 0.00519930
v 0.03923763 -0.00960812 -0.00320339
v 0.05780206 -0.00606056 0.00309398
v 0.04199279 0.01220241 0.00127508
v 0.03935710 0.00578422 0.00931154
v 0.04813175 0.00815388 -0.00699615
v 0.04996531 0.01299613 -0.00088495
v 0.03934027 0.00957351 -0.00482838
v 0.05429318 0.01208254 -0.00250540
v 0.04988176 -0.00078162 0.01100878
v 0.04729814 -0.00479417 0.00923680
v 0.06009832 0.00095927 0.00452724
v 0.05520279 -0.00519022 0.00786386
v 0.05779965 0.00012837 0.00839004
v 0.04638591 0.00900080 0.00834639
v 0.05397798 0.00634599 0.01009411
v 0.04992938 0.00417833 0.01103205
v 0.05781918 0.00962915 0.00441446
v 0.05921808 0.00578422 0.00540610
v 0.05512250 0.00503630 0.01013443
v 0.05310667 0.00819210 -0.00701449
v 0.05773437 0.00625679 -0.00543080
v 0.05141488 0.00412770 -0.00880910
v 0.04546846 0.00238793 -0.00887510
v 0.06018093 0.00510696 -0.00001557
v 0.05515161 0.01208200 0.00312332
v 0.05137162 -0.00210812 -0.00871348
v 0.03922036 -0.00558050 -0.00719513
vn 0.29705204 -0.01583688 0.95472995
vn 0.95730984 -0.27322962 0.09435802
vn 0.26924259 0.96290251 -0.01808825
vn -0.69356017 0.20283845 -0.69125310
vn -0.65518009 -0.73780268 0.16243850
vn 0.36599532 0.01955604 -0.93041119
vn -0.68488635 0.45995906 0.56512685
vn 0.84496377 0.48216560 0.23141427
vn 0.40417685 -0.79625431 0.45013349
vn 0.30107088 0.61842642 -0.72588228
vn -0.64852628 -0.54992675 -0.52630243
vn -0.69673912 0.67004482 -0.25611431
vn -0.69859967 -0.21302840 0.68306471
vn 0.76771586 0.08305359 0.63538528
vn 0.31313557 0.61503495 0.72365608
vn 0.10026456 0.39330100 -0.91392633
vn 0.73723277 0.55920289 -0.37918329
vn -0.70100547 -0.42643713 0.57161413
vn -0.68593336 -0.15022652 -0.71198836
vn 0.33245165 -0.92528946 -0.18252484
vn -0.70855820 0.66240224 0.24324588
vn -0.70549071 0.42595969 -0.56642846
vn 0.04952767 0.85741908 -0.51222997
vn -0.25230778 0.03400077 0.96704950
vn 0.19463736 -0.42181526 0.88554400
vn 0.96435480 0.11075151 0.24032046
vn 0.74840587 -0.34271587 0.56783315
vn -0.05244115 0.44218383 0.89539007
vn 0.68653760 0.35936730 0.63207695
vn 0.26979999 0.87800039 0.39537740
vn 0.38158657 0.30949356 -0.87097958
vn -0.02552940 0.24090903 -0.97021188
vn 0.75266503 0.65383294 -0.07744568
vn 0.81786427 -0.29777836 -0.49236783
vn -0.66455438 -0.61292212 0.42742713
vn 0.30452873 -0.63641654 -0.70868628
vn 0.17412592 -0.88338223 0.43510458
vn -0.61050127 -0.74947770 -0.25606910
vn 0.71631080 -0.69535693 0.05811687
vn -0.16292067 0.98330487 0.08104558
vn -0.71752473 0.21637157 0.66207372
vn -0.04007251 0.57779459 -0.81519789
vn -0.04995357 0.98216522 -0.18126258
vn -0.66103767 0.57490820 -0.48219266
vn 0.34053787 0.84148060 -0.41945722
vn -0.00525322 -0.19852702 0.98008134
vn -0.00590175 -0.55454441 0.83213320
vn 0.96024844 -0.04954717 0.27471441
vn 0.42291803 -0.57201051 0.70281172
vn 0.66806711 -0.16194161 0.72626528
vn -0.08626480 0.69878245 0.71011370
vn 0.19438263 0.41119409 0.89058117
vn -0.02875515 0.19367167 0.98064490
vn 0.68580753 0.62918383 0.36578099
vn 0.89419181 0.28834014 0.34246310
vn 0.45927869 0.23590869 0.85639370
vn 0.07984520 0.54763775 -0.83289714
vn 0.74277068 0.26966489 -0.61283976
vn 0.02869956 0.18890420 -0.98157605
vn -0.05947952 0.04679870 -0.99713192
vn 0.97346027 0.19112847 -0.12587697
vn 0.58465624 0.80103463 0.12853246
vn 0.23244416 -0.27580938 -0.93268371
vn -0.67787667 -0.35553518 -0.64348890
f 19//19 18//18 4//4
f 21//21 4//4 18//18
f 22//22 21//21 12//12
f 22//22 4//4 21//21
f 31//31 6//6 16//16
f 35//35 18//18 11//11
f 36//36 34//34 20//20
f 37//37 5//5 20//20
f 37//37 35//35 5//5
f 38//38 20//20 5//5
f 38//38 36//36 20//20
f 38//38 11//11 36//36
f 38//38 35//35 11//11
f 38//38 5//5 35//35
f 39//39 37//37 20//20
f 39//39 9//9 37//37
f 39//39 2//2 27//27
f 39//39 34//34 2//2
f 39//39 20//20 34//34
f 40//40 12//12 21//21
f 40//40 30//30 3//3
f 40//40 21//21 30//30
f 41//41 21//21 18//18
f 41//41 18//18 13//13
f 41//41 7//7 21//21
f 41//41 13//13 24//24
f 41//41 28//28 7//7
f 42//42 4//4 22//22
f 42//42 32//32 4//4
f 42//42 16//16 32//32
f 42//42 23//23 10//10
f 43//43 23//23 12//12
f 43//43 3//3 23//23
f 43//43 40//40 3//3
f 43//43 12//12 40//40
f 44//44 22//22 12//12
f 44//44 12//12 23//23
f 44//44 42//42 22//22
f 44//44 23//23 42//42
f 45//45 17//17 10//10
f 45//45 10//10 23//23
f 45//45 23//23 3//3
f 45//45 33//33 17//17
f 45//45 3//3 33//33
f 46//46 24//24 13//13
f 46//46 25//25 1//1
f 47//47 13//13 18//18
f 47//47 18//18 35//35
f 47//47 35//35 37//37
f 47//47 46//46 13//13
f 47//47 25//25 46//46
f 48//48 26//26 14//14
f 48//48 27//27 2//2
f 49//49 39//39 27//27
f 49//49 9//9 39//39
f 49//49 37//37 9//9
f 49//49 47//47 37//37
f 49//49 25//25 47//47
f 49//49 1//1 25//25
f 50//50 14//14 1//1
f 50//50 49//49 27//27
f 50//50 1//1 49//49
f 50//50 48//48 14//14
f 50//50 27//27 48//48
f 51//51 28//28 15//15
f 51//51 7//7 28//28
f 51//51 15//15 30//30
f 51//51 30//30 21//21
f 51//51 21//21 7//7
f 52//52 15//15 28//28
f 53//53 52//52 28//28
f 53//53 1//1 52//52
f 53//53 46//46 1//1
f 53//53 24//24 46//46
f 53//53 41//41 24//24
f 53//53 28//28 41//41
f 54//54 29//29 8//8
f 54//54 15//15 29//29
f 54//54 30//30 15//15
f 54//54 8//8 33//33
f 55//55 8//8 29//29
f 55//55 29//29 14//14
f 55//55 14//14 26//26
f 56//56 1//1 14//14
f 56//56 14//14 29//29
f 56//56 52//52 1//1
f 56//56 29//29 15//15
f 56//56 15//15 52//52
f 57//57 31//31 16//16
f 57//57 10//10 31//31
f 57//57 42//42 10//10
f 57//57 16//16 42//42
f 58//58 31//31 10//10
f 58//58 10//10 17//17
f 58//58 34//34 6//6
f 58//58 6//6 31//31
f 59//59 32//32 16//16
f 59//59 16//16 6//6
f 60//60 19//19 4//4
f 60//60 4//4 32//32
f 60//60 32//32 59//59
f 61//61 17//17 33//33
f 61//61 2//2 34//34
f 61//61 48//48 2//2
f 61//61 26//26 48//48
f 61//61 58//58 17//17
f 61//61 34//34 58//58
f 61//61 33//33 8//8
f 61//61 55//55 26//26
f 61//61 8//8 55//55
f 62//62 33//33 3//3
f 62//62 3//3 30//30
f 62//62 54//54 33//33
f 62//62 30//30 54//54
f 63//63 6//6 34//34
f 63//63 34//34 36//36
f 63//63 19//19 60//60
f 63//63 60//60 59//59
f 63//63 59//59 6//6
f 64//64 36//36 11//11
f 64//64 63//63 36//36
f 64//64 19//19 63//63
f 64//64 11//11 18//18
f 64//64 18//18 19//19

