# https://github.com/mikedh/trimesh
v -0.04113260 0.00268898 0.00928231
v -0.04118679 -0.00478439 0.00904593
v -0.04112834 0.00274800 -0.00819602
v -0.05148371 0.00166140 -0.00724383
v -0.05857685 0.00174254 0.00215137
v -0.05214306 -0.00765622 -0.00406432
v -0.04106858 0.00576070 -0.00648616
v -0.05307099 -0.00199397 0.00739041
v -0.04116624 -0.00462854 -0.00811360
v -0.05768684 -0.00240003 -0.00319741
v -0.04108614 0.00523205 0.00828392
v -0.04718911 0.00506140 -0.00627158
v -0.04628704 -0.00281159 0.00909059
v -0.04882020 -0.00930469 0.00450885
v -0.05050019 -0.00447588 -0.00707647
v -0.04887969 -0.00056615 -0.00802814
v -0.05593953 0.00312949 -0.00393648
v -0.04116052 -0.00374493 0.00932986
v -0.05216658 0.00259320 0.00727103
v -0.04455715 0.00416439 -0.00710903
v -0.04716196 0.00902211 0.00136644
v -0.04962576 -0.00594126 0.00729440
v -0.04726948 -0.00963899 0.00470174
v -0.05694743 -0.00564933 0.00119883
v -0.04291608 -0.00461694 -0.00806318
v -0.05527634 -0.00264409 -0.00554065
v -0.04635351 0.00182391 -0.00806719
v -0.04724157 -0.00376936 -0.00803645
v -0.05861169 0.00166140 -0.00147064
v -0.05143492 0.00565492 -0.00473935
v -0.04453965 -0.00369437 0.00911717
v -0.04630539 0.00034914 0.00917807
v -0.04716434 0.00345275 0.00823058
v -0.05470915 0.00166140 0.00664100
v -0.04196023 0.00568599 -0.00644201
v -0.04110045 0.00919879 0.00451423
v -0.05055294 -0.00199397 0.00828025
v -0.04724466 -0.00930826 0.00539909
v -0.05223284 -0.00863511 -0.00181479
v -0.05529770 -0.00572222 -0.00395810
v -0.05767505 -0.00340779 0.00333360
v -0.05208468 -0.00273243 -0.00711118
v -0.05526544 0.00115662 -0.00548791
v -0.04374180 0.00269147 -0.00801617
v -0.04796426 0.00330508 -0.00712806
v -0.05469608 0.00636041 -0.00069910
v -0.05146536 0.00328210 -0.00628744
v -0.04110336 0.00922648 -0.00259153
v -0.04716186 -0.00689056 0.00742427
v -0.04543290 0.00174671 0.00920019
v -0.05468832 0.00545254 0.00422460
v -0.04106541 0.00830939 -0.00406260
v -0.05214051 -0.00361795 0.00724289
v -0.05306039 -0.00049736 0.00736187
v -0.04970789 0.00175660 0.00832476
v -0.05476334 -0.00570575 0.00503160
v -0.05293595 -0.00824898 0.00318994
v -0.05857066 -0.00332410 -0.00066008
v -0.05516721 -0.00733642 -0.00073452
v -0.05290069 -0.00565899 -0.00554121
v -0.05776770 0.00235366 0.00343994
v -0.05469513 -0.00262257 0.00646058
v -0.04887032 -0.00288131 -0.00797780
v -0.05208914 0.00028884 -0.00712110
vn 0.63021004 0.15919689 0.75992872
vn 0.64664521 -0.48281290 0.59054354
vn 0.62532359 0.20206242 -0.75375141
vn -0.30794072 0.28597580 -0.90740859
vn -0.93135396 0.28306428 0.22902928
vn -0.20642728 -0.81786307 -0.53711058
vn 0.65194791 0.45283756 -0.60819575
vn -0.38776425 -0.13129540 0.91235980
vn 0.62146761 -0.45701545 -0.63632924
vn -0.81494700 -0.17530854 -0.55238420
vn 0.60604038 0.44524456 0.65914516
vn -0.14610079 0.60201010 -0.78500854
vn -0.15180828 -0.16485666 0.97456479
vn -0.30542984 -0.88819310 0.34325737
vn -0.22315179 -0.46744835 -0.85539191
vn -0.14994232 0.03722806 -0.98799361
vn -0.61448226 0.50856881 -0.60313292
vn 0.65966409 -0.11524549 0.74267204
vn -0.30214781 0.42646217 0.85254719
vn -0.09501519 0.49784559 -0.86204518
vn -0.23246380 0.97071067 0.06067436
vn -0.29091223 -0.46506808 0.83611109
vn 0.17522739 -0.97564882 0.13192706
vn -0.74904251 -0.64739519 0.14076496
vn -0.03769456 -0.47845641 -0.87730188
vn -0.57509071 -0.17455022 -0.79925146
vn -0.09402427 0.22389543 -0.97006715
vn -0.08836190 -0.29803926 -0.95045503
vn -0.90750058 0.30978063 -0.28368760
vn -0.31062252 0.72594475 -0.61361052
vn -0.10446607 -0.25031839 0.96251106
vn -0.13554629 0.02748805 0.99038963
vn -0.19418882 0.51007227 0.83792421
vn -0.53321059 0.21209814 0.81896328
vn -0.09403717 0.60789077 -0.78843251
vn 0.56290491 0.74228125 0.36353351
vn -0.27521467 -0.11868259 0.95402900
vn 0.00467097 -0.81547844 0.57876860
vn -0.19552462 -0.95026536 -0.24241673
vn -0.61076961 -0.57549082 -0.54384814
vn -0.83616588 -0.29133521 0.46470465
vn -0.36376998 -0.16420098 -0.91690209
vn -0.57376257 0.21587722 -0.79005920
vn -0.08268633 0.38872281 -0.91763694
vn -0.16302265 0.45853100 -0.87359770
vn -0.53175583 0.83194476 -0.15844133
vn -0.31714877 0.50000721 -0.80585945
vn 0.57320765 0.78046041 -0.24962879
vn -0.13967303 -0.53150820 0.83545824
vn -0.10644648 0.19452474 0.97510475
vn -0.50090269 0.72250530 0.47653183
vn 0.62454900 0.61748466 -0.47817490
vn -0.35274956 -0.33188516 0.87488284
vn -0.34357043 0.04080839 0.93823986
vn -0.25302555 0.21953490 0.94222211
vn -0.55198327 -0.55141814 0.62550180
vn -0.42862307 -0.85145521 0.30216930
vn -0.93571410 -0.33205119 -0.11908457
vn -0.59159469 -0.79626297 -0.12641601
vn -0.35783497 -0.52028945 -0.77540507
vn -0.79734077 0.36935520 0.47730957
vn -0.56491562 -0.19437841 0.80192728
vn -0.17630147 -0.14060006 -0.97424300
vn -0.36725572 0.03824866 -0.92933324
f 9//9 3//3 7//7
f 18//18 11//11 1//1
f 18//18 2//2 9//9
f 18//18 9//9 7//7
f 18//18 7//7 11//11
f 23//23 9//9 2//2
f 25//25 9//9 6//6
f 25//25 6//6 15//15
f 27//27 16//16 4//4
f 27//27 3//3 16//16
f 28//28 16//16 3//3
f 28//28 3//3 9//9
f 28//28 9//9 25//25
f 28//28 25//25 15//15
f 31//31 18//18 13//13
f 31//31 2//2 18//18
f 31//31 13//13 22//22
f 32//32 13//13 18//18
f 35//35 20//20 12//12
f 35//35 7//7 20//20
f 37//37 22//22 13//13
f 37//37 13//13 32//32
f 38//38 14//14 23//23
f 38//38 23//23 2//2
f 39//39 23//23 14//14
f 39//39 6//6 9//9
f 39//39 9//9 23//23
f 40//40 10//10 26//26
f 43//43 26//26 10//10
f 43//43 29//29 17//17
f 43//43 10//10 29//29
f 44//44 3//3 27//27
f 44//44 20//20 7//7
f 44//44 7//7 3//3
f 45//45 27//27 4//4
f 45//45 44//44 27//27
f 45//45 12//12 20//20
f 45//45 20//20 44//44
f 46//46 17//17 29//29
f 46//46 30//30 17//17
f 46//46 29//29 5//5
f 47//47 30//30 12//12
f 47//47 17//17 30//30
f 47//47 43//43 17//17
f 47//47 4//4 43//43
f 47//47 45//45 4//4
f 47//47 12//12 45//45
f 48//48 21//21 36//36
f 48//48 46//46 21//21
f 48//48 30//30 46//46
f 49//49 31//31 22//22
f 49//49 2//2 31//31
f 49//49 38//38 2//2
f 49//49 22//22 38//38
f 50//50 32//32 18//18
f 50//50 18//18 1//1
f 50//50 1//1 11//11
f 50//50 11//11 33//33
f 51//51 34//34 19//19
f 51//51 21//21 46//46
f 51//51 46//46 5//5
f 51//51 36//36 21//21
f 51//51 19//19 33//33
f 51//51 33//33 11//11
f 51//51 11//11 36//36
f 52//52 36//36 11//11
f 52//52 11//11 7//7
f 52//52 48//48 36//36
f 52//52 7//7 35//35
f 52//52 35//35 12//12
f 52//52 12//12 30//30
f 52//52 30//30 48//48
f 53//53 37//37 8//8
f 53//53 22//22 37//37
f 54//54 34//34 8//8
f 54//54 8//8 37//37
f 55//55 37//37 32//32
f 55//55 19//19 34//34
f 55//55 54//54 37//37
f 55//55 34//34 54//54
f 55//55 32//32 50//50
f 55//55 50//50 33//33
f 55//55 33//33 19//19
f 56//56 38//38 22//22
f 56//56 14//14 38//38
f 56//56 22//22 53//53
f 56//56 41//41 24//24
f 57//57 39//39 14//14
f 57//57 56//56 24//24
f 57//57 14//14 56//56
f 58//58 10//10 40//40
f 58//58 24//24 41//41
f 58//58 29//29 10//10
f 58//58 41//41 5//5
f 58//58 5//5 29//29
f 59//59 58//58 40//40
f 59//59 24//24 58//58
f 59//59 57//57 24//24
f 59//59 39//39 57//57
f 59//59 40//40 6//6
f 59//59 6//6 39//39
f 60//60 40//40 26//26
f 60//60 15//15 6//6
f 60//60 6//6 40//40
f 60//60 42//42 15//15
f 60//60 26//26 42//42
f 61//61 41//41 34//34
f 61//61 5//5 41//41
f 61//61 51//51 5//5
f 61//61 34//34 51//51
f 62//62 8//8 34//34
f 62//62 34//34 41//41
f 62//62 41//41 56//56
f 62//62 56//56 53//53
f 62//62 53//53 8//8
f 63//63 28//28 15//15
f 63//63 15//15 42//42
f 63//63 42//42 16//16
f 63//63 16//16 28//28
f 64//64 4//4 16//16
f 64//64 16//16 42//42
f 64//64 43//43 4//4
f 64//64 42//42 26//26
f 64//64 26//26 43//43

