# https://github.com/mikedh/trimesh
v 0.03168661 -0.00993496 0.00809483
v 0.03157456 -0.01269288 0.00553356
v 0.03160696 -0.00824090 -0.00248267
v 0.01496890 -0.00824090 -0.00248267
v 0.01234265 -0.01259467 0.00624514
v 0.02282260 -0.01425190 -0.00191610
v 0.03159162 -0.01383449 -0.00218599
v 0.01489777 -0.01010415 0.00845226
v 0.01499175 -0.01393113 -0.00222976
v 0.01235736 -0.01446476 0.00242199
v 0.03158163 -0.01332544 0.00411274
v 0.02278125 -0.01416833 0.00316483
v 0.01500198 -0.01436295 -0.00148014
v 0.01227187 -0.01449522 0.00176206
v 0.02453466 -0.01328078 0.00491351
v 0.01235151 -0.01289734 0.00592397
v 0.03068839 -0.01435198 0.00164910
v 0.01589979 -0.01418437 -0.00187164
v 0.01413362 -0.01417242 0.00316632
v 0.02542818 -0.01425681 -0.00150563
v 0.01236923 -0.01451211 0.00194810
v 0.03069785 -0.01429738 0.00111682
vn 0.56608362 0.27299705 0.77783157
vn 0.64448921 -0.62352323 0.44255219
vn 0.56624810 0.61246412 -0.55158934
vn -0.45342088 0.66395875 -0.59461608
vn -0.78094220 -0.13924578 0.60888413
vn 0.00911931 -0.88430934 -0.46681242
vn 0.60209303 -0.54294212 -0.58540399
vn -0.34928220 0.33735725 0.87418078
vn -0.39793832 -0.43689280 -0.80670303
vn -0.53804662 -0.80946630 0.23509604
vn 0.70632285 -0.66161714 0.25173558
vn 0.01643037 -0.94621347 0.32312554
vn -0.19539048 -0.92927620 -0.31347775
vn -0.80686540 -0.55030129 -0.21479460
vn 0.02562708 -0.87128574 0.49010652
vn -0.63072545 -0.64248867 0.43519387
vn 0.31521650 -0.94190755 0.11596865
vn -0.01640819 -0.86684778 -0.49830281
vn -0.00449400 -0.91933454 0.39345114
vn 0.02749306 -0.98820062 -0.15067738
vn -0.14136211 -0.98898850 0.04380073
vn 0.09306678 -0.99010183 -0.10505688
f 1//1 3//3 4//4
f 5//5 2//2 1//1
f 7//7 3//3 1//1
f 8//8 5//5 1//1
f 8//8 1//1 4//4
f 8//8 4//4 5//5
f 9//9 7//7 6//6
f 9//9 4//4 3//3
f 9//9 3//3 7//7
f 11//11 7//7 1//1
f 11//11 1//1 2//2
f 12//12 11//11 2//2
f 14//14 5//5 4//4
f 14//14 4//4 9//9
f 14//14 9//9 13//13
f 15//15 12//12 2//2
f 16//16 14//14 10//10
f 16//16 5//5 14//14
f 16//16 12//12 15//15
f 16//16 15//15 2//2
f 16//16 2//2 5//5
f 17//17 7//7 11//11
f 17//17 11//11 12//12
f 17//17 12//12 10//10
f 18//18 13//13 9//9
f 18//18 9//9 6//6
f 18//18 6//6 13//13
f 19//19 16//16 10//10
f 19//19 10//10 12//12
f 19//19 12//12 16//16
f 20//20 6//6 7//7
f 20//20 17//17 13//13
f 20//20 13//13 6//6
f 21//21 17//17 10//10
f 21//21 10//10 14//14
f 21//21 14//14 13//13
f 21//21 13//13 17//17
f 22//22 20//20 7//7
f 22//22 7//7 17//17
f 22//22 17//17 20//20

