# https://github.com/mikedh/trimesh
v -0.00422428 0.00666330 0.00929047
v -0.00420609 0.00172096 0.01005120
v -0.00421088 0.00170741 -0.00900872
v -0.03216704 0.00405535 -0.00815922
v -0.03221634 0.00169623 0.00977738
v -0.00419003 0.00750542 -0.00684147
v -0.03216061 0.00732375 0.00776602
v -0.03221455 0.00168271 -0.00858846
v -0.00417851 0.00662410 -0.00748209
v -0.02428611 0.00576841 0.00916390
v -0.03210729 0.00706805 -0.00644936
v -0.00422689 0.00740221 0.00873414
v -0.00416746 0.00487084 -0.00813246
v -0.03217130 0.00399632 0.00931910
v -0.02777174 0.00709155 0.00832774
v -0.03038259 0.00645215 -0.00712942
v -0.03040821 0.00467981 -0.00804704
v -0.01294164 0.00660501 0.00913434
v -0.03212484 0.00653940 0.00832072
v -0.03039435 0.00480621 0.00914529
vn 0.64905915 0.29901623 0.69950805
vn 0.56755751 -0.53318418 0.62736999
vn 0.55895081 -0.50221882 -0.65981077
vn -0.68958073 0.23017117 -0.68665832
vn -0.57615081 -0.52187655 0.62904302
vn 0.60877291 0.70814862 -0.35766055
vn -0.62922728 0.69939260 0.33900298
vn -0.57733621 -0.52467521 -0.62561875
vn 0.67401596 0.35477471 -0.64794860
vn -0.02701692 0.32756395 0.94444266
vn -0.62931185 0.68659768 -0.36407447
vn 0.61243204 0.70451114 0.35859595
vn 0.69885563 0.21717960 -0.68149382
vn -0.67945058 0.20461436 0.70461328
vn -0.03905228 0.67095267 0.74047109
vn -0.06061813 0.58109224 -0.81157701
vn -0.04176207 0.35081209 -0.93551419
vn -0.02094586 0.46872668 0.88309488
vn -0.62402823 0.36561175 0.69059164
vn -0.06094716 0.34905072 0.93511980
f 5//5 2//2 1//1
f 8//8 4//4 3//3
f 8//8 3//3 2//2
f 8//8 2//2 5//5
f 8//8 7//7 4//4
f 8//8 5//5 7//7
f 10//10 5//5 1//1
f 11//11 7//7 6//6
f 11//11 4//4 7//7
f 12//12 6//6 7//7
f 12//12 9//9 6//6
f 12//12 1//1 9//9
f 13//13 2//2 3//3
f 13//13 9//9 1//1
f 13//13 1//1 2//2
f 14//14 7//7 5//5
f 14//14 5//5 10//10
f 15//15 12//12 7//7
f 16//16 4//4 11//11
f 16//16 11//11 6//6
f 16//16 6//6 9//9
f 17//17 13//13 3//3
f 17//17 3//3 4//4
f 17//17 9//9 13//13
f 17//17 16//16 9//9
f 17//17 4//4 16//16
f 18//18 15//15 10//10
f 18//18 10//10 1//1
f 18//18 1//1 12//12
f 18//18 12//12 15//15
f 19//19 10//10 15//15
f 19//19 15//15 7//7
f 19//19 7//7 14//14
f 20//20 19//19 14//14
f 20//20 14//14 10//10
f 20//20 10//10 19//19

