# https://github.com/mikedh/trimesh
v 0.02855331 0.00512177 0.00919426
v 0.02846912 -0.00486853 0.00882815
v 0.02843819 0.00427431 -0.00807083
v -0.00569816 0.00019296 -0.00878367
v -0.00568896 0.00021949 0.00984307
v 0.01185480 -0.01116974 -0.00194426
v 0.01707488 0.01067379 0.00056195
v 0.02844355 -0.00493517 -0.00786716
v 0.01529118 -0.00064185 0.01016211
v -0.00570436 -0.01112031 0.00274234
v 0.02856198 0.01067135 -0.00189402
v 0.00480186 0.00589988 0.00870911
v 0.02859314 0.00660726 0.00846444
v 0.01185784 -0.01143723 0.00148920
v -0.00572086 -0.00481376 -0.00832148
v 0.02492861 0.00023249 -0.00904842
v -0.00570701 -0.00474301 0.00918337
v 0.02847847 -0.00381338 0.00921839
v 0.00921915 0.00171134 0.01012434
v 0.00483872 0.00600309 -0.00686650
v 0.02853649 0.00891106 -0.00494566
v 0.02854454 0.01068505 0.00288478
v 0.00480448 0.00516096 0.00926544
v -0.00566552 -0.01110915 -0.00161307
v 0.00920433 -0.00970414 0.00545986
v 0.00482377 -0.01022811 -0.00334579
v 0.02321063 0.00164462 -0.00901537
v 0.02841826 -0.00388412 -0.00822278
v 0.00398988 -0.00233127 -0.00902401
v 0.01095538 -0.00063686 0.01015843
v -0.00572016 -0.01028521 0.00449761
v 0.01704214 0.00110987 0.01015073
v 0.01788381 -0.00469913 0.00911677
v 0.01706969 0.01003114 -0.00254647
v 0.02847826 0.00744898 -0.00632155
v 0.02857875 0.00978479 0.00516493
v 0.02325120 0.01072158 0.00068611
v 0.00921018 -0.01127156 0.00195787
v -0.00566611 -0.01025446 -0.00337463
v 0.02579348 0.00164253 -0.00899094
v 0.00921907 0.00418253 -0.00800915
v 0.01266278 -0.00296402 -0.00888181
v 0.00485141 0.00017778 -0.00903589
v 0.00921862 0.00023931 0.01014467
v -0.00570879 -0.00976986 0.00554969
v 0.01704025 0.00168782 0.01009966
v 0.01798089 0.00804293 -0.00561896
v 0.01702205 0.00894741 0.00603530
v 0.02579541 0.00110846 -0.00903829
v 0.00574110 0.00560777 -0.00719785
v 0.02753156 -0.00468347 -0.00799638
v 0.00489280 -0.00299466 -0.00893849
v 0.00398948 -0.00155378 -0.00903159
v 0.00574630 0.00093016 -0.00901847
v 0.02409738 0.00878632 -0.00498314
v 0.02672731 0.00743438 -0.00629861
v 0.00486129 0.00336851 -0.00815749
vn 0.65963216 0.17952141 0.72983387
vn 0.65901717 -0.56262222 0.49915189
vn 0.67387564 0.24563669 -0.69681722
vn -0.67847952 0.39130906 -0.62172563
vn -0.67951132 0.37137109 0.63273050
vn 0.12249123 -0.92809283 -0.35162423
vn -0.15625752 0.98700510 0.03747703
vn 0.65982262 -0.55794613 -0.50331922
vn 0.01164868 -0.11972243 0.99273906
vn -0.65885340 -0.73356383 0.16672225
vn 0.65069783 0.73073783 -0.20643296
vn -0.27709867 0.84457931 0.45815075
vn 0.67401246 0.43305019 0.59847702
vn 0.15171329 -0.97480958 0.16349119
vn -0.65019436 -0.31712327 -0.69042025
vn 0.04024318 -0.07936847 -0.99603270
vn -0.65964213 -0.28291575 0.69629802
vn 0.68299979 -0.14709261 0.71545444
vn -0.00866788 0.12878641 0.99163447
vn -0.28705404 0.82501417 -0.48677673
vn 0.67086369 0.57892008 -0.46345815
vn 0.64017953 0.75334200 0.15048586
vn -0.08953833 0.43566823 0.89564283
vn -0.65768290 -0.73302405 -0.17357692
vn 0.03689933 -0.78434181 0.61923047
vn 0.00773356 -0.75003998 -0.66134727
vn -0.00188575 0.19391942 -0.98101565
vn 0.67443162 -0.14683600 -0.72358910
vn -0.01900458 -0.08475365 -0.99622068
vn -0.00389194 -0.10826645 0.99411429
vn -0.70409278 -0.63958219 0.30852549
vn 0.03885056 0.02360326 0.99896623
vn 0.00999487 -0.43159350 0.90201283
vn -0.11391913 0.92547809 -0.36126547
vn 0.65003268 0.43843378 -0.62067167
vn 0.65774939 0.63985160 0.39743636
vn -0.00564420 0.99998296 0.00149228
vn 0.01251281 -0.91692313 0.39886766
vn -0.66065425 -0.60026855 -0.45079222
vn 0.10085236 0.17705157 -0.97902071
vn -0.01400210 0.39815412 -0.91721167
vn 0.01141700 -0.23962711 -0.97079787
vn -0.01379957 0.02358006 -0.99962671
vn -0.01438479 -0.00261548 0.99989311
vn -0.64687522 -0.58188930 0.49290698
vn 0.01804110 0.15867876 0.98716542
vn -0.03923212 0.73328329 -0.67879043
vn -0.07180900 0.85435437 0.51470582
vn 0.15495363 0.01660497 -0.98778219
vn -0.04487833 0.51335396 -0.85700271
vn 0.02087471 -0.36130971 -0.93221217
vn 0.00324646 -0.24197438 -0.97027721
vn -0.01475785 -0.00286817 -0.99988698
vn -0.01787309 0.17716211 -0.98401938
vn -0.01937790 0.79649001 -0.60434110
vn -0.01558423 0.60920335 -0.79286091
vn -0.04935651 0.36987211 -0.92777074
f 13//13 2//2 8//8
f 14//14 8//8 2//2
f 14//14 6//6 8//8
f 15//15 5//5 4//4
f 17//17 5//5 15//15
f 18//18 13//13 1//1
f 18//18 2//2 13//13
f 20//20 12//12 7//7
f 20//20 4//4 5//5
f 20//20 5//5 12//12
f 21//21 8//8 3//3
f 21//21 13//13 8//8
f 21//21 11//11 13//13
f 23//23 13//13 12//12
f 23//23 1//1 13//13
f 23//23 19//19 1//1
f 23//23 12//12 5//5
f 23//23 5//5 19//19
f 24//24 14//14 10//10
f 24//24 6//6 14//14
f 25//25 14//14 2//2
f 26//26 15//15 8//8
f 26//26 8//8 6//6
f 28//28 3//3 8//8
f 29//29 15//15 4//4
f 30//30 17//17 9//9
f 30//30 5//5 17//17
f 31//31 17//17 15//15
f 31//31 15//15 10//10
f 31//31 10//10 25//25
f 32//32 18//18 1//1
f 32//32 9//9 18//18
f 32//32 30//30 9//9
f 33//33 2//2 18//18
f 33//33 25//25 2//2
f 33//33 18//18 9//9
f 33//33 9//9 17//17
f 34//34 20//20 7//7
f 34//34 7//7 11//11
f 34//34 11//11 21//21
f 35//35 21//21 3//3
f 36//36 13//13 11//11
f 36//36 11//11 22//22
f 37//37 22//22 11//11
f 37//37 11//11 7//7
f 37//37 7//7 22//22
f 38//38 25//25 10//10
f 38//38 10//10 14//14
f 38//38 14//14 25//25
f 39//39 15//15 26//26
f 39//39 24//24 10//10
f 39//39 10//10 15//15
f 39//39 26//26 6//6
f 39//39 6//6 24//24
f 40//40 27//27 3//3
f 41//41 3//3 27//27
f 41//41 35//35 3//3
f 42//42 29//29 16//16
f 42//42 16//16 28//28
f 44//44 19//19 5//5
f 44//44 5//5 30//30
f 44//44 32//32 19//19
f 44//44 30//30 32//32
f 45//45 31//31 25//25
f 45//45 17//17 31//31
f 45//45 33//33 17//17
f 45//45 25//25 33//33
f 46//46 32//32 1//1
f 46//46 1//1 19//19
f 46//46 19//19 32//32
f 47//47 20//20 34//34
f 47//47 21//21 35//35
f 48//48 12//12 13//13
f 48//48 13//13 36//36
f 48//48 7//7 12//12
f 48//48 36//36 22//22
f 48//48 22//22 7//7
f 49//49 27//27 40//40
f 49//49 16//16 43//43
f 49//49 28//28 16//16
f 49//49 40//40 3//3
f 49//49 3//3 28//28
f 50//50 35//35 41//41
f 50//50 20//20 47//47
f 50//50 4//4 20//20
f 51//51 42//42 28//28
f 51//51 28//28 8//8
f 51//51 8//8 15//15
f 51//51 15//15 42//42
f 52//52 42//42 15//15
f 52//52 15//15 29//29
f 52//52 29//29 42//42
f 53//53 29//29 4//4
f 53//53 4//4 43//43
f 53//53 43//43 16//16
f 53//53 16//16 29//29
f 54//54 41//41 27//27
f 54//54 49//49 43//43
f 54//54 27//27 49//49
f 54//54 43//43 4//4
f 55//55 47//47 34//34
f 55//55 34//34 21//21
f 55//55 21//21 47//47
f 56//56 50//50 47//47
f 56//56 47//47 35//35
f 56//56 35//35 50//50
f 57//57 50//50 41//41
f 57//57 4//4 50//50
f 57//57 54//54 4//4
f 57//57 41//41 54//54

