# https://github.com/mikedh/trimesh
v 0.00837499 0.00781218 -0.00555211
v 0.01659675 -0.00452213 -0.01296213
v 0.01392935 0.01171063 -0.02142937
v -0.00930863 0.01233868 -0.02142937
v -0.01998926 -0.01045786 -0.01240139
v -0.00927065 0.01414903 -0.01210443
v 0.01603522 0.00654063 -0.01292197
v 0.00370549 -0.00949035 -0.00528359
v 0.00639271 -0.01089930 -0.02142937
v 0.00621600 0.01189699 -0.00941611
v 0.00639271 0.01233868 -0.02142937
v -0.01321984 0.00260088 -0.00592741
v -0.01997829 0.01144643 -0.01289966
v 0.01132767 0.00268513 -0.00560827
v 0.01663453 0.00471311 -0.01293613
v 0.01392935 -0.00964320 -0.02142937
v 0.00613566 -0.01025242 -0.00821920
v -0.00930863 -0.01089930 -0.02142937
v -0.00274632 0.00963748 -0.00537313
v 0.01346708 0.01129884 -0.01312719
v -0.00944932 -0.00587917 -0.00575360
v -0.01042472 0.01392596 -0.01237460
v -0.01998889 0.00400839 -0.00832893
v 0.01006716 0.00567292 -0.00559436
v 0.00955971 -0.00596944 -0.00555254
v 0.00480575 0.00970242 -0.00534634
v 0.01511500 0.00096647 -0.01006333
v 0.01512871 0.00398730 -0.01072556
v -0.00102843 -0.01009464 -0.00676001
v -0.00909491 -0.01039783 -0.00951562
v 0.01427804 -0.00943504 -0.01291347
v -0.01327227 -0.00182382 -0.00583799
v -0.01997391 0.00691525 -0.00960391
v -0.00825101 0.00719408 -0.00570460
v 0.01074139 0.00442693 -0.00558005
v 0.00881557 0.00733624 -0.00560663
v 0.01448210 0.00816279 -0.01201573
v 0.00545803 -0.00894617 -0.00532830
v 0.00070614 0.01163710 -0.00817569
v 0.01153273 0.01116982 -0.01142055
v 0.01636185 0.00273457 -0.01191892
v 0.01127113 -0.00248352 -0.00564833
v 0.01634651 0.00464299 -0.01248853
v 0.00308839 -0.01008879 -0.00674511
v -0.00166001 -0.00949164 -0.00531920
v -0.00348020 -0.01022017 -0.00763612
v 0.01597333 -0.00633519 -0.01296544
v -0.01926347 0.00034172 -0.00768476
v -0.01997628 -0.00500511 -0.00888694
v -0.01997441 0.01052332 -0.01208546
v -0.01997465 0.00577380 -0.00900102
v -0.00452380 0.00905069 -0.00549051
v 0.01580469 0.00643921 -0.01256678
v 0.01393056 0.00998746 -0.01262977
v 0.00781860 -0.00768279 -0.00550317
v 0.01212570 -0.00916135 -0.01076150
v 0.00306538 0.01024785 -0.00592430
v 0.00494379 0.01174567 -0.00890445
v 0.00976052 0.01111392 -0.01025264
v 0.01631777 -0.00253988 -0.01195245
v 0.01448535 0.00222243 -0.00943658
v 0.01260940 -0.00014559 -0.00690065
v -0.00403726 -0.00879594 -0.00544436
v 0.01480147 -0.00880451 -0.01300359
vn 0.33967017 0.38476337 0.85824316
vn 0.97016706 -0.16981885 0.17302440
vn 0.53989424 0.59016312 -0.60018473
vn -0.27359528 0.57830219 -0.76857804
vn -0.74837093 -0.66285846 -0.02365637
vn -0.11602785 0.95595788 0.26959614
vn 0.88594988 0.36077980 0.29142880
vn 0.08098907 -0.57879914 0.81143843
vn 0.05619978 -0.73628127 -0.67433781
vn 0.18327598 0.92101625 0.34371352
vn 0.04745674 0.68697352 -0.72513119
vn -0.20620990 0.11062853 0.97223393
vn -0.78501750 0.61592698 -0.06619266
vn 0.47110305 0.08502128 0.87797113
vn 0.97872172 0.14801667 0.14210862
vn 0.53915979 -0.56107963 -0.62808946
vn 0.17956533 -0.94940800 0.25764461
vn -0.26360066 -0.65503036 -0.70813128
vn -0.07203315 0.45893687 0.88554400
vn 0.56739482 0.77366146 0.28197708
vn -0.20626067 -0.25857511 0.94371365
vn -0.22775394 0.97188962 0.05965501
vn -0.78465238 0.14443020 0.60287690
vn 0.43208765 0.27725052 0.85815640
vn 0.40856693 -0.27146941 0.87142264
vn 0.13904784 0.50032367 0.85460045
vn 0.80008561 0.01517088 0.59969397
vn 0.76010662 0.21379050 0.61362167
vn -0.01958737 -0.96266337 0.26999178
vn -0.04375021 -0.97934038 0.19742932
vn 0.53708274 -0.79642431 0.27793966
vn -0.21126908 -0.09348449 0.97294708
vn -0.78436555 0.32303928 0.52954349
vn -0.19543072 0.26180822 0.94512607
vn 0.43784266 0.18217989 0.88040007
vn 0.57285650 0.44352380 0.68929099
vn 0.70809986 0.39030631 0.58843485
vn 0.21881184 -0.49207969 0.84260249
vn 0.03646532 0.87694299 0.47920901
vn 0.38445696 0.76992546 0.50932076
vn 0.88661761 0.06758568 0.45753839
vn 0.48010308 -0.12516439 0.86823666
vn 0.78588365 0.21785791 0.57872689
vn 0.03110022 -0.96546431 0.25867248
vn -0.06118884 -0.56590976 0.82219345
vn -0.04368568 -0.97244671 0.22899556
vn 0.88840608 -0.35818254 0.28712351
vn -0.53329101 -0.02884157 0.84544004
vn -0.77517780 -0.23637822 0.58585384
vn -0.77626724 0.39257917 0.49324514
vn -0.77549743 0.26312845 0.57390518
vn -0.18521244 0.35629193 0.91583427
vn 0.74241267 0.31001038 0.59389981
vn 0.71437849 0.44364592 0.54114847
vn 0.34273118 -0.43586288 0.83220123
vn 0.43444975 -0.72896205 0.52902527
vn 0.03000888 0.80561471 0.59167931
vn 0.07364738 0.88582214 0.45814322
vn 0.32271335 0.78332953 0.53127295
vn 0.87465944 -0.08523315 0.47718568
vn 0.77521401 0.11713737 0.62074316
vn 0.75469140 -0.02456243 0.65562000
vn -0.17019834 -0.37258160 0.91225845
vn 0.81630822 -0.49685953 0.29457003
f 9//9 4//4 3//3
f 11//11 6//6 3//3
f 11//11 3//3 4//4
f 11//11 4//4 6//6
f 15//15 3//3 7//7
f 16//16 9//9 3//3
f 16//16 15//15 2//2
f 16//16 3//3 15//15
f 18//18 4//4 9//9
f 18//18 13//13 4//4
f 18//18 5//5 13//13
f 19//19 6//6 13//13
f 20//20 3//3 6//6
f 20//20 6//6 10//10
f 20//20 7//7 3//3
f 22//22 13//13 6//6
f 22//22 6//6 4//4
f 22//22 4//4 13//13
f 23//23 13//13 5//5
f 26//26 19//19 8//8
f 30//30 9//9 17//17
f 30//30 18//18 9//9
f 30//30 5//5 18//18
f 31//31 17//17 9//9
f 31//31 9//9 16//16
f 32//32 19//19 12//12
f 34//34 23//23 12//12
f 34//34 12//12 19//19
f 35//35 14//14 28//28
f 35//35 24//24 1//1
f 35//35 1//1 26//26
f 36//36 24//24 20//20
f 36//36 20//20 1//1
f 36//36 1//1 24//24
f 37//37 24//24 35//35
f 38//38 25//25 14//14
f 38//38 8//8 17//17
f 38//38 14//14 35//35
f 38//38 35//35 26//26
f 38//38 26//26 8//8
f 40//40 20//20 10//10
f 40//40 26//26 1//1
f 40//40 1//1 20//20
f 41//41 2//2 15//15
f 41//41 28//28 14//14
f 42//42 14//14 25//25
f 43//43 15//15 7//7
f 43//43 41//41 15//15
f 43//43 28//28 41//41
f 44//44 17//17 8//8
f 44//44 8//8 29//29
f 45//45 29//29 8//8
f 45//45 8//8 19//19
f 45//45 19//19 32//32
f 46//46 30//30 17//17
f 46//46 29//29 45//45
f 46//46 45//45 5//5
f 46//46 5//5 30//30
f 46//46 44//44 29//29
f 46//46 17//17 44//44
f 47//47 16//16 2//2
f 47//47 2//2 42//42
f 47//47 42//42 25//25
f 48//48 32//32 12//12
f 48//48 12//12 23//23
f 49//49 21//21 32//32
f 49//49 32//32 48//48
f 49//49 48//48 23//23
f 49//49 23//23 5//5
f 50//50 19//19 13//13
f 50//50 13//13 23//23
f 50//50 23//23 33//33
f 51//51 34//34 33//33
f 51//51 33//33 23//23
f 51//51 23//23 34//34
f 52//52 34//34 19//19
f 52//52 33//33 34//34
f 52//52 50//50 33//33
f 52//52 19//19 50//50
f 53//53 35//35 28//28
f 53//53 37//37 35//35
f 53//53 7//7 37//37
f 53//53 43//43 7//7
f 53//53 28//28 43//43
f 54//54 37//37 7//7
f 54//54 7//7 20//20
f 54//54 20//20 24//24
f 54//54 24//24 37//37
f 55//55 31//31 25//25
f 55//55 25//25 38//38
f 56//56 38//38 17//17
f 56//56 17//17 31//31
f 56//56 55//55 38//38
f 56//56 31//31 55//55
f 57//57 26//26 10//10
f 57//57 19//19 26//26
f 57//57 39//39 6//6
f 57//57 6//6 19//19
f 58//58 10//10 6//6
f 58//58 6//6 39//39
f 58//58 57//57 10//10
f 58//58 39//39 57//57
f 59//59 40//40 10//10
f 59//59 10//10 26//26
f 59//59 26//26 40//40
f 60//60 41//41 27//27
f 60//60 2//2 41//41
f 60//60 42//42 2//2
f 61//61 41//41 14//14
f 61//61 14//14 27//27
f 61//61 27//27 41//41
f 62//62 27//27 14//14
f 62//62 14//14 42//42
f 62//62 60//60 27//27
f 62//62 42//42 60//60
f 63//63 45//45 32//32
f 63//63 32//32 21//21
f 63//63 21//21 49//49
f 63//63 49//49 5//5
f 63//63 5//5 45//45
f 64//64 31//31 16//16
f 64//64 16//16 47//47
f 64//64 47//47 25//25
f 64//64 25//25 31//31

