# https://github.com/mikedh/trimesh
v 0.02279388 -0.00208326 -0.02788775
v 0.02228265 -0.00761783 -0.02797206
v 0.00853163 -0.00207460 -0.04443123
v -0.00715149 -0.00207333 -0.04446353
v -0.00715149 -0.00207333 -0.02785387
v -0.00714936 -0.01334866 -0.04447209
v 0.02208331 -0.00208619 -0.03589028
v 0.00854986 -0.01337829 -0.02785387
v 0.02294264 -0.00267091 -0.03154103
v 0.00842772 -0.01308994 -0.04405694
v 0.02069990 -0.01253535 -0.02792474
v -0.00715149 -0.01337829 -0.02785387
v 0.02295499 -0.00210325 -0.03154251
v 0.02296651 -0.00267083 -0.03037954
v 0.02163154 -0.01005395 -0.03341035
v 0.02000031 -0.01246628 -0.03577160
v 0.02227742 -0.00210516 -0.03519744
v 0.02226203 -0.00817272 -0.03215730
v 0.02297951 -0.00210328 -0.03037928
v 0.02098870 -0.01246644 -0.03152123
v 0.02162249 -0.00754008 -0.03580915
v 0.02225282 -0.00816182 -0.02860688
v 0.02097257 -0.01183006 -0.03340072
v 0.02161688 -0.01058232 -0.03214930
v 0.02100126 -0.01003118 -0.03577516
v 0.02223817 -0.00761825 -0.03341207
v 0.02222606 -0.00573417 -0.03455269
v 0.02165406 -0.01005169 -0.02797161
v 0.02027566 -0.01238962 -0.03513844
v 0.02092527 -0.01118082 -0.03452010
v 0.02223998 -0.00329488 -0.03518608
v 0.02222219 -0.00698974 -0.03392358
v 0.02158313 -0.01056248 -0.02861477
v 0.02034540 -0.01181550 -0.03565202
v 0.02098482 -0.01182805 -0.02797928
v 0.02097971 -0.01246043 -0.03037535
vn 0.57819342 0.55757498 0.59565301
vn 0.72294267 -0.11388708 0.68145699
vn 0.21983551 0.63907744 -0.73705656
vn -0.57685864 0.57742986 -0.57776195
vn -0.57713163 0.57745745 0.57746166
vn -0.57058636 -0.57971544 -0.58168824
vn 0.63277961 0.61334907 -0.47264456
vn 0.02862058 -0.71817071 0.69527815
vn 0.99397062 -0.05985854 -0.09186601
vn 0.23678000 -0.65983175 -0.71313204
vn 0.43932476 -0.65077365 0.61926361
vn -0.57726780 -0.57791727 0.57686525
vn 0.74109389 0.66710097 -0.07586928
vn 0.99716615 -0.07000335 0.02755353
vn 0.94085995 -0.28627020 -0.18119583
vn 0.52010817 -0.74092280 -0.42487750
vn 0.80007294 0.57257088 -0.17901361
vn 0.97946766 -0.19527960 -0.05008972
vn 0.75351592 0.65719216 0.01766951
vn 0.62207997 -0.78184983 -0.04156135
vn 0.80463387 -0.14594158 -0.57555659
vn 0.97647179 -0.20418011 0.06937817
vn 0.89349199 -0.40983131 -0.18360384
vn 0.95085204 -0.30342453 -0.06175724
vn 0.79410854 -0.25173277 -0.55319277
vn 0.97156952 -0.17296028 -0.16167067
vn 0.96696770 -0.08868122 -0.23897512
vn 0.69505754 -0.20788518 0.68824325
vn 0.74629444 -0.63132861 -0.21087626
vn 0.90534345 -0.34393180 -0.24912679
vn 0.96214783 -0.06123214 -0.26556012
vn 0.97076095 -0.12608746 -0.20426730
vn 0.94394891 -0.31812730 0.08806514
vn 0.85155513 -0.34877091 -0.39142395
vn 0.91088072 -0.34930864 0.21972662
vn 0.71172797 -0.70206342 0.02345742
f 5//5 1//1 3//3
f 5//5 3//3 4//4
f 6//6 4//4 3//3
f 7//7 3//3 1//1
f 8//8 1//1 5//5
f 10//10 6//6 3//3
f 10//10 3//3 7//7
f 10//10 8//8 6//6
f 11//11 2//2 1//1
f 11//11 1//1 8//8
f 12//12 8//8 5//5
f 12//12 6//6 8//8
f 12//12 5//5 4//4
f 12//12 4//4 6//6
f 13//13 7//7 1//1
f 14//14 1//1 2//2
f 16//16 8//8 10//10
f 17//17 13//13 9//9
f 17//17 7//7 13//13
f 18//18 9//9 14//14
f 19//19 13//13 1//1
f 19//19 1//1 14//14
f 19//19 14//14 9//9
f 19//19 9//9 13//13
f 20//20 11//11 8//8
f 20//20 8//8 16//16
f 21//21 10//10 7//7
f 22//22 18//18 14//14
f 22//22 14//14 2//2
f 24//24 15//15 18//18
f 24//24 18//18 22//22
f 24//24 23//23 15//15
f 24//24 20//20 23//23
f 25//25 16//16 10//10
f 25//25 10//10 21//21
f 25//25 21//21 15//15
f 26//26 18//18 15//15
f 26//26 15//15 21//21
f 26//26 9//9 18//18
f 28//28 22//22 2//2
f 28//28 2//2 11//11
f 29//29 23//23 20//20
f 29//29 20//20 16//16
f 30//30 25//25 15//15
f 30//30 15//15 23//23
f 30//30 29//29 25//25
f 30//30 23//23 29//29
f 31//31 27//27 21//21
f 31//31 21//21 7//7
f 31//31 7//7 17//17
f 31//31 17//17 9//9
f 31//31 9//9 27//27
f 32//32 26//26 21//21
f 32//32 21//21 27//27
f 32//32 27//27 9//9
f 32//32 9//9 26//26
f 33//33 24//24 22//22
f 33//33 22//22 28//28
f 34//34 29//29 16//16
f 34//34 16//16 25//25
f 34//34 25//25 29//29
f 35//35 33//33 28//28
f 35//35 28//28 11//11
f 35//35 11//11 33//33
f 36//36 33//33 11//11
f 36//36 11//11 20//20
f 36//36 20//20 24//24
f 36//36 24//24 33//33

