# https://github.com/mikedh/trimesh
v -0.01638028 0.01347578 -0.01422678
v -0.01661923 -0.01141165 -0.01349990
v -0.01596052 -0.01061831 -0.03228383
v -0.03103380 0.00068666 -0.03228383
v -0.03100193 0.01164529 -0.01561296
v -0.03103380 -0.01061831 -0.03228383
v -0.02275557 0.02168111 -0.02431377
v -0.01596052 -0.01061831 -0.02411913
v -0.03105498 -0.01022033 -0.01513599
v -0.01596052 0.01261968 -0.02411913
v -0.01596052 0.00068666 -0.03228383
v -0.02267789 0.02025320 -0.02204002
v -0.03078038 0.01890639 -0.02441043
v -0.03103380 -0.01061831 -0.02411913
v -0.02333493 0.02153392 -0.02438400
v -0.02264501 0.01727817 -0.01911649
v -0.02267843 0.02143694 -0.02381797
v -0.03078345 0.01755382 -0.02210939
v -0.03069272 0.01869138 -0.02391627
v -0.02954384 0.01756531 -0.02156145
v -0.02326149 0.02129452 -0.02389511
vn 0.59263218 0.41249954 0.69183179
vn 0.50801770 -0.59292329 0.62478796
vn 0.57977449 -0.56412062 -0.58790260
vn -0.66924627 0.13965318 -0.72979889
vn -0.68741466 0.28051496 0.66990480
vn -0.58103084 -0.56822275 -0.58268865
vn 0.21307016 0.93381143 -0.28739750
vn 0.94319630 -0.33185639 0.01587676
vn -0.63039281 -0.53503232 0.56244584
vn 0.89659899 0.35355627 -0.26666123
vn 0.66988311 0.14983524 -0.72719049
vn -0.04838659 0.79858362 0.59993578
vn -0.68258505 0.66922133 -0.29363321
vn -0.70625164 -0.70790546 0.00885863
vn -0.23113266 0.90035184 -0.36870618
vn -0.15079338 0.68763253 0.71022733
vn 0.13422284 0.88082162 0.45402368
vn -0.74791505 0.53710925 0.39004710
vn -0.43851838 0.78083844 0.44496399
vn -0.26096759 0.73963511 0.62035137
vn -0.27674345 0.82505251 0.49264736
f 5//5 2//2 1//1
f 6//6 3//3 2//2
f 6//6 4//4 3//3
f 8//8 1//1 2//2
f 8//8 2//2 3//3
f 9//9 5//5 4//4
f 9//9 4//4 6//6
f 9//9 2//2 5//5
f 10//10 7//7 1//1
f 10//10 8//8 3//3
f 10//10 1//1 8//8
f 11//11 3//3 4//4
f 11//11 10//10 3//3
f 11//11 7//7 10//10
f 13//13 4//4 5//5
f 14//14 9//9 6//6
f 14//14 6//6 2//2
f 14//14 2//2 9//9
f 15//15 11//11 4//4
f 15//15 7//7 11//11
f 15//15 4//4 13//13
f 16//16 12//12 5//5
f 16//16 5//5 1//1
f 16//16 1//1 12//12
f 17//17 12//12 1//1
f 17//17 1//1 7//7
f 18//18 13//13 5//5
f 19//19 15//15 13//13
f 19//19 13//13 18//18
f 20//20 18//18 5//5
f 20//20 5//5 12//12
f 20//20 12//12 18//18
f 21//21 15//15 19//19
f 21//21 17//17 7//7
f 21//21 7//7 15//15
f 21//21 19//19 18//18
f 21//21 18//18 12//12
f 21//21 12//12 17//17

