# https://github.com/mikedh/trimesh
v 0.02111123 0.01148073 -0.01653899
v 0.02760882 -0.00388658 -0.02450617
v 0.02626775 0.01077024 -0.02992796
v 0.02111503 0.00842191 -0.03900124
v 0.02138940 -0.00899656 -0.01625341
v 0.02741804 0.00101572 -0.03305102
v 0.02123775 0.01217339 -0.03730744
v 0.02691934 0.00592835 -0.02211087
v 0.02142124 -0.00902028 -0.02501461
v 0.02563605 0.01188648 -0.02515530
v 0.02110336 0.01149118 -0.03775436
v 0.02503316 0.00772130 -0.03575220
v 0.02759088 0.00712651 -0.02868924
v 0.02505529 -0.00195589 -0.01737468
v 0.02129275 0.00726357 -0.03917597
v 0.02622386 -0.00893378 -0.02505150
v 0.02118724 0.01212510 -0.01709823
v 0.02508250 0.01191743 -0.03232107
v 0.02327186 0.00827226 -0.03749450
v 0.02691961 0.00889035 -0.02514716
v 0.02688196 0.00647336 -0.03294487
v 0.02759382 0.00405158 -0.02335294
v 0.02761216 0.00099675 -0.03235818
v 0.02442477 0.00464059 -0.01674832
v 0.02497053 -0.00803494 -0.02037385
v 0.02569848 0.01192055 -0.02993082
v 0.02505897 0.00885350 -0.01982037
v 0.02442599 0.01123009 -0.03452866
v 0.02206037 0.01067116 -0.03751605
v 0.02279266 0.00778567 -0.03807501
v 0.02629307 0.01077297 -0.02577248
v 0.02693371 0.00837363 -0.03107912
v 0.02514222 0.00712558 -0.03582778
v 0.02693559 -0.00081179 -0.02094418
v 0.02754833 0.00530808 -0.02389011
v 0.02759271 0.00532193 -0.03109408
v 0.02698879 -0.00694979 -0.02513235
v 0.02770800 -0.00390161 -0.02511777
v 0.02446879 -0.00258121 -0.01670027
v 0.02439260 -0.00866335 -0.01984352
v 0.02565706 0.01125909 -0.03167627
v 0.02444597 0.01189732 -0.02159785
v 0.02565516 0.01011725 -0.02222931
v 0.02565157 0.00590777 -0.01917698
v 0.02376117 0.01008605 -0.01858275
v 0.02393332 0.01193633 -0.03458980
v 0.02384632 0.01063483 -0.03576699
v 0.02624996 0.00887257 -0.03291975
v 0.02111273 0.01021887 -0.03836415
v 0.02169415 0.00720418 -0.03893567
v 0.02758433 0.00712233 -0.02691171
v 0.02697009 0.00891650 -0.02994058
v 0.02508059 0.00887787 -0.03514963
v 0.02286273 0.00716702 -0.03815779
v 0.02442920 0.00824532 -0.03638086
v 0.02757215 -0.00018739 -0.02273120
v 0.02626955 -0.00501985 -0.02097084
v 0.02691880 0.00286798 -0.02095132
v 0.02685466 0.00770650 -0.02338893
v 0.02758710 0.00649752 -0.02994487
v 0.02759658 0.00406637 -0.03172319
v 0.02652599 -0.00818010 -0.02510743
v 0.02508848 0.00338450 -0.01733369
v 0.02569073 -0.00871772 -0.02273896
vn -0.38644492 0.42682700 0.81760568
vn 0.96206813 -0.16102001 0.22022140
vn 0.91287274 0.39473742 -0.10414284
vn -0.47737578 0.20964562 -0.85332355
vn -0.33534014 -0.63540849 0.69555951
vn 0.68704723 -0.34971867 -0.63691676
vn -0.31143247 0.78999240 -0.52813049
vn 0.92022032 0.20259809 0.33488590
vn -0.61118479 -0.72277151 -0.32257480
vn 0.57787770 0.80881886 0.10894682
vn -0.49469382 0.44055057 -0.74912831
vn 0.81704526 0.22576572 -0.53053453
vn 0.98389407 0.17649330 -0.02832987
vn 0.83709685 -0.10060371 0.53772462
vn -0.35131490 -0.18233315 -0.91833135
vn 0.54274067 -0.79906396 -0.25870708
vn -0.31243954 0.80153637 0.50982446
vn 0.55835511 0.80112584 -0.21549239
vn 0.65471976 0.25592855 -0.71122613
vn 0.93862440 0.31067681 0.14988044
vn 0.91004583 0.17020016 -0.37795303
vn 0.98262233 0.06689208 0.17314390
vn 0.97699824 -0.10642379 -0.18479290
vn 0.52164681 0.13046122 0.84312779
vn 0.83434937 -0.33895099 0.43471066
vn 0.57016384 0.81920836 -0.06173222
vn 0.83337890 0.31942040 0.45105456
vn 0.78023015 0.42476591 -0.45914577
vn 0.59461526 0.36642929 -0.71565514
vn 0.60485954 0.21859976 -0.76574087
vn 0.90775355 0.40848816 0.09550346
vn 0.93605797 0.27851917 -0.21499427
vn 0.79210284 0.09412304 -0.60308701
vn 0.92204381 -0.07184594 0.38035954
vn 0.97699164 0.14027939 0.16065191
vn 0.98477105 0.10112354 -0.14142140
vn 0.95103441 -0.30907776 -0.00211837
vn 0.98928842 -0.14548464 0.01194354
vn 0.55018599 -0.11882307 0.82654489
vn 0.61453165 -0.68734528 0.38717867
vn 0.86627089 0.42715110 -0.25906888
vn 0.54901601 0.79607091 0.25466159
vn 0.86677084 0.37759009 0.32578220
vn 0.85940221 0.21703267 0.46295211
vn 0.73681536 0.39672707 0.54745845
vn 0.50817697 0.79175187 -0.33894713
vn 0.69584272 0.39761742 -0.59808301
vn 0.88345406 0.30678859 -0.35410406
vn -0.44401443 0.33266619 -0.83197619
vn 0.51253436 -0.08913092 -0.85402823
vn 0.98337493 0.17757815 0.03794413
vn 0.94251037 0.31855975 -0.10096481
vn 0.81505092 0.29325756 -0.49969190
vn 0.61151594 -0.03298945 -0.79054408
vn 0.72748348 0.23798766 -0.64352906
vn 0.97768568 -0.03051080 0.20784561
vn 0.89448368 -0.22760811 0.38482917
vn 0.92373384 0.06402298 0.37764645
vn 0.92531745 0.27009536 0.26615055
vn 0.98607132 0.13245461 -0.10059384
vn 0.98129280 0.06262689 -0.18205029
vn 0.92857339 -0.36816280 -0.04698528
vn 0.80563732 0.06173506 0.58918357
vn 0.69099698 -0.67330964 0.26301578
f 5//5 1//1 4//4
f 9//9 5//5 4//4
f 11//11 4//4 1//1
f 15//15 9//9 4//4
f 16//16 5//5 9//9
f 16//16 15//15 6//6
f 16//16 9//9 15//15
f 17//17 11//11 1//1
f 17//17 7//7 11//11
f 24//24 1//1 5//5
f 26//26 17//17 10//10
f 26//26 7//7 17//17
f 26//26 18//18 7//7
f 29//29 11//11 7//7
f 30//30 29//29 19//19
f 31//31 26//26 10//10
f 31//31 3//3 26//26
f 33//33 21//21 6//6
f 35//35 8//8 22//22
f 36//36 21//21 32//32
f 37//37 6//6 23//23
f 38//38 37//37 23//23
f 38//38 2//2 37//37
f 38//38 36//36 13//13
f 39//39 24//24 5//5
f 40//40 5//5 16//16
f 40//40 39//39 5//5
f 40//40 25//25 39//39
f 41//41 26//26 3//3
f 41//41 18//18 26//26
f 41//41 3//3 32//32
f 42//42 10//10 17//17
f 43//43 27//27 8//8
f 43//43 42//42 27//27
f 43//43 10//10 42//42
f 43//43 31//31 10//10
f 43//43 20//20 31//31
f 44//44 27//27 24//24
f 44//44 8//8 27//27
f 45//45 17//17 1//1
f 45//45 1//1 24//24
f 45//45 24//24 27//27
f 45//45 42//42 17//17
f 45//45 27//27 42//42
f 46//46 7//7 18//18
f 46//46 18//18 28//28
f 47//47 46//46 28//28
f 47//47 29//29 7//7
f 47//47 7//7 46//46
f 48//48 28//28 18//18
f 48//48 18//18 41//41
f 48//48 41//41 32//32
f 48//48 32//32 21//21
f 49//49 4//4 11//11
f 49//49 11//11 29//29
f 49//49 30//30 4//4
f 49//49 29//29 30//30
f 50//50 15//15 4//4
f 50//50 4//4 30//30
f 50//50 6//6 15//15
f 51//51 31//31 20//20
f 51//51 20//20 35//35
f 51//51 35//35 22//22
f 51//51 38//38 13//13
f 51//51 22//22 38//38
f 52//52 3//3 31//31
f 52//52 32//32 3//3
f 52//52 51//51 13//13
f 52//52 31//31 51//51
f 53//53 33//33 12//12
f 53//53 21//21 33//33
f 53//53 48//48 21//21
f 53//53 28//28 48//48
f 53//53 47//47 28//28
f 54//54 33//33 6//6
f 54//54 30//30 19//19
f 54//54 50//50 30//30
f 54//54 6//6 50//50
f 55//55 12//12 33//33
f 55//55 19//19 29//29
f 55//55 29//29 47//47
f 55//55 53//53 12//12
f 55//55 47//47 53//53
f 55//55 54//54 19//19
f 55//55 33//33 54//54
f 56//56 34//34 2//2
f 56//56 38//38 22//22
f 56//56 2//2 38//38
f 57//57 2//2 34//34
f 57//57 37//37 2//2
f 57//57 34//34 14//14
f 57//57 39//39 25//25
f 57//57 14//14 39//39
f 58//58 22//22 8//8
f 58//58 8//8 44//44
f 58//58 56//56 22//22
f 58//58 34//34 56//56
f 59//59 35//35 20//20
f 59//59 8//8 35//35
f 59//59 43//43 8//8
f 59//59 20//20 43//43
f 60//60 36//36 32//32
f 60//60 13//13 36//36
f 60//60 52//52 13//13
f 60//60 32//32 52//52
f 61//61 23//23 6//6
f 61//61 6//6 21//21
f 61//61 21//21 36//36
f 61//61 38//38 23//23
f 61//61 36//36 38//38
f 62//62 16//16 6//6
f 62//62 6//6 37//37
f 63//63 39//39 14//14
f 63//63 24//24 39//39
f 63//63 14//14 34//34
f 63//63 34//34 58//58
f 63//63 58//58 44//44
f 63//63 44//44 24//24
f 64//64 40//40 16//16
f 64//64 25//25 40//40
f 64//64 16//16 62//62
f 64//64 62//62 37//37
f 64//64 57//57 25//25
f 64//64 37//37 57//57

