# https://github.com/mikedh/trimesh
v 0.00607147 0.01786190 -0.01303811
v 0.01753708 0.01775860 -0.02426170
v 0.00226510 0.02866104 -0.02781671
v 0.00610203 0.01794561 -0.04134434
v 0.00713425 0.01778555 -0.04104956
v -0.02474503 0.02467189 -0.03363675
v 0.00949073 0.02484834 -0.02080993
v 0.01083849 0.01770421 -0.01512200
v -0.01639483 0.01850046 -0.01677448
v 0.01056072 0.02548372 -0.03258102
v 0.01565421 0.01772325 -0.03560248
v 0.00707435 0.02253921 -0.01660570
v 0.01366283 0.01997061 -0.01962830
v -0.01645487 0.01869889 -0.02534006
v -0.01497184 0.02794519 -0.02514215
v -0.01508312 0.01838779 -0.01629796
v 0.01246857 0.02497077 -0.02672001
v 0.00700138 0.02376485 -0.03776649
v 0.01563436 0.01771961 -0.02004729
v 0.00934921 0.02309342 -0.01842765
v 0.00846790 0.01773086 -0.01385616
v -0.01262151 0.02859472 -0.03078601
v -0.02472925 0.02462048 -0.02520334
v -0.00018652 0.02674326 -0.02013418
v -0.00742955 0.02376286 -0.01727659
v 0.01550019 0.02123837 -0.03075753
v 0.01423275 0.02186090 -0.02319217
v 0.00780736 0.02735226 -0.02966815
v 0.00592025 0.02335316 -0.03859796
v 0.01216477 0.01779404 -0.03861580
v 0.00998881 0.02494241 -0.03426324
v 0.01362204 0.01876332 -0.01839300
v 0.00829317 0.02259133 -0.01726244
v 0.00713522 0.02424413 -0.01839972
v 0.01054476 0.02367825 -0.02023666
v 0.00666227 0.01776878 -0.01315361
v -0.00761354 0.02859359 -0.02374382
v -0.01816882 0.02800999 -0.02907648
v 0.00535321 0.02730051 -0.02312665
v -0.00756171 0.01840527 -0.01380389
v -0.01556511 0.02381670 -0.02042687
v 0.00167386 0.02263278 -0.01540313
v 0.01423134 0.02120737 -0.03374205
v 0.01244285 0.02496252 -0.02901174
v 0.01607963 0.02068736 -0.02610235
v 0.01763017 0.01781151 -0.03147735
v 0.01604948 0.01875745 -0.02195810
v 0.01182475 0.02493902 -0.02431822
v -0.00080119 0.02797293 -0.03326372
v 0.00602685 0.01897529 -0.04096053
v 0.00885567 0.02135004 -0.03838918
v 0.01372310 0.01820558 -0.03724929
v 0.00597782 0.02624282 -0.03567512
v 0.01541667 0.01821342 -0.02018478
v 0.01124754 0.02000165 -0.01722262
v 0.00834087 0.02419276 -0.01897739
v 0.01000652 0.02371045 -0.01966547
v 0.01361829 0.02181853 -0.02194023
v 0.00528634 0.02259175 -0.01600553
v -0.01446837 0.02863894 -0.02959779
v -0.00571666 0.02678765 -0.02020018
v -0.01754149 0.02732410 -0.03257009
v -0.01997021 0.02735945 -0.02742583
v -0.00205051 0.02860346 -0.02374345
vn 0.07633731 -0.25377803 0.96424547
vn 0.87410479 -0.44478044 0.19522085
vn 0.13766036 0.99036467 -0.01508122
vn -0.01781989 -0.46040731 -0.88752891
vn 0.28977964 -0.54329111 -0.78794830
vn -0.81761033 0.03766879 -0.57453843
vn 0.41678232 0.80981894 0.41289924
vn 0.49674709 -0.46556048 0.73245872
vn -0.53077853 -0.44656408 0.72031568
vn 0.52348357 0.79950184 -0.29455348
vn 0.72432669 -0.45182707 -0.52077168
vn 0.30855591 0.61650011 0.72437619
vn 0.64743918 0.56597520 0.51038671
vn -0.32370892 -0.93853443 -0.11985681
vn -0.20148359 0.89822685 0.39063140
vn -0.29878120 -0.58653044 0.75280265
vn 0.61018575 0.78753613 0.08637242
vn 0.39589120 0.61183025 -0.68478749
vn 0.72501145 -0.49643947 0.47739528
vn 0.47565276 0.62286498 0.62112290
vn 0.35998894 -0.47286064 0.80424547
vn -0.04289170 0.96451296 -0.26052840
vn -0.92314850 0.12277379 0.36431230
vn 0.07107465 0.84042197 0.53725162
vn -0.17999971 0.64273888 0.74463873
vn 0.77522615 0.60603958 -0.17815848
vn 0.72903422 0.61702294 0.29629682
vn 0.31793817 0.94514876 -0.07489423
vn 0.12471904 0.57634367 -0.80763429
vn 0.46926722 -0.46434585 -0.75111331
vn 0.50934961 0.69631666 -0.50567390
vn 0.65515211 0.42955262 0.62149840
vn 0.39638646 0.60659382 0.68914564
vn 0.23795743 0.77757952 0.58201921
vn 0.59127054 0.65857819 0.46548246
vn 0.25264621 -0.47308957 0.84401194
vn -0.07242201 0.95540640 0.28627549
vn -0.25335955 0.96647725 -0.04160125
vn 0.24541277 0.92309642 0.29608371
vn -0.19796729 -0.38109995 0.90309013
vn -0.28614649 0.65780979 0.69671118
vn 0.02898110 0.61667910 0.78668099
vn 0.67618609 0.59513701 -0.43426295
vn 0.62756043 0.77263380 -0.09594224
vn 0.81537057 0.57000867 0.10129637
vn 0.88789055 -0.41061951 -0.20746563
vn 0.78958692 0.49392466 0.36413037
vn 0.55374043 0.79526721 0.24682303
vn 0.01829316 0.90516014 -0.42467691
vn 0.10870222 0.41546496 -0.90309064
vn 0.44697397 0.49913678 -0.74234544
vn 0.62304922 0.33370408 -0.70742579
vn 0.19454698 0.83261797 -0.51855452
vn 0.72551358 0.49731791 0.47571519
vn 0.53986934 0.54515848 0.64136054
vn 0.34201916 0.76005334 0.55257743
vn 0.52059894 0.66114792 0.54024084
vn 0.67288139 0.61514146 0.41089124
vn 0.18238895 0.65412429 0.73406790
vn -0.12104220 0.99073913 -0.06152045
vn -0.09231946 0.80547168 0.58539942
vn -0.17625848 0.83091812 -0.52773859
vn -0.35373630 0.91967135 0.17051461
vn 0.04187342 0.96849941 0.24546996
f 11//11 8//8 5//5
f 14//14 4//4 5//5
f 14//14 9//9 6//6
f 14//14 6//6 4//4
f 16//16 14//14 5//5
f 16//16 9//9 14//14
f 19//19 11//11 2//2
f 19//19 8//8 11//11
f 21//21 5//5 8//8
f 23//23 6//6 9//9
f 30//30 11//11 5//5
f 32//32 8//8 19//19
f 33//33 21//21 8//8
f 33//33 12//12 21//21
f 34//34 12//12 33//33
f 36//36 21//21 12//12
f 36//36 16//16 5//5
f 36//36 5//5 21//21
f 39//39 28//28 3//3
f 39//39 34//34 7//7
f 39//39 24//24 34//34
f 40//40 25//25 9//9
f 40//40 9//9 16//16
f 40//40 36//36 1//1
f 40//40 16//16 36//36
f 41//41 23//23 9//9
f 41//41 9//9 25//25
f 41//41 15//15 23//23
f 42//42 40//40 1//1
f 42//42 25//25 40//40
f 43//43 10//10 26//26
f 43//43 31//31 10//10
f 44//44 26//26 10//10
f 44//44 28//28 17//17
f 44//44 10//10 28//28
f 45//45 17//17 27//27
f 45//45 44//44 17//17
f 45//45 26//26 44//44
f 46//46 2//2 11//11
f 46//46 43//43 26//26
f 46//46 11//11 43//43
f 46//46 45//45 2//2
f 46//46 26//26 45//45
f 47//47 19//19 2//2
f 47//47 45//45 27//27
f 47//47 2//2 45//45
f 48//48 27//27 17//17
f 48//48 7//7 35//35
f 48//48 39//39 7//7
f 48//48 17//17 28//28
f 48//48 28//28 39//39
f 49//49 22//22 3//3
f 49//49 3//3 28//28
f 50//50 5//5 4//4
f 50//50 4//4 6//6
f 50//50 6//6 29//29
f 51//51 29//29 18//18
f 51//51 50//50 29//29
f 51//51 30//30 5//5
f 51//51 5//5 50//50
f 52//52 11//11 30//30
f 52//52 30//30 51//51
f 52//52 51//51 18//18
f 52//52 18//18 31//31
f 52//52 43//43 11//11
f 52//52 31//31 43//43
f 53//53 28//28 10//10
f 53//53 10//10 31//31
f 53//53 49//49 28//28
f 53//53 31//31 18//18
f 53//53 18//18 29//29
f 54//54 32//32 19//19
f 54//54 13//13 32//32
f 54//54 19//19 47//47
f 55//55 8//8 32//32
f 55//55 33//33 8//8
f 55//55 20//20 33//33
f 55//55 32//32 13//13
f 56//56 7//7 34//34
f 56//56 34//34 33//33
f 56//56 33//33 20//20
f 57//57 13//13 35//35
f 57//57 55//55 13//13
f 57//57 20//20 55//55
f 57//57 35//35 7//7
f 57//57 56//56 20//20
f 57//57 7//7 56//56
f 58//58 35//35 13//13
f 58//58 48//48 35//35
f 58//58 27//27 48//48
f 58//58 47//47 27//27
f 58//58 54//54 47//47
f 58//58 13//13 54//54
f 59//59 36//36 12//12
f 59//59 1//1 36//36
f 59//59 42//42 1//1
f 59//59 12//12 34//34
f 59//59 34//34 24//24
f 59//59 24//24 42//42
f 60//60 37//37 3//3
f 60//60 3//3 22//22
f 60//60 38//38 15//15
f 60//60 15//15 37//37
f 61//61 42//42 24//24
f 61//61 25//25 42//42
f 61//61 37//37 15//15
f 61//61 41//41 25//25
f 61//61 15//15 41//41
f 62//62 6//6 38//38
f 62//62 22//22 49//49
f 62//62 29//29 6//6
f 62//62 53//53 29//29
f 62//62 49//49 53//53
f 62//62 60//60 22//22
f 62//62 38//38 60//60
f 63//63 23//23 15//15
f 63//63 15//15 38//38
f 63//63 38//38 6//6
f 63//63 6//6 23//23
f 64//64 24//24 39//39
f 64//64 61//61 24//24
f 64//64 37//37 61//61
f 64//64 39//39 3//3
f 64//64 3//3 37//37

