# https://github.com/mikedh/trimesh
v 0.00478201 0.02054534 -0.03758827
v 0.01810618 -0.00404785 -0.03755144
v 0.00581864 0.00952857 -0.04577716
v -0.02017755 0.01142617 -0.04577025
v -0.02574674 -0.01820768 -0.03757529
v -0.00522629 0.01852697 -0.04395218
v 0.01613759 0.00636104 -0.04036662
v -0.02564046 0.01846999 -0.03747264
v -0.00151306 -0.01690058 -0.04451254
v 0.00459166 0.01792606 -0.04207287
v -0.00645024 0.01392501 -0.04577547
v 0.01767445 0.00644254 -0.03753207
v 0.01685798 -0.00892286 -0.03743435
v -0.02581013 0.00400717 -0.04580183
v -0.01813748 0.01779462 -0.04334554
v 0.00098173 0.01965862 -0.04163267
v -0.00033046 0.01676840 -0.04446365
v 0.01199770 0.01120473 -0.04212751
v 0.01733881 0.00211338 -0.03971025
v 0.00228181 0.02097432 -0.03754350
v -0.02501023 -0.01855063 -0.03744843
v 0.01814501 0.00395338 -0.03755299
v -0.02551728 0.01422821 -0.04266910
v -0.01932338 -0.01560468 -0.04445000
v -0.00396441 -0.01337537 -0.04575381
v -0.01267295 0.01393205 -0.04577794
v 0.00403856 0.01962014 -0.04045415
v 0.00475176 0.01247346 -0.04517392
v 0.00149128 0.01795010 -0.04324380
v -0.00459820 0.01639845 -0.04513901
v 0.01270816 0.00396840 -0.04387357
v 0.01744474 0.00638314 -0.03805181
v 0.01439352 -0.00467133 -0.04266902
v -0.01637831 0.02101102 -0.03749120
v 0.00414906 -0.02049641 -0.03757223
v 0.01793215 -0.00032934 -0.03862837
v -0.02562588 0.01066023 -0.04448276
v -0.02545421 0.01656311 -0.04085943
v -0.02559271 -0.01063152 -0.04443924
v -0.02177645 -0.01726389 -0.04214909
v -0.02581160 -0.00347952 -0.04581398
v -0.01328025 -0.01637198 -0.04511084
v -0.01638806 0.01576000 -0.04509709
v 0.00213317 0.01904426 -0.04205646
v 0.00457129 0.01908502 -0.04095771
v 0.00224191 0.02023380 -0.03994472
v 0.00824990 0.01070035 -0.04443368
v 0.00211153 0.01674885 -0.04382907
v -0.00095494 0.01795257 -0.04387202
v 0.00412593 0.01127147 -0.04573843
v 0.01434379 0.00511426 -0.04264923
v 0.00647173 -0.00782432 -0.04574566
v 0.01728258 0.00454518 -0.03924266
v 0.01671586 -0.00581694 -0.03970586
v -0.01942597 0.01892031 -0.04112759
v -0.01139153 0.02022754 -0.04118610
v -0.00020520 -0.02109628 -0.03753452
v 0.01190953 -0.01007100 -0.04265380
v 0.01791908 0.00085683 -0.03862247
v -0.02556480 0.01773627 -0.03916011
v -0.02566402 0.00883899 -0.04509218
v -0.02119093 0.01718366 -0.04268898
v -0.02427609 -0.01777377 -0.03977941
v -0.02421337 -0.01429107 -0.04320542
vn 0.41111380 0.76503560 0.49568737
vn 0.87841761 -0.11653818 0.46346666
vn 0.21203097 0.12995661 -0.96858358
vn -0.13778102 0.19180263 -0.97171402
vn -0.74962349 -0.54789083 0.37132232
vn 0.01764173 0.69730013 -0.71656214
vn 0.76443679 0.30890276 -0.56587586
vn -0.64431851 0.59361189 0.48216033
vn 0.14753709 -0.60530843 -0.78219851
vn 0.40427854 0.57426863 -0.71188089
vn 0.01124252 0.12872890 -0.99161609
vn 0.79155980 0.35670241 0.49618189
vn 0.76550308 -0.46795168 0.44161778
vn -0.71043745 0.02725611 -0.70323235
vn -0.19803237 0.68603572 -0.70009869
vn 0.10811941 0.85057599 -0.51461703
vn 0.16035530 0.42941674 -0.88875612
vn 0.63569032 0.51054617 -0.57899950
vn 0.82119052 0.04217611 -0.56909341
vn 0.08061377 0.81361229 0.57579204
vn -0.26436114 -0.79710674 0.54289413
vn 0.85731023 0.10255175 0.50448221
vn -0.76523972 0.34160222 -0.54563367
vn -0.19660887 -0.46265178 -0.86446416
vn 0.03720294 -0.16179402 -0.98612303
vn -0.01697732 0.15943496 -0.98706244
vn 0.30389198 0.84392701 -0.44208241
vn 0.29715640 0.38688779 -0.87293523
vn 0.23434482 0.59337456 -0.77005788
vn 0.04404649 0.36960351 -0.92814501
vn 0.44565713 0.06980528 -0.89247798
vn 0.83056880 0.35851171 -0.42617464
vn 0.60029690 -0.13695901 -0.78796311
vn -0.12924376 0.82955596 0.54326140
vn 0.39209837 -0.83931186 0.37658261
vn 0.91939020 -0.03430160 -0.39184827
vn -0.76821344 0.25280938 -0.58816283
vn -0.72772169 0.49774523 -0.47188010
vn -0.72634496 -0.21409019 -0.65313734
vn -0.25827814 -0.78022459 -0.56968587
vn -0.70304630 -0.04300162 -0.70984277
vn -0.06429226 -0.56079612 -0.82545395
vn -0.12858625 0.42540848 -0.89581985
vn 0.22912364 0.71936782 -0.65575323
vn 0.46755793 0.71803435 -0.51557371
vn 0.12104413 0.92770992 -0.35313259
vn 0.41526456 0.33060259 -0.84750060
vn 0.27590926 0.47980970 -0.83286057
vn 0.13339392 0.61456140 -0.77750907
vn 0.12902458 0.19468318 -0.97234311
vn 0.62530389 0.16215192 -0.76334907
vn 0.22668487 -0.16624368 -0.95967547
vn 0.85492013 0.15588081 -0.49478556
vn 0.80196985 -0.22899073 -0.55173147
vn -0.23650542 0.86138649 -0.44953142
vn -0.04845402 0.90049408 -0.43216042
vn 0.04786526 -0.88302472 0.46687928
vn 0.53692344 -0.46233781 -0.70566066
vn 0.93514848 0.02278584 -0.35352246
vn -0.76482518 0.55436817 -0.32820478
vn -0.74443225 0.15840088 -0.64863687
vn -0.31840235 0.63373175 -0.70498512
vn -0.42035615 -0.76093504 -0.49424546
vn -0.52866120 -0.48819511 -0.69439389
f 14//14 5//5 8//8
f 14//14 11//11 3//3
f 18//18 1//1 12//12
f 20//20 12//12 1//1
f 20//20 13//13 12//12
f 21//21 13//13 8//8
f 21//21 8//8 5//5
f 22//22 13//13 2//2
f 22//22 12//12 13//13
f 26//26 14//14 4//4
f 26//26 11//11 14//14
f 30//30 11//11 26//26
f 32//32 18//18 12//12
f 32//32 7//7 18//18
f 34//34 8//8 13//13
f 34//34 13//13 20//20
f 36//36 22//22 2//2
f 37//37 14//14 8//8
f 41//41 14//14 3//3
f 41//41 24//24 39//39
f 41//41 39//39 5//5
f 41//41 5//5 14//14
f 42//42 25//25 9//9
f 42//42 41//41 25//25
f 42//42 24//24 41//41
f 42//42 40//40 24//24
f 43//43 26//26 4//4
f 43//43 30//30 26//26
f 43//43 15//15 6//6
f 43//43 6//6 30//30
f 43//43 4//4 37//37
f 44//44 16//16 27//27
f 44//44 10//10 29//29
f 45//45 18//18 10//10
f 45//45 44//44 27//27
f 45//45 10//10 44//44
f 45//45 27//27 1//1
f 45//45 1//1 18//18
f 46//46 20//20 1//1
f 46//46 1//1 27//27
f 46//46 27//27 16//16
f 47//47 3//3 28//28
f 47//47 31//31 3//3
f 47//47 28//28 10//10
f 47//47 10//10 18//18
f 48//48 28//28 17//17
f 48//48 17//17 29//29
f 48//48 29//29 10//10
f 48//48 10//10 28//28
f 49//49 29//29 17//17
f 49//49 44//44 29//29
f 49//49 6//6 16//16
f 49//49 16//16 44//44
f 49//49 30//30 6//6
f 49//49 17//17 30//30
f 50//50 30//30 17//17
f 50//50 17//17 28//28
f 50//50 28//28 3//3
f 50//50 3//3 11//11
f 50//50 11//11 30//30
f 51//51 18//18 7//7
f 51//51 7//7 19//19
f 51//51 33//33 31//31
f 51//51 19//19 33//33
f 51//51 47//47 18//18
f 51//51 31//31 47//47
f 52//52 3//3 31//31
f 52//52 41//41 3//3
f 52//52 25//25 41//41
f 52//52 31//31 33//33
f 52//52 9//9 25//25
f 53//53 19//19 7//7
f 53//53 7//7 32//32
f 53//53 22//22 19//19
f 53//53 32//32 12//12
f 53//53 12//12 22//22
f 54//54 2//2 13//13
f 54//54 36//36 2//2
f 54//54 33//33 19//19
f 54//54 19//19 36//36
f 55//55 8//8 34//34
f 56//56 16//16 6//6
f 56//56 55//55 34//34
f 56//56 6//6 15//15
f 56//56 15//15 55//55
f 56//56 46//46 16//16
f 56//56 34//34 20//20
f 56//56 20//20 46//46
f 57//57 35//35 13//13
f 57//57 13//13 21//21
f 57//57 21//21 40//40
f 57//57 40//40 42//42
f 57//57 42//42 9//9
f 57//57 9//9 35//35
f 58//58 13//13 35//35
f 58//58 54//54 13//13
f 58//58 33//33 54//54
f 58//58 35//35 9//9
f 58//58 52//52 33//33
f 58//58 9//9 52//52
f 59//59 36//36 19//19
f 59//59 19//19 22//22
f 59//59 22//22 36//36
f 60//60 37//37 8//8
f 60//60 23//23 37//37
f 60//60 38//38 23//23
f 60//60 8//8 55//55
f 61//61 37//37 4//4
f 61//61 4//4 14//14
f 61//61 14//14 37//37
f 62//62 23//23 38//38
f 62//62 15//15 43//43
f 62//62 43//43 37//37
f 62//62 37//37 23//23
f 62//62 55//55 15//15
f 62//62 60//60 55//55
f 62//62 38//38 60//60
f 63//63 40//40 21//21
f 63//63 21//21 5//5
f 64//64 39//39 24//24
f 64//64 24//24 40//40
f 64//64 40//40 63//63
f 64//64 63//63 5//5
f 64//64 5//5 39//39

