# https://github.com/mikedh/trimesh
v 0.01217160 0.01542230 -0.02657320
v 0.01217160 0.00411733 -0.02657320
v 0.01369602 0.01665251 -0.03590470
v -0.02626513 0.02202336 -0.03486989
v -0.02624935 0.02197194 -0.02643648
v -0.02613967 0.00411733 -0.03473790
v 0.00514836 0.02402148 -0.03542452
v 0.01217160 0.00411733 -0.03473790
v -0.02613967 0.00411733 -0.02657320
v 0.00463496 0.02170284 -0.02657320
vn 0.65536547 0.28927551 0.69772185
vn 0.55094012 -0.59220564 0.58801144
vn 0.75505894 0.31574290 -0.57462372
vn -0.60236926 0.55660775 -0.57213554
vn -0.58989519 0.55449300 0.58699334
vn -0.58064342 -0.58333448 -0.56795608
vn 0.27122944 0.80667033 -0.52508816
vn 0.54191297 -0.63301920 -0.55282640
vn -0.57559088 -0.58111131 0.57533015
vn 0.24169280 0.63875492 0.73046337
f 1//1 2//2 3//3
f 5//5 2//2 1//1
f 6//6 4//4 3//3
f 7//7 1//1 3//3
f 7//7 3//3 4//4
f 7//7 4//4 5//5
f 8//8 6//6 3//3
f 8//8 3//3 2//2
f 8//8 2//2 6//6
f 9//9 5//5 4//4
f 9//9 4//4 6//6
f 9//9 6//6 2//2
f 9//9 2//2 5//5
f 10//10 7//7 5//5
f 10//10 5//5 1//1
f 10//10 1//1 7//7

