# https://github.com/mikedh/trimesh
v 0.00604347 -0.01554098 -0.01090343
v 0.01789148 -0.01584298 -0.02514915
v 0.01751363 -0.01568802 -0.02341465
v 0.00554104 -0.01654940 -0.04136233
v -0.00143580 -0.02840628 -0.02527421
v 0.01331644 -0.01625832 -0.03769435
v -0.02522242 -0.01655754 -0.02511227
v 0.01064940 -0.02522266 -0.02524214
v 0.01567147 -0.01621242 -0.03535831
v 0.00716759 -0.01546666 -0.01165519
v -0.02523251 -0.01647014 -0.01577939
v -0.02488263 -0.02450065 -0.03294880
v 0.00717590 -0.01642918 -0.04083711
v 0.01549560 -0.01980630 -0.02473020
v 0.00591983 -0.02340019 -0.01751038
v 0.00532168 -0.02538420 -0.03605840
v -0.02522242 -0.01718559 -0.03327697
v -0.01870316 -0.02702005 -0.02604179
v 0.00555221 -0.01592948 -0.02511227
v 0.01669672 -0.01800169 -0.02466851
v 0.01362922 -0.01670886 -0.01752384
v 0.01425146 -0.02161330 -0.03002463
v 0.00533324 -0.02638718 -0.02228805
v -0.00377171 -0.02349822 -0.01639821
v 0.00817947 -0.02163701 -0.01702738
v 0.00600719 -0.02711897 -0.02942122
v 0.00530227 -0.02192066 -0.03892856
v 0.00938316 -0.02348331 -0.03515171
v -0.01011346 -0.02774184 -0.03241960
v -0.02489386 -0.02521266 -0.03060150
v 0.01736582 -0.01677285 -0.02461410
v 0.01516826 -0.01564121 -0.01855214
v 0.01240648 -0.02155112 -0.02118938
v 0.01490458 -0.02101588 -0.02649794
v 0.01758732 -0.01629535 -0.03123111
v 0.00835545 -0.02456105 -0.02055890
v 0.00049382 -0.02283968 -0.01571211
v -0.00379738 -0.01686762 -0.01157352
v -0.00936430 -0.02531736 -0.01945062
v -0.00139786 -0.02588612 -0.01932793
v 0.01069426 -0.01609769 -0.01442815
v 0.00596502 -0.02225933 -0.01635860
v 0.00596959 -0.02708234 -0.02521229
v 0.00545051 -0.01820158 -0.04081347
v 0.01372765 -0.01854000 -0.03577162
v 0.00894560 -0.02576395 -0.03179085
v 0.00757540 -0.02227609 -0.03758167
v -0.01506027 -0.02708948 -0.03300350
v -0.01323023 -0.02840219 -0.02876402
v -0.00266329 -0.02841004 -0.02936675
v -0.02491263 -0.02390186 -0.02434050
v 0.01735040 -0.01739077 -0.02649927
v 0.01731710 -0.01622416 -0.02347687
v 0.01685883 -0.01566585 -0.02162838
v 0.01364015 -0.02157355 -0.02348162
v 0.01424123 -0.01788493 -0.01931377
v 0.01064861 -0.02520531 -0.02994328
v 0.01546819 -0.01914966 -0.03239893
v 0.01700267 -0.01627358 -0.03302999
v 0.00897472 -0.02581702 -0.02406914
v 0.00535275 -0.02518422 -0.01990613
v 0.01001473 -0.02461472 -0.02231115
v 0.00887349 -0.02392632 -0.01997899
v -0.01061739 -0.01618261 -0.01303517
vn 0.23007573 0.38695364 0.89293451
vn 0.87893165 0.47371054 0.05547513
vn 0.79667940 0.56396227 0.21736717
vn 0.03114939 0.48910502 -0.87166851
vn 0.05260883 -0.98013378 0.19123307
vn 0.50529158 0.47797650 -0.71848374
vn -0.70501949 0.70861170 -0.02858272
vn 0.56628529 -0.81534365 0.12056408
vn 0.70940453 0.45800323 -0.53570352
vn 0.46173136 0.58060124 0.67060148
vn -0.66071369 0.32727235 0.67553699
vn -0.67970891 -0.45858404 -0.57244780
vn 0.33189569 0.52559750 -0.78332147
vn 0.78737513 -0.56975989 0.23540193
vn 0.25423664 -0.74280070 0.61936325
vn 0.19136178 -0.79746557 -0.57221442
vn -0.66180191 0.53319116 -0.52699660
vn -0.25328795 -0.92703869 0.27648596
vn -0.01811672 0.99929365 -0.03292398
vn 0.81925308 -0.52321476 0.23467146
vn 0.63598595 -0.44509740 0.63040477
vn 0.73957834 -0.65079579 -0.17172278
vn 0.20892229 -0.90876479 0.36124512
vn -0.08188357 -0.69053110 0.71865283
vn 0.46859510 -0.60283835 0.64575890
vn 0.24498551 -0.96296381 -0.11261797
vn 0.13725169 -0.52488017 -0.84003737
vn 0.54280789 -0.65620946 -0.52416480
vn -0.02585090 -0.90900806 -0.41597606
vn -0.75047015 -0.65779014 -0.06408341
vn 0.87520660 -0.43989386 0.20126299
vn 0.71841621 0.48330966 0.50028984
vn 0.64946170 -0.60494744 0.46069306
vn 0.77275953 -0.63224347 0.05577547
vn 0.92899979 0.31433839 -0.19532219
vn 0.34953182 -0.81740916 0.45789712
vn 0.06181720 -0.68302433 0.72777497
vn -0.12218731 -0.06102991 0.99062890
vn -0.15122243 -0.80948078 0.56733820
vn 0.02464628 -0.86113716 0.50777491
vn 0.62912590 -0.13042413 0.76628334
vn 0.27054051 -0.65009352 0.71006073
vn 0.25884268 -0.95711864 0.13009373
vn 0.11627557 -0.39277426 -0.91225456
vn 0.62123451 -0.53098977 -0.57629641
vn 0.44280590 -0.85037486 -0.28422797
vn 0.43128745 -0.53517843 -0.72634371
vn -0.16328614 -0.79920340 -0.57845619
vn -0.11774135 -0.99296950 0.01218825
vn 0.06497339 -0.98391239 -0.16641777
vn -0.75317795 -0.57970723 0.31090594
vn 0.88873785 -0.45799301 0.01968346
vn 0.85330912 -0.42890204 0.29649045
vn 0.79657049 0.48125462 0.36588174
vn 0.72221967 -0.62533243 0.29556403
vn 0.69112931 -0.53582055 0.48501197
vn 0.57529131 -0.80385561 -0.15118226
vn 0.75108659 -0.57590063 -0.32281171
vn 0.84046447 0.39129090 -0.37484785
vn 0.38094910 -0.89629368 0.22701416
vn 0.20035391 -0.84286742 0.49943250
vn 0.53492027 -0.75673723 0.37577795
vn 0.47433434 -0.69423805 0.54133212
vn -0.14842326 0.67094476 0.72650097
f 9//9 6//6 3//3
f 9//9 3//3 2//2
f 11//11 10//10 7//7
f 11//11 1//1 10//10
f 13//13 3//3 6//6
f 17//17 4//4 12//12
f 17//17 13//13 4//4
f 17//17 7//7 13//13
f 17//17 11//11 7//7
f 19//19 13//13 7//7
f 19//19 7//7 10//10
f 19//19 10//10 3//3
f 19//19 3//3 13//13
f 30//30 17//17 12//12
f 30//30 11//11 17//17
f 38//38 11//11 24//24
f 38//38 37//37 1//1
f 38//38 24//24 37//37
f 39//39 24//24 11//11
f 39//39 18//18 5//5
f 40//40 5//5 23//23
f 40//40 37//37 24//24
f 40//40 15//15 37//37
f 40//40 39//39 5//5
f 40//40 24//24 39//39
f 41//41 10//10 1//1
f 41//41 1//1 25//25
f 41//41 25//25 21//21
f 41//41 32//32 10//10
f 41//41 21//21 32//32
f 42//42 25//25 1//1
f 42//42 15//15 25//25
f 42//42 37//37 15//15
f 42//42 1//1 37//37
f 43//43 23//23 5//5
f 43//43 5//5 26//26
f 43//43 26//26 8//8
f 44//44 4//4 13//13
f 44//44 27//27 12//12
f 44//44 12//12 4//4
f 45//45 6//6 9//9
f 46//46 26//26 16//16
f 46//46 16//16 28//28
f 47//47 45//45 28//28
f 47//47 6//6 45//45
f 47//47 27//27 44//44
f 47//47 44//44 13//13
f 47//47 13//13 6//6
f 47//47 28//28 16//16
f 47//47 16//16 27//27
f 48//48 27//27 16//16
f 48//48 16//16 29//29
f 48//48 12//12 27//27
f 48//48 30//30 12//12
f 49//49 5//5 18//18
f 49//49 48//48 29//29
f 49//49 18//18 30//30
f 49//49 30//30 48//48
f 50//50 26//26 5//5
f 50//50 49//49 29//29
f 50//50 5//5 49//49
f 50//50 29//29 16//16
f 50//50 16//16 26//26
f 51//51 30//30 18//18
f 51//51 11//11 30//30
f 51//51 39//39 11//11
f 51//51 18//18 39//39
f 52//52 31//31 20//20
f 52//52 2//2 31//31
f 52//52 35//35 2//2
f 52//52 34//34 22//22
f 52//52 22//22 35//35
f 52//52 20//20 14//14
f 52//52 14//14 34//34
f 53//53 31//31 2//2
f 53//53 2//2 3//3
f 53//53 20//20 31//31
f 54//54 3//3 10//10
f 54//54 10//10 32//32
f 54//54 53//53 3//3
f 54//54 14//14 20//20
f 54//54 20//20 53//53
f 55//55 34//34 14//14
f 55//55 8//8 34//34
f 56//56 32//32 21//21
f 56//56 54//54 32//32
f 56//56 33//33 55//55
f 56//56 55//55 14//14
f 56//56 14//14 54//54
f 57//57 34//34 8//8
f 57//57 22//22 34//34
f 57//57 8//8 26//26
f 57//57 26//26 46//46
f 57//57 46//46 28//28
f 58//58 35//35 22//22
f 58//58 45//45 9//9
f 58//58 28//28 45//45
f 58//58 57//57 28//28
f 58//58 22//22 57//57
f 59//59 9//9 2//2
f 59//59 2//2 35//35
f 59//59 58//58 9//9
f 59//59 35//35 58//58
f 60//60 36//36 23//23
f 60//60 43//43 8//8
f 60//60 23//23 43//43
f 61//61 36//36 15//15
f 61//61 23//23 36//36
f 61//61 40//40 23//23
f 61//61 15//15 40//40
f 62//62 55//55 33//33
f 62//62 8//8 55//55
f 62//62 60//60 8//8
f 62//62 36//36 60//60
f 63//63 25//25 15//15
f 63//63 15//15 36//36
f 63//63 33//33 56//56
f 63//63 56//56 21//21
f 63//63 21//21 25//25
f 63//63 62//62 33//33
f 63//63 36//36 62//62
f 64//64 38//38 1//1
f 64//64 1//1 11//11
f 64//64 11//11 38//38

