# https://github.com/mikedh/trimesh
v -0.04688034 0.00181098 -0.00230783
v -0.03167348 -0.01066642 -0.01518426
v -0.03166251 0.01123787 -0.01568252
v -0.03590033 0.00818838 -0.03989282
v -0.04598884 -0.01051199 -0.03083454
v -0.03599859 -0.00168129 -0.04054579
v -0.03999966 0.01699424 -0.03026911
v -0.03167310 0.00379983 -0.01111179
v -0.03634407 -0.01845645 -0.02518870
v -0.04605435 0.00141174 -0.03621094
v -0.03581271 0.01841684 -0.02450353
v -0.03167275 -0.00342326 -0.01103548
v -0.03165813 0.00670669 -0.01238677
v -0.04723322 -0.00344583 -0.00391863
v -0.03571876 -0.01628231 -0.03562009
v -0.04136003 0.00381890 -0.03912613
v -0.05097499 0.00495692 -0.02099645
v -0.03585766 0.01656782 -0.02156150
v -0.03579495 0.01724010 -0.03449324
v -0.04638494 0.00124537 -0.00233005
v -0.03163935 0.00855141 -0.01353532
v -0.04577824 0.00224145 -0.00290405
v -0.03584474 -0.01737871 -0.02274255
v -0.04994647 -0.00659697 -0.01562626
v -0.04629609 -0.00247595 -0.00295563
v -0.03583249 -0.01023579 -0.03924247
v -0.03585206 -0.01875110 -0.03096334
v -0.03960690 0.00328063 -0.03977670
v -0.04658357 0.00975279 -0.03082151
v -0.05041978 0.00463759 -0.00992580
v -0.04975848 -0.00283042 -0.02897304
v -0.04827244 0.00329577 -0.00400973
v -0.03582729 0.01777815 -0.02332956
v -0.03583534 0.01912891 -0.02975004
v -0.03574085 0.01484141 -0.03682438
v -0.03166130 -0.01005492 -0.01469895
v -0.04556511 0.00186027 -0.00288856
v -0.03165390 0.01092396 -0.01536700
v -0.04576002 0.00392117 -0.00466357
v -0.04781360 -0.00401450 -0.00516627
v -0.03580062 -0.01865366 -0.02510451
v -0.04619172 -0.00347877 -0.00399179
v -0.04052400 -0.01666765 -0.02688074
v -0.04550975 -0.00148338 -0.00283696
v -0.04825700 -0.00088550 -0.00223606
v -0.03576233 -0.01387520 -0.03744523
v -0.04136977 -0.00349414 -0.03914978
v -0.03584632 -0.01808294 -0.03277374
v -0.03895436 0.00510895 -0.03974771
v -0.04852258 0.00908734 -0.02479734
v -0.04049751 0.01467234 -0.03362194
v -0.03996436 0.01698868 -0.02629773
v -0.05169341 -0.00156590 -0.00924144
v -0.04656067 -0.00583902 -0.03438559
v -0.04974505 -0.00697783 -0.02474776
v -0.04909047 0.00437755 -0.03020795
v -0.04723487 0.00384909 -0.00454150
v -0.03582018 0.01910873 -0.02627102
v -0.03581193 0.01840306 -0.03213141
v -0.03586078 0.01003149 -0.03932374
v -0.03164108 -0.00755412 -0.01287150
v -0.04581495 -0.00290661 -0.00343797
v -0.03700612 -0.01855533 -0.02632084
v -0.04831003 -0.00466582 -0.00695293
vn -0.09829292 0.39879729 0.91175612
vn 0.77341891 -0.52283004 0.35842982
vn 0.77275748 0.53666898 0.33886911
vn 0.50330155 0.18900397 -0.84318744
vn -0.73634805 -0.58139249 -0.34608426
vn 0.53600189 -0.04488031 -0.84302297
vn -0.57379474 0.79350251 -0.20276430
vn 0.82720252 0.13355087 0.54580231
vn -0.39285155 -0.85420365 0.34059329
vn -0.72820156 0.10308686 -0.67756593
vn 0.12284746 0.91526213 0.38367138
vn 0.82486216 -0.12987655 0.55021314
vn 0.81709311 0.27552709 0.50640267
vn -0.28164108 -0.71711846 0.63751032
vn 0.34057095 -0.68788433 -0.64095754
vn -0.49366921 0.20992614 -0.84393230
vn -0.96263948 0.26443211 -0.05831712
vn 0.08285069 0.81419777 0.57464577
vn 0.37398856 0.74561867 -0.55153002
vn 0.29913637 0.06686888 0.95186448
vn 0.80766696 0.34771867 0.47619933
vn 0.28322808 0.51583474 0.80851492
vn 0.10198101 -0.86136081 0.49765191
vn -0.78449781 -0.60557210 0.13358746
vn 0.10996330 -0.50661276 0.85513249
vn 0.42882133 -0.31616986 -0.84625581
vn 0.30315206 -0.92159262 -0.24241673
vn -0.24808880 0.05079996 -0.96740442
vn -0.76325499 0.49837155 -0.41117834
vn -0.79501231 0.54697380 0.26225003
vn -0.94657108 -0.12248463 -0.29832988
vn -0.55763286 0.58143393 0.59243580
vn 0.08770812 0.86731911 0.48996413
vn 0.33680209 0.93080746 -0.14199231
vn 0.39623545 0.51789121 -0.75814653
vn 0.80809057 -0.36952837 0.45873567
vn 0.45904525 0.21214819 0.86271119
vn 0.77266529 0.44403414 0.45367614
vn 0.07834006 0.75281293 0.65355606
vn -0.51879771 -0.71166958 0.47368275
vn 0.33433400 -0.91507857 0.22550385
vn 0.06642995 -0.75502795 0.65231883
vn -0.58956082 -0.80772397 -0.00019823
vn 0.36908680 -0.19963866 0.90770003
vn -0.49977973 -0.17400493 0.84849426
vn 0.37780856 -0.49538168 -0.78221332
vn -0.43596213 -0.18020746 -0.88173822
vn 0.29207852 -0.85770430 -0.42312347
vn -0.26742139 0.18921378 -0.94481953
vn -0.81094325 0.58182310 -0.06207195
vn -0.58660614 0.58299453 -0.56214821
vn -0.54187504 0.82748405 0.14711083
vn -0.95319208 -0.17939410 0.24339804
vn -0.74714803 -0.30637627 -0.58983337
vn -0.90013857 -0.42148971 -0.10998629
vn -0.90746379 0.20397075 -0.36729472
vn -0.08103774 0.79754102 0.59779696
vn 0.26304193 0.95463287 0.13958875
vn 0.38157464 0.85395743 -0.35377605
vn 0.42331397 0.36456187 -0.82939733
vn 0.81014422 -0.31491406 0.49446484
vn 0.22883112 -0.61940089 0.75098526
vn -0.34627576 -0.93148326 0.11149907
vn -0.58739659 -0.71666168 0.37598043
f 6//6 3//3 2//2
f 6//6 4//4 3//3
f 20//20 12//12 8//8
f 21//21 13//13 8//8
f 22//22 8//8 13//13
f 22//22 1//1 20//20
f 22//22 13//13 21//21
f 26//26 6//6 2//2
f 33//33 18//18 3//3
f 33//33 3//3 11//11
f 33//33 11//11 32//32
f 35//35 19//19 3//3
f 37//37 22//22 20//20
f 37//37 20//20 8//8
f 37//37 8//8 22//22
f 38//38 22//22 21//21
f 38//38 3//3 22//22
f 38//38 36//36 2//2
f 38//38 2//2 3//3
f 39//39 22//22 3//3
f 39//39 3//3 18//18
f 39//39 1//1 22//22
f 40//40 23//23 14//14
f 41//41 2//2 23//23
f 41//41 27//27 2//2
f 41//41 23//23 40//40
f 42//42 23//23 2//2
f 42//42 14//14 23//23
f 42//42 25//25 14//14
f 44//44 12//12 20//20
f 45//45 20//20 1//1
f 45//45 14//14 25//25
f 45//45 1//1 32//32
f 45//45 40//40 14//14
f 45//45 44//44 20//20
f 45//45 25//25 44//44
f 46//46 26//26 2//2
f 46//46 2//2 15//15
f 47//47 6//6 26//26
f 47//47 28//28 6//6
f 47//47 16//16 28//28
f 47//47 10//10 16//16
f 47//47 26//26 46//46
f 48//48 15//15 2//2
f 48//48 2//2 27//27
f 48//48 5//5 15//15
f 48//48 43//43 5//5
f 48//48 27//27 43//43
f 49//49 28//28 16//16
f 49//49 4//4 6//6
f 49//49 6//6 28//28
f 50//50 7//7 29//29
f 50//50 17//17 30//30
f 51//51 29//29 7//7
f 51//51 7//7 19//19
f 51//51 19//19 35//35
f 51//51 35//35 16//16
f 51//51 16//16 10//10
f 51//51 10//10 29//29
f 52//52 50//50 30//30
f 52//52 7//7 50//50
f 52//52 34//34 7//7
f 52//52 32//32 11//11
f 52//52 30//30 32//32
f 53//53 30//30 17//17
f 53//53 40//40 45//45
f 53//53 45//45 32//32
f 53//53 32//32 30//30
f 53//53 17//17 31//31
f 54//54 31//31 10//10
f 54//54 10//10 47//47
f 54//54 47//47 46//46
f 54//54 46//46 15//15
f 54//54 15//15 5//5
f 55//55 53//53 31//31
f 55//55 24//24 53//53
f 55//55 43//43 24//24
f 55//55 5//5 43//43
f 55//55 54//54 5//5
f 55//55 31//31 54//54
f 56//56 29//29 10//10
f 56//56 10//10 31//31
f 56//56 31//31 17//17
f 56//56 50//50 29//29
f 56//56 17//17 50//50
f 57//57 33//33 32//32
f 57//57 18//18 33//33
f 57//57 39//39 18//18
f 57//57 32//32 1//1
f 57//57 1//1 39//39
f 58//58 11//11 3//3
f 58//58 3//3 34//34
f 58//58 52//52 11//11
f 58//58 34//34 52//52
f 59//59 34//34 3//3
f 59//59 3//3 19//19
f 59//59 19//19 7//7
f 59//59 7//7 34//34
f 60//60 35//35 3//3
f 60//60 3//3 4//4
f 60//60 16//16 35//35
f 60//60 49//49 16//16
f 60//60 4//4 49//49
f 61//61 44//44 25//25
f 61//61 12//12 44//44
f 61//61 21//21 8//8
f 61//61 8//8 12//12
f 61//61 38//38 21//21
f 61//61 36//36 38//38
f 62//62 2//2 36//36
f 62//62 42//42 2//2
f 62//62 25//25 42//42
f 62//62 61//61 25//25
f 62//62 36//36 61//61
f 63//63 41//41 9//9
f 63//63 27//27 41//41
f 63//63 43//43 27//27
f 64//64 41//41 40//40
f 64//64 9//9 41//41
f 64//64 63//63 9//9
f 64//64 43//43 63//63
f 64//64 24//24 43//43
f 64//64 53//53 24//24
f 64//64 40//40 53//53

