# https://github.com/mikedh/trimesh
v 0.00394336 0.00193326 0.03671523
v 0.02235094 -0.00217017 0.02656470
v 0.00402207 0.01392404 0.01985208
v -0.00743675 0.00674313 0.00442798
v -0.00511541 -0.01351780 0.01992403
v 0.01120425 0.00494176 0.00444434
v -0.01517555 0.00531984 0.02647248
v 0.02124652 0.00507812 0.02511754
v 0.00146436 -0.01098942 0.02997111
v 0.00532039 0.00961171 0.00463554
v 0.00052306 -0.00987299 0.00467199
v -0.00383274 0.01075221 0.03068017
v -0.00907128 0.01203933 0.01940009
v -0.01191818 -0.00162453 0.00444279
v 0.02185734 0.00193122 0.02738726
v 0.02224831 0.00175317 0.01890934
v 0.01459934 -0.00968101 0.02080929
v 0.00451009 -0.00305792 0.03605994
v -0.01331483 -0.00494694 0.02998470
v 0.00706896 0.00893836 0.00454206
v 0.00333167 0.01195753 0.02768467
v -0.01451758 0.00675094 0.01942109
v -0.00124218 0.00961469 0.00460060
v -0.00444801 0.01329112 0.02416205
v -0.00615262 -0.00744850 0.00442954
v 0.00499138 0.00337515 0.03559824
v 0.01064878 -0.00583405 0.00450741
v 0.02228217 0.00192024 0.02691863
v 0.00459265 -0.01350195 0.02165971
v 0.02125084 -0.00466805 0.02574732
v 0.00558557 -0.00040283 0.03612045
v -0.00678264 -0.01093944 0.02893627
v -0.01458980 -0.00677193 0.01999829
v -0.00562736 -0.00210888 0.03546549
v 0.00885947 0.00782725 0.00450331
v 0.00522045 0.01318337 0.01644036
v 0.01142760 0.01071507 0.02276575
v -0.01095719 0.01008941 0.01767911
v -0.01338838 0.00837191 0.02476941
v -0.01188764 0.00140856 0.00450682
v -0.00790953 0.01197980 0.01712310
v -0.00554598 0.00789480 0.00445417
v 0.00161810 0.01390138 0.02222863
v -0.00323893 0.01259712 0.02718676
v -0.00493393 -0.01282096 0.01648784
v -0.01055234 -0.00388015 0.00438889
v 0.02146036 0.00353927 0.02677804
v 0.00504321 0.00245400 0.03614135
v 0.00086147 0.00961780 0.03176098
v 0.01183942 -0.00340465 0.00446351
v 0.00756555 -0.00867558 0.00453312
v 0.02233476 -0.00151848 0.02695419
v 0.02232270 -0.00148280 0.01889541
v 0.02173055 0.00440336 0.02506362
v 0.00329354 -0.01215033 0.02708863
v 0.00323867 -0.00859903 0.03173049
v 0.00396006 -0.00155302 0.03677520
v -0.01100152 -0.01029579 0.02529935
v -0.01711498 -0.00030981 0.02419638
v -0.00561964 0.00613983 0.03411499
v -0.00677835 -0.00744810 0.03289063
v 0.01985957 0.00518589 0.01884830
v -0.00195207 0.01390637 0.01760291
v 0.02009914 0.00634331 0.02392897
vn 0.11817002 0.24448597 0.96242530
vn 0.86126142 -0.32812723 0.38802228
vn 0.21284218 0.97682466 0.02262275
vn -0.39717673 0.46168616 -0.79315606
vn -0.25863080 -0.96536839 -0.03426327
vn 0.49919049 0.25127360 -0.82925896
vn -0.81499169 0.38705784 0.43124792
vn 0.66005311 0.69976209 0.27324514
vn 0.09988200 -0.80363911 0.58667518
vn 0.12107606 0.68079698 -0.72239605
vn -0.02987821 -0.68889713 -0.72424308
vn -0.22125124 0.77344398 0.59399689
vn -0.48504350 0.87301465 -0.05077623
vn -0.64832751 -0.15364397 -0.74569764
vn 0.59630951 0.19921821 0.77764199
vn 0.91842871 0.24671398 -0.30922633
vn 0.50952382 -0.86030721 -0.01603059
vn 0.23333797 -0.46553048 0.85371820
vn -0.73808053 -0.30855203 0.60002732
vn 0.28131330 0.58678558 -0.75930594
vn 0.23547763 0.85954762 0.45357268
vn -0.86048091 0.47987176 -0.17115987
vn -0.10506511 0.64491621 -0.75699696
vn -0.25790688 0.94456882 0.20315951
vn -0.31155139 -0.53893637 -0.78261314
vn 0.27189947 0.56715576 0.77743490
vn 0.45499412 -0.40079583 -0.79520001
vn 0.90915669 0.18872309 0.37123807
vn 0.19159756 -0.98013430 0.05125550
vn 0.68952579 -0.65195412 0.31545208
vn 0.44086440 -0.03528395 0.89687994
vn -0.27744886 -0.84092739 0.46461087
vn -0.82573562 -0.55222884 -0.11490864
vn -0.34441615 -0.10750374 0.93264166
vn 0.38048841 0.50917374 -0.77199137
vn 0.28175423 0.93790448 -0.20236041
vn 0.40996270 0.89967826 0.15003206
vn -0.66151111 0.71059123 -0.23971474
vn -0.66545891 0.70201475 0.25365277
vn -0.64373604 0.21686713 -0.73387503
vn -0.40240898 0.87162945 -0.27987337
vn -0.25562657 0.53997803 -0.80192193
vn 0.07330114 0.98258154 0.17076433
vn -0.16412059 0.91342108 0.37245988
vn -0.29047045 -0.92355565 -0.25034351
vn -0.47462619 -0.41163698 -0.77800063
vn 0.59621638 0.53858456 0.59535931
vn 0.36597474 0.32194006 0.87316498
vn 0.14382399 0.69974748 0.69976291
vn 0.51134067 -0.12892240 -0.84965271
vn 0.27541561 -0.61230252 -0.74110179
vn 0.81923650 -0.16263370 0.54991076
vn 0.90519926 -0.29467602 -0.30623576
vn 0.88300223 0.46040783 0.09127817
vn 0.17948662 -0.90684246 0.38134146
vn 0.23420791 -0.66175175 0.71220171
vn 0.13361865 -0.19168845 0.97231764
vn -0.60116229 -0.77533815 0.19353203
vn -0.98833901 -0.04946415 0.14401147
vn -0.35815981 0.42059107 0.83356145
vn -0.29268000 -0.55745058 0.77690879
vn 0.67956682 0.67373633 -0.29029001
vn -0.12112394 0.98010916 -0.15721016
vn 0.59077728 0.80044941 0.10130619
f 23//23 10//10 20//20
f 36//36 20//20 10//10
f 37//37 3//3 21//21
f 37//37 36//36 3//3
f 39//39 22//22 7//7
f 39//39 38//38 22//22
f 39//39 13//13 38//38
f 39//39 24//24 13//13
f 40//40 4//4 14//14
f 40//40 38//38 4//4
f 40//40 22//22 38//38
f 41//41 38//38 13//13
f 41//41 4//4 38//38
f 42//42 23//23 20//20
f 42//42 41//41 23//23
f 42//42 4//4 41//41
f 42//42 20//20 35//35
f 42//42 35//35 6//6
f 42//42 6//6 4//4
f 43//43 21//21 3//3
f 44//44 12//12 21//21
f 44//44 43//43 24//24
f 44//44 21//21 43//43
f 44//44 39//39 12//12
f 44//44 24//24 39//39
f 45//45 25//25 11//11
f 45//45 33//33 25//25
f 45//45 5//5 33//33
f 45//45 29//29 5//5
f 45//45 11//11 29//29
f 46//46 14//14 4//4
f 46//46 4//4 6//6
f 46//46 33//33 14//14
f 46//46 25//25 33//33
f 47//47 8//8 21//21
f 47//47 15//15 28//28
f 48//48 26//26 1//1
f 48//48 47//47 26//26
f 48//48 15//15 47//47
f 48//48 31//31 15//15
f 48//48 1//1 31//31
f 49//49 21//21 12//12
f 49//49 1//1 26//26
f 49//49 47//47 21//21
f 49//49 26//26 47//47
f 50//50 6//6 16//16
f 50//50 46//46 6//6
f 50//50 25//25 46//46
f 51//51 11//11 25//25
f 51//51 50//50 27//27
f 51//51 25//25 50//50
f 51//51 27//27 17//17
f 51//51 29//29 11//11
f 51//51 17//17 29//29
f 52//52 28//28 15//15
f 52//52 2//2 28//28
f 52//52 15//15 31//31
f 52//52 30//30 2//2
f 52//52 18//18 30//30
f 53//53 28//28 2//2
f 53//53 16//16 28//28
f 53//53 2//2 30//30
f 53//53 50//50 16//16
f 53//53 27//27 50//50
f 53//53 30//30 17//17
f 53//53 17//17 27//27
f 54//54 28//28 16//16
f 54//54 47//47 28//28
f 54//54 8//8 47//47
f 55//55 29//29 17//17
f 55//55 17//17 30//30
f 55//55 30//30 9//9
f 55//55 9//9 32//32
f 55//55 32//32 5//5
f 55//55 5//5 29//29
f 56//56 30//30 18//18
f 56//56 18//18 9//9
f 56//56 9//9 30//30
f 57//57 31//31 1//1
f 57//57 52//52 31//31
f 57//57 18//18 52//52
f 57//57 1//1 34//34
f 58//58 32//32 19//19
f 58//58 19//19 33//33
f 58//58 33//33 5//5
f 58//58 5//5 32//32
f 59//59 33//33 19//19
f 59//59 19//19 7//7
f 59//59 7//7 22//22
f 59//59 14//14 33//33
f 59//59 40//40 14//14
f 59//59 22//22 40//40
f 60//60 34//34 1//1
f 60//60 7//7 19//19
f 60//60 19//19 34//34
f 60//60 39//39 7//7
f 60//60 12//12 39//39
f 60//60 49//49 12//12
f 60//60 1//1 49//49
f 61//61 34//34 19//19
f 61//61 19//19 32//32
f 61//61 32//32 9//9
f 61//61 9//9 18//18
f 61//61 57//57 34//34
f 61//61 18//18 57//57
f 62//62 16//16 6//6
f 62//62 6//6 35//35
f 62//62 54//54 16//16
f 62//62 35//35 20//20
f 62//62 20//20 36//36
f 63//63 3//3 36//36
f 63//63 23//23 41//41
f 63//63 43//43 3//3
f 63//63 24//24 43//43
f 63//63 41//41 13//13
f 63//63 13//13 24//24
f 63//63 36//36 10//10
f 63//63 10//10 23//23
f 64//64 37//37 21//21
f 64//64 21//21 8//8
f 64//64 8//8 54//54
f 64//64 54//54 62//62
f 64//64 62//62 36//36
f 64//64 36//36 37//37

