# https://github.com/mikedh/trimesh
v 0.03070770 0.02148088 0.10781398
v 0.03313184 0.01975516 0.10535530
v 0.03002391 0.02310252 0.09824167
v 0.01292264 0.00914858 0.08587382
v 0.00978770 0.00030591 0.09347582
v 0.03040807 0.01421669 0.09402976
v 0.02743625 0.02395880 0.10467177
v 0.03184533 0.02387800 0.10410686
v 0.02717907 0.01091603 0.10655187
v 0.03240069 0.02068581 0.09740663
v 0.01457652 0.00010060 0.08804437
v 0.02748582 0.02399880 0.10166786
v 0.01093234 0.00814157 0.09441001
v 0.03250756 0.02200869 0.10587530
v 0.02997111 0.02393109 0.10595737
v 0.03185321 0.01931775 0.10697894
v 0.03094322 0.01441342 0.09812798
v 0.03237889 0.01676833 0.09714127
v 0.03141760 0.02384271 0.10021071
v 0.02997111 0.01834964 0.09415231
v 0.01001321 -0.00002895 0.08825177
v 0.01565524 0.00360719 0.08535380
v 0.02406606 0.00669541 0.10112689
v 0.02872000 0.02377058 0.09972167
v 0.01481969 0.00750307 0.09971183
v 0.01072046 0.00944283 0.08834996
v 0.03312043 0.02147590 0.10071537
v 0.02790326 0.02265550 0.10697452
v 0.03125937 0.02381012 0.10507867
v 0.03009142 0.02455381 0.10464163
v 0.02813620 0.01159175 0.10655187
v 0.03246581 0.02078098 0.10655187
v 0.03167750 0.01796001 0.09542884
v 0.03091179 0.01429118 0.09491064
v 0.03246307 0.01804900 0.10475009
v 0.03130011 0.02177436 0.09696888
v 0.02666441 0.00999064 0.09329317
v 0.02991142 0.01643621 0.09342939
v 0.02647306 0.00940797 0.10507867
v 0.01384125 0.00079339 0.09147203
v 0.02923991 0.02312051 0.09829282
v 0.03016585 0.02448547 0.10080963
v 0.01089699 0.00686476 0.09576916
v 0.02622739 0.01074103 0.10629515
v 0.02793374 0.02381211 0.10045949
v 0.01518447 0.01236674 0.09805567
v 0.03317912 0.02143993 0.10471117
v 0.03237616 0.02343813 0.10151881
v 0.03316233 0.01960486 0.09918592
v 0.02849393 0.02387827 0.10581504
v 0.03002918 0.02204503 0.10774615
v 0.03242492 0.02270154 0.10530507
v 0.02843054 0.02441586 0.10471469
v 0.03070770 0.02454038 0.10404727
v 0.03250971 0.01975516 0.10655187
v 0.03070770 0.01925154 0.10775795
v 0.03175220 0.02140948 0.10706825
v 0.03155374 0.01545696 0.09519325
v 0.03310016 0.01925018 0.10472701
v 0.03235789 0.01723459 0.10120799
v 0.02744663 0.01013001 0.10507867
v 0.03228743 0.01860670 0.10594154
v 0.03181259 0.02322475 0.09962959
v 0.03070770 0.02388096 0.09961248
vn 0.30760870 0.24569027 0.91924598
vn 0.94738573 -0.14824332 0.28369737
vn 0.07089541 0.78703820 -0.61281704
vn -0.29864253 0.39917491 -0.86687486
vn -0.64583277 -0.67046565 0.36520658
vn 0.72144046 -0.31361454 -0.61738932
vn -0.58666008 0.76673774 0.26065914
vn 0.65600603 0.73733083 0.16124310
vn 0.12029651 -0.48095014 0.86845594
vn 0.82296517 0.30395479 -0.47993730
vn 0.30384032 -0.88576519 -0.35085764
vn -0.44164795 0.88931382 -0.11860869
vn -0.89949387 0.39024763 0.19651353
vn 0.74970617 0.41266953 0.51734371
vn 0.17785716 0.78452902 0.59403791
vn 0.60850037 -0.21470021 0.76395753
vn 0.82943985 -0.55700647 0.04211099
vn 0.95103844 -0.26247971 -0.16318789
vn 0.49341969 0.82226202 -0.28358804
vn 0.34597666 0.45767354 -0.81904523
vn -0.63920080 -0.64082042 -0.42517235
vn 0.23641651 -0.29783062 -0.92488062
vn 0.45014179 -0.86098122 0.23682000
vn -0.24346194 0.87692937 -0.41439253
vn -0.57548682 -0.10634054 0.81086781
vn -0.81994762 0.47871662 -0.31387306
vn 0.95555282 0.26170582 -0.13575298
vn -0.44292539 0.43943310 0.78148298
vn 0.47862065 0.73989385 0.47273605
vn 0.11360963 0.96034977 0.25460003
vn 0.57720822 -0.47838023 0.66180286
vn 0.77569501 0.12993156 0.61758808
vn 0.79197495 0.15142771 -0.59147725
vn 0.81980287 -0.52864901 -0.22012151
vn 0.85381088 -0.47903570 0.20379345
vn 0.40074227 0.61821191 -0.67618020
vn 0.70811776 -0.63986877 -0.29855853
vn 0.52221894 0.14550857 -0.84030628
vn 0.27099331 -0.80945245 0.52091205
vn 0.26140922 -0.92957565 0.25991216
vn -0.13544502 0.80386544 -0.57918477
vn 0.07968485 0.97333617 -0.21509773
vn -0.87121353 0.13872586 0.47089503
vn -0.29287319 -0.34280475 0.89258624
vn -0.35006689 0.87845434 -0.32522476
vn -0.75488790 0.50784451 0.41501592
vn 0.96088519 0.22319265 0.16396551
vn 0.75853449 0.64362200 -0.10186341
vn 0.98589205 -0.02028418 -0.16614878
vn -0.25142200 0.79614480 0.55040025
vn 0.03371509 0.39284568 0.91898616
vn 0.73002216 0.56409869 0.38582421
vn -0.24324327 0.94656446 0.21177450
vn 0.30246546 0.94636304 0.11362940
vn 0.76526500 -0.15382229 0.62506655
vn 0.22883163 -0.12985545 0.96476611
vn 0.59794107 0.32157800 0.73420302
vn 0.88864291 -0.22958550 -0.39699404
vn 0.94539879 -0.29898563 0.12972557
vn 0.87483768 -0.47881483 0.07345328
vn 0.69365876 -0.68540657 0.22148444
vn 0.80514448 -0.42601821 0.41261466
vn 0.66605831 0.63327148 -0.39412378
vn 0.22294143 0.85731439 -0.46401417
f 21//21 11//11 5//5
f 22//22 21//21 4//4
f 22//22 11//11 21//21
f 26//26 4//4 21//21
f 26//26 21//21 5//5
f 26//26 5//5 13//13
f 26//26 7//7 12//12
f 30//30 15//15 29//29
f 34//34 18//18 17//17
f 36//36 33//33 20//20
f 36//36 10//10 33//33
f 36//36 20//20 4//4
f 36//36 4//4 3//3
f 37//37 22//22 6//6
f 37//37 11//11 22//22
f 37//37 6//6 34//34
f 37//37 34//34 23//23
f 37//37 23//23 11//11
f 38//38 6//6 22//22
f 38//38 20//20 33//33
f 38//38 22//22 4//4
f 38//38 4//4 20//20
f 39//39 5//5 23//23
f 39//39 31//31 9//9
f 40//40 23//23 5//5
f 40//40 5//5 11//11
f 40//40 11//11 23//23
f 41//41 3//3 4//4
f 41//41 4//4 24//24
f 42//42 41//41 24//24
f 43//43 13//13 5//5
f 43//43 5//5 25//25
f 44//44 25//25 5//5
f 44//44 28//28 25//25
f 44//44 39//39 9//9
f 44//44 5//5 39//39
f 45//45 24//24 4//4
f 45//45 4//4 26//26
f 45//45 26//26 12//12
f 45//45 42//42 24//24
f 45//45 12//12 42//42
f 46//46 26//26 13//13
f 46//46 7//7 26//26
f 46//46 28//28 7//7
f 46//46 13//13 43//43
f 46//46 43//43 25//25
f 46//46 25//25 28//28
f 47//47 32//32 2//2
f 47//47 14//14 32//32
f 48//48 47//47 27//27
f 48//48 27//27 10//10
f 49//49 10//10 27//27
f 49//49 33//33 10//10
f 49//49 18//18 33//33
f 49//49 47//47 2//2
f 49//49 27//27 47//47
f 50//50 28//28 15//15
f 50//50 7//7 28//28
f 51//51 1//1 15//15
f 51//51 15//15 28//28
f 51//51 28//28 44//44
f 51//51 44//44 9//9
f 52//52 8//8 29//29
f 52//52 14//14 47//47
f 52//52 48//48 8//8
f 52//52 47//47 48//48
f 52//52 29//29 15//15
f 52//52 15//15 1//1
f 53//53 12//12 7//7
f 53//53 7//7 50//50
f 53//53 50//50 15//15
f 53//53 15//15 30//30
f 53//53 42//42 12//12
f 53//53 30//30 42//42
f 54//54 30//30 29//29
f 54//54 29//29 8//8
f 54//54 42//42 30//30
f 54//54 19//19 42//42
f 54//54 48//48 19//19
f 54//54 8//8 48//48
f 55//55 16//16 31//31
f 55//55 2//2 32//32
f 56//56 31//31 16//16
f 56//56 9//9 31//31
f 56//56 51//51 9//9
f 56//56 1//1 51//51
f 56//56 55//55 1//1
f 56//56 16//16 55//55
f 57//57 32//32 14//14
f 57//57 55//55 32//32
f 57//57 1//1 55//55
f 57//57 52//52 1//1
f 57//57 14//14 52//52
f 58//58 33//33 18//18
f 58//58 18//18 34//34
f 58//58 34//34 6//6
f 58//58 38//38 33//33
f 58//58 6//6 38//38
f 59//59 2//2 35//35
f 59//59 49//49 2//2
f 59//59 18//18 49//49
f 60//60 35//35 17//17
f 60//60 17//17 18//18
f 60//60 59//59 35//35
f 60//60 18//18 59//59
f 61//61 35//35 31//31
f 61//61 17//17 35//35
f 61//61 31//31 39//39
f 61//61 34//34 17//17
f 61//61 39//39 23//23
f 61//61 23//23 34//34
f 62//62 35//35 2//2
f 62//62 31//31 35//35
f 62//62 55//55 31//31
f 62//62 2//2 55//55
f 63//63 10//10 36//36
f 63//63 48//48 10//10
f 63//63 19//19 48//48
f 64//64 36//36 3//3
f 64//64 63//63 36//36
f 64//64 19//19 63//63
f 64//64 42//42 19//19
f 64//64 3//3 41//41
f 64//64 41//41 42//42

