# https://github.com/mikedh/trimesh
v 0.02750820 0.00493384 0.02841562
v 0.02750820 -0.02484014 0.02841562
v 0.02750820 0.00493384 0.00917146
v 0.00398823 -0.00098439 0.00917146
v 0.00862715 -0.00741147 0.02841562
v 0.02743891 -0.02668526 0.00917146
v 0.01152086 0.00835712 0.02851175
v 0.02771645 -0.02868961 0.01861833
v 0.01351904 0.00798946 0.02871367
v 0.01324091 0.00489142 0.00917146
v 0.00154152 -0.00387652 0.01151545
v 0.00557056 -0.02247570 0.01274997
v 0.01650495 0.00727633 0.02875345
v 0.00206764 -0.00291618 0.00917146
v 0.01812228 -0.02562202 0.02835903
v 0.00862715 -0.01903058 0.02841562
v 0.01974378 -0.02838863 0.01109700
v 0.00214876 -0.00299594 0.01202976
v 0.00280342 -0.01947157 0.00917146
v 0.02760580 -0.02898139 0.01913001
v 0.00671134 -0.02327341 0.01216818
v 0.00153228 -0.00496019 0.00917146
v 0.00292080 -0.02004793 0.01202472
v 0.01900932 -0.02769448 0.00917146
v 0.01974591 -0.02838307 0.01304894
v 0.02233513 -0.02834184 0.01124148
v 0.00490637 -0.02204235 0.00917146
v 0.00150565 -0.00393011 0.00917146
v 0.00153327 -0.00497589 0.01148673
v 0.00355998 -0.02054254 0.01253250
v 0.02369919 -0.02760423 0.00917146
v 0.00546272 -0.02254064 0.00974470
v 0.00281297 -0.01989960 0.00985134
v 0.00658113 -0.02322144 0.01052680
v 0.00597355 -0.02264378 0.00917146
v 0.00361241 -0.02054159 0.00917146
vn 0.63661833 0.50870862 0.57959696
vn 0.61103794 -0.41434067 0.67450311
vn 0.59193860 0.54081844 -0.59759862
vn -0.45440093 0.52254899 -0.72143077
vn -0.59239734 0.04522658 0.80437550
vn 0.63009837 -0.42943816 -0.64696129
vn -0.39650127 0.72947452 0.55736314
vn 0.95563726 -0.28962990 -0.05359063
vn 0.09662689 0.69786956 0.70967692
vn -0.19042364 0.66730607 -0.72002878
vn -0.95452973 0.24479062 0.17014858
vn -0.61009634 -0.77415584 0.16871631
vn 0.11277608 0.47958547 0.87021798
vn -0.59475548 0.43101601 -0.67859496
vn -0.20236111 -0.65869420 0.72468747
vn -0.57929726 -0.33549038 0.74287340
vn -0.16121723 -0.97445695 -0.15634145
vn -0.82911019 0.55325899 0.08050329
vn -0.68329359 -0.18954371 -0.70511209
vn 0.54135670 -0.83109870 0.12731014
vn -0.45878385 -0.88402963 0.08949293
vn -0.71261294 -0.03965222 -0.70043593
vn -0.89566221 -0.41404762 0.16233848
vn -0.14517330 -0.63597044 -0.75793556
vn -0.23788597 -0.96955917 0.05801109
vn 0.08289307 -0.97496125 -0.20634750
vn -0.47620114 -0.54283126 -0.69178515
vn -0.73719717 0.18079324 -0.65104080
vn -0.98166665 -0.03443354 0.18746978
vn -0.70018947 -0.67003503 0.24655175
vn 0.10434827 -0.62807552 -0.77112423
vn -0.55426240 -0.82654846 -0.09803485
vn -0.89948656 -0.42545702 -0.09955027
vn -0.42500293 -0.90084858 -0.08856831
vn -0.26614656 -0.57950721 -0.77028398
vn -0.46499542 -0.39089232 -0.79434404
f 6//6 4//4 3//3
f 8//8 1//1 2//2
f 8//8 3//3 1//1
f 8//8 6//6 3//3
f 9//9 1//1 3//3
f 9//9 3//3 7//7
f 9//9 7//7 5//5
f 10//10 7//7 3//3
f 10//10 3//3 4//4
f 10//10 4//4 7//7
f 11//11 5//5 7//7
f 13//13 2//2 1//1
f 13//13 1//1 9//9
f 14//14 7//7 4//4
f 14//14 4//4 6//6
f 16//16 5//5 11//11
f 16//16 12//12 15//15
f 16//16 9//9 5//5
f 16//16 13//13 9//9
f 16//16 15//15 2//2
f 16//16 2//2 13//13
f 18//18 14//14 11//11
f 18//18 11//11 7//7
f 18//18 7//7 14//14
f 19//19 14//14 6//6
f 20//20 8//8 2//2
f 20//20 2//2 15//15
f 20//20 6//6 8//8
f 21//21 15//15 12//12
f 22//22 14//14 19//19
f 24//24 19//19 6//6
f 25//25 20//20 15//15
f 25//25 17//17 20//20
f 25//25 21//21 17//17
f 25//25 15//15 21//21
f 26//26 20//20 17//17
f 27//27 19//19 24//24
f 28//28 11//11 14//14
f 28//28 14//14 22//22
f 29//29 23//23 16//16
f 29//29 16//16 11//11
f 29//29 28//28 22//22
f 29//29 11//11 28//28
f 30//30 23//23 12//12
f 30//30 12//12 16//16
f 30//30 16//16 23//23
f 31//31 6//6 20//20
f 31//31 20//20 26//26
f 31//31 24//24 6//6
f 31//31 26//26 17//17
f 31//31 17//17 24//24
f 32//32 21//21 12//12
f 32//32 12//12 23//23
f 32//32 23//23 27//27
f 33//33 27//27 23//23
f 33//33 23//23 29//29
f 33//33 29//29 22//22
f 33//33 22//22 19//19
f 34//34 17//17 21//21
f 34//34 21//21 32//32
f 34//34 24//24 17//17
f 35//35 32//32 27//27
f 35//35 27//27 24//24
f 35//35 34//34 32//32
f 35//35 24//24 34//34
f 36//36 33//33 19//19
f 36//36 19//19 27//27
f 36//36 27//27 33//33

