# https://github.com/mikedh/trimesh
v 0.01235922 0.03794108 0.10670972
v 0.01609073 0.03490668 0.10220882
v 0.00694567 0.03902306 0.09159073
v -0.00013172 0.02079728 0.08490810
v 0.00281870 0.02219612 0.09811614
v 0.01480796 0.03729394 0.09438835
v 0.01292522 0.03447015 0.10620001
v 0.00607765 0.02122682 0.09036847
v -0.00030725 0.03308461 0.10219110
v 0.00808660 0.03528307 0.08896661
v 0.01441119 0.04037917 0.10233999
v 0.00604208 0.02230007 0.09555620
v 0.01533883 0.03779790 0.10437721
v -0.00175383 0.02086156 0.09028590
v 0.01539676 0.03380003 0.09777243
v 0.00280594 0.02076208 0.08504009
v 0.00181351 0.03278777 0.08867607
v 0.00632757 0.03578532 0.10688796
v 0.01142991 0.03847126 0.09167851
v 0.01629475 0.03729291 0.09765187
v 0.01431161 0.03401308 0.10488115
v 0.00669014 0.02227806 0.09436475
v 0.01358394 0.03514701 0.10612594
v 0.01431161 0.03916169 0.10488115
v -0.00047123 0.02179001 0.09771844
v 0.01415781 0.03185671 0.09955813
v 0.01402545 0.03431213 0.09374466
v 0.00386885 0.03015529 0.08677378
v -0.00129587 0.02066833 0.08616879
v 0.00452512 0.03762681 0.09125414
v 0.00360380 0.03411877 0.08823815
v 0.01235757 0.03515522 0.10669604
v 0.00852883 0.03966742 0.10489934
v 0.00822441 0.03718318 0.08969430
v 0.01069617 0.03666631 0.09044974
v 0.01431161 0.03985903 0.09578322
v 0.01617614 0.03561605 0.09840370
v 0.01621291 0.03725851 0.10298348
v 0.00491552 0.02236471 0.09667645
v 0.01356494 0.03175973 0.10196488
v 0.01359743 0.03795878 0.10612182
v 0.01470909 0.03431213 0.10488115
v -0.00187257 0.02151182 0.09500080
v 0.00210782 0.03371514 0.10462510
v 0.01136084 0.03401223 0.10621289
v 0.01559280 0.03392535 0.10221883
v 0.01408431 0.03179630 0.09837442
v 0.00667247 0.02204133 0.09182537
v 0.01468688 0.03431213 0.09497977
v 0.00471837 0.02097835 0.08707670
v 0.00275815 0.02372994 0.08538018
v 0.00043472 0.02786683 0.08728978
v -0.00035200 0.03334952 0.10054689
v 0.00536245 0.03434428 0.08822007
v 0.00260088 0.03008910 0.08673383
v 0.00572217 0.03755040 0.09016444
v 0.00339465 0.03578385 0.08978096
v 0.00772229 0.03536384 0.10685665
v 0.00783584 0.03777825 0.10683126
v 0.01059695 0.04119298 0.09688783
v 0.01311783 0.04039429 0.10364910
v 0.01025223 0.03896629 0.09162354
v 0.01202758 0.03788617 0.09179671
v 0.00948992 0.03780217 0.09036110
vn 0.18986564 0.38182867 0.90452081
vn 0.94634270 -0.27589908 0.16827119
vn -0.25139324 0.88631703 -0.38890045
vn -0.35746552 -0.48043576 -0.80087445
vn 0.14297595 -0.82062691 0.55328957
vn 0.81339761 0.16310617 -0.55837326
vn 0.34463646 -0.51857696 0.78249834
vn 0.53841879 -0.83985935 -0.06885836
vn -0.85755548 0.26736390 0.43944869
vn 0.31100447 0.21959165 -0.92469223
vn 0.55127561 0.82387666 0.13161479
vn 0.40416905 -0.85280707 0.33070754
vn 0.81612986 0.22300613 0.53310442
vn -0.75780054 -0.65242377 -0.00903121
vn 0.88599425 -0.43446831 -0.16202309
vn 0.29156025 -0.63446498 -0.71585390
vn -0.75770704 0.43820208 -0.48358967
vn -0.34682696 0.01017380 0.93787395
vn 0.44912846 0.58003328 -0.67959181
vn 0.96203259 0.19337209 -0.19261499
vn 0.46773171 -0.68269500 0.56138631
vn 0.57931894 -0.79510659 0.17942985
vn 0.56096825 -0.17109046 0.80996462
vn 0.54046440 0.61505839 0.57410924
vn -0.41981528 -0.72276092 0.54897339
vn 0.79869467 -0.60106684 0.02838094
vn 0.79002718 -0.18034978 -0.58594454
vn 0.14719855 0.22592753 -0.96295864
vn -0.74509576 -0.56982732 -0.34659649
vn -0.58780347 0.77000083 -0.24816486
vn -0.30545060 0.48519561 -0.81931993
vn 0.21066547 -0.21431760 0.95377567
vn -0.31774962 0.86149460 0.39605837
vn 0.11424003 0.52108809 -0.84582292
vn 0.54316644 0.15251705 -0.82565657
vn 0.59578676 0.73258069 -0.32918637
vn 0.96674185 -0.22070143 -0.12923267
vn 0.94901197 0.17774312 0.26035296
vn 0.39476839 -0.79419962 0.46195766
vn 0.63552365 -0.70248339 0.32035415
vn 0.52934882 0.25747009 0.80839284
vn 0.71216215 -0.41184077 0.56851760
vn -0.78430972 -0.59638057 0.17084637
vn -0.58499105 0.08942524 0.80609466
vn 0.08250824 -0.53984762 0.83770934
vn 0.81680218 -0.54764630 0.18143246
vn 0.81957349 -0.57134277 -0.04320569
vn 0.77169464 -0.63459873 0.04209304
vn 0.87983834 -0.28519760 -0.38019315
vn 0.55321163 -0.75198962 -0.35842503
vn 0.16503382 0.15551274 -0.97395053
vn -0.79661064 0.31859757 -0.51371887
vn -0.86851178 0.49537901 0.01693895
vn 0.03458324 0.39040809 -0.91999213
vn -0.27512447 0.32409642 -0.90513426
vn -0.23815850 0.68761827 -0.68590207
vn -0.63658642 0.62053865 -0.45791868
vn -0.02969287 -0.27988996 0.95957279
vn -0.27730677 0.47321212 0.83616460
vn -0.09411296 0.98913779 -0.11291228
vn 0.13055666 0.91853984 0.37314811
vn 0.17223502 0.79715789 -0.57868333
vn 0.63536284 0.29422655 -0.71396415
vn 0.22230983 0.54366125 -0.80932736
f 12//12 5//5 8//8
f 16//16 8//8 14//14
f 21//21 7//7 5//5
f 22//22 12//12 8//8
f 25//25 14//14 8//8
f 25//25 8//8 5//5
f 29//29 16//16 14//14
f 29//29 4//4 16//16
f 32//32 23//23 1//1
f 32//32 7//7 23//23
f 35//35 6//6 27//27
f 35//35 27//27 16//16
f 35//35 16//16 10//10
f 36//36 20//20 6//6
f 36//36 11//11 20//20
f 37//37 20//20 2//2
f 37//37 2//2 15//15
f 38//38 2//2 20//20
f 38//38 20//20 11//11
f 38//38 24//24 13//13
f 38//38 11//11 24//24
f 39//39 21//21 5//5
f 39//39 5//5 12//12
f 39//39 12//12 21//21
f 40//40 12//12 22//22
f 41//41 23//23 13//13
f 41//41 1//1 23//23
f 41//41 24//24 1//1
f 41//41 13//13 24//24
f 42//42 13//13 23//23
f 42//42 38//38 13//13
f 42//42 2//2 38//38
f 42//42 21//21 12//12
f 42//42 12//12 40//40
f 42//42 23//23 7//7
f 42//42 7//7 21//21
f 43//43 25//25 9//9
f 43//43 14//14 25//25
f 44//44 25//25 18//18
f 44//44 9//9 25//25
f 45//45 25//25 5//5
f 45//45 5//5 7//7
f 45//45 7//7 32//32
f 46//46 26//26 15//15
f 46//46 15//15 2//2
f 46//46 42//42 40//40
f 46//46 2//2 42//42
f 46//46 40//40 22//22
f 46//46 22//22 26//26
f 47//47 26//26 8//8
f 47//47 8//8 15//15
f 47//47 15//15 26//26
f 48//48 26//26 22//22
f 48//48 22//22 8//8
f 48//48 8//8 26//26
f 49//49 15//15 8//8
f 49//49 37//37 15//15
f 49//49 20//20 37//37
f 49//49 27//27 6//6
f 49//49 6//6 20//20
f 50//50 8//8 16//16
f 50//50 16//16 27//27
f 50//50 49//49 8//8
f 50//50 27//27 49//49
f 51//51 16//16 4//4
f 51//51 28//28 10//10
f 51//51 10//10 16//16
f 52//52 4//4 29//29
f 53//53 29//29 14//14
f 53//53 52//52 29//29
f 53//53 17//17 52//52
f 53//53 33//33 30//30
f 53//53 9//9 33//33
f 53//53 43//43 9//9
f 53//53 14//14 43//43
f 54//54 10//10 28//28
f 54//54 34//34 10//10
f 54//54 31//31 34//34
f 55//55 4//4 52//52
f 55//55 52//52 17//17
f 55//55 17//17 31//31
f 55//55 51//51 4//4
f 55//55 28//28 51//51
f 55//55 54//54 28//28
f 55//55 31//31 54//54
f 56//56 30//30 3//3
f 56//56 34//34 31//31
f 56//56 3//3 34//34
f 57//57 31//31 17//17
f 57//57 56//56 31//31
f 57//57 30//30 56//56
f 57//57 53//53 30//30
f 57//57 17//17 53//53
f 58//58 32//32 1//1
f 58//58 45//45 32//32
f 58//58 18//18 25//25
f 58//58 25//25 45//45
f 59//59 1//1 33//33
f 59//59 58//58 1//1
f 59//59 18//18 58//58
f 59//59 44//44 18//18
f 59//59 33//33 9//9
f 59//59 9//9 44//44
f 60//60 3//3 30//30
f 60//60 30//30 33//33
f 60//60 11//11 36//36
f 61//61 24//24 11//11
f 61//61 60//60 33//33
f 61//61 11//11 60//60
f 61//61 33//33 1//1
f 61//61 1//1 24//24
f 62//62 3//3 60//60
f 62//62 60//60 36//36
f 62//62 36//36 19//19
f 63//63 35//35 19//19
f 63//63 6//6 35//35
f 63//63 36//36 6//6
f 63//63 19//19 36//36
f 64//64 19//19 35//35
f 64//64 62//62 19//19
f 64//64 34//34 3//3
f 64//64 3//3 62//62
f 64//64 35//35 10//10
f 64//64 10//10 34//34

