# https://github.com/mikedh/trimesh
v 0.00970046 0.00601077 0.06708045
v 0.02798933 -0.01701291 0.06106346
v 0.02725129 0.00791247 0.05922876
v 0.00954690 0.01026480 0.03868401
v 0.00881587 -0.01730185 0.03834847
v 0.01156503 0.01239300 0.05045827
v 0.02782564 -0.00286590 0.06377806
v 0.00842436 -0.01670164 0.06637054
v 0.02769693 -0.01730185 0.03834847
v 0.01901167 0.01023071 0.05619814
v 0.02769693 0.00666257 0.03834847
v 0.00968487 0.01238194 0.04976375
v 0.02777249 0.00273975 0.06233401
v 0.02414492 -0.01930843 0.05705669
v 0.00881587 -0.00568274 0.03834847
v 0.01582491 -0.00762570 0.06630007
v 0.01596413 0.01087129 0.05465537
v 0.01816178 0.01161833 0.04917006
v 0.01302633 0.01242012 0.04655282
v 0.01036159 0.01234660 0.05039426
v 0.00881587 0.00375779 0.05722953
v 0.02774478 0.00357691 0.06194652
v 0.02778504 0.00065565 0.06307641
v 0.02795958 -0.01264761 0.06299691
v 0.00849636 -0.01751403 0.06432317
v 0.00850761 -0.01759995 0.05947763
v 0.01901000 0.01100811 0.05277619
v 0.01812170 0.01161245 0.04651200
v 0.00974638 0.01227101 0.04586062
v 0.01295989 0.01236567 0.04909156
v 0.00971110 0.01168404 0.05171215
v 0.02790036 -0.00919779 0.06383815
v 0.01897376 0.01024305 0.04156837
v 0.01033355 0.01090096 0.04063572
v 0.01367358 -0.01248849 0.06620909
v 0.01890961 0.01086380 0.04370955
v 0.01916708 0.00899813 0.03854744
v 0.01236422 0.01230200 0.04582838
v 0.01378686 0.01084715 0.04090493
v 0.01452851 0.01161678 0.04363365
v 0.01292890 0.01008207 0.03891053
v 0.01813910 0.01080395 0.04295307
vn -0.49296755 0.46912173 0.73273993
vn 0.70777675 -0.56056044 0.42991170
vn 0.67174467 0.65720197 0.34182549
vn -0.57070879 0.50893797 -0.64441727
vn -0.58234550 -0.55371672 -0.59520712
vn 0.01503086 0.98264573 0.18488223
vn 0.75994627 0.06185428 0.64703610
vn -0.56234755 -0.47077045 0.67980910
vn 0.58137729 -0.54667439 -0.60261726
vn 0.10722178 0.94214838 0.31758451
vn 0.65271270 0.43351665 -0.62131268
vn -0.66543194 0.74320175 0.06965261
vn 0.79620103 0.24013482 0.55533701
vn 0.19034700 -0.97479906 0.11633923
vn -0.70567557 0.01901121 -0.70828001
vn 0.14115376 -0.03403303 0.98940253
vn 0.02152014 0.94393201 0.32943778
vn 0.25026435 0.96714998 0.04459457
vn 0.07292041 0.99322586 -0.09047105
vn -0.12446355 0.96019047 0.25008616
vn -0.99654692 0.07756662 0.02962527
vn 0.78862170 0.32806723 0.52004587
vn 0.77447806 0.16864243 0.60970769
vn 0.76721092 -0.19527767 0.61094520
vn -0.63491777 -0.75170629 0.17837343
vn -0.74209482 -0.67026243 -0.00659881
vn 0.19632359 0.96793030 0.15674179
vn 0.27122394 0.95841929 -0.08871324
vn -0.62630233 0.77111037 -0.11460452
vn 0.10327562 0.99280488 0.06060204
vn -0.42477702 0.84952043 0.31285703
vn 0.74596187 -0.06419863 0.66288719
vn 0.21336575 0.92611483 -0.31110509
vn -0.03261683 0.95775048 -0.28574491
vn 0.14856611 -0.13341366 0.97986168
vn 0.26055164 0.94304462 -0.20683249
vn 0.11693417 0.58934248 -0.79937591
vn 0.01752165 0.97701877 -0.21243191
vn 0.09654515 0.93626747 -0.33776065
vn 0.10992766 0.96112001 -0.25330660
vn 0.09363152 0.83538133 -0.54163748
vn 0.17094719 0.94814171 -0.26796334
f 10//10 1//1 3//3
f 11//11 2//2 9//9
f 11//11 9//9 5//5
f 14//14 2//2 8//8
f 14//14 9//9 2//2
f 14//14 5//5 9//9
f 15//15 11//11 5//5
f 15//15 4//4 11//11
f 16//16 7//7 1//1
f 16//16 1//1 8//8
f 17//17 10//10 6//6
f 17//17 6//6 1//1
f 17//17 1//1 10//10
f 19//19 12//12 6//6
f 20//20 1//1 6//6
f 20//20 6//6 12//12
f 21//21 8//8 1//1
f 21//21 1//1 12//12
f 21//21 15//15 8//8
f 21//21 12//12 4//4
f 21//21 4//4 15//15
f 22//22 3//3 1//1
f 22//22 1//1 13//13
f 22//22 13//13 11//11
f 22//22 11//11 3//3
f 23//23 13//13 1//1
f 23//23 1//1 7//7
f 23//23 7//7 13//13
f 24//24 13//13 7//7
f 24//24 2//2 11//11
f 24//24 11//11 13//13
f 24//24 8//8 2//2
f 25//25 14//14 8//8
f 26//26 15//15 5//5
f 26//26 8//8 15//15
f 26//26 25//25 8//8
f 26//26 5//5 14//14
f 26//26 14//14 25//25
f 27//27 10//10 3//3
f 27//27 3//3 18//18
f 27//27 18//18 6//6
f 27//27 6//6 10//10
f 28//28 18//18 3//3
f 28//28 3//3 11//11
f 28//28 19//19 18//18
f 29//29 4//4 12//12
f 29//29 12//12 19//19
f 30//30 19//19 6//6
f 30//30 6//6 18//18
f 30//30 18//18 19//19
f 31//31 20//20 12//12
f 31//31 12//12 1//1
f 31//31 1//1 20//20
f 32//32 24//24 7//7
f 32//32 7//7 16//16
f 32//32 8//8 24//24
f 34//34 4//4 29//29
f 35//35 32//32 16//16
f 35//35 16//16 8//8
f 35//35 8//8 32//32
f 36//36 28//28 11//11
f 36//36 11//11 33//33
f 37//37 33//33 11//11
f 37//37 11//11 4//4
f 38//38 34//34 29//29
f 38//38 29//29 19//19
f 39//39 4//4 34//34
f 39//39 33//33 37//37
f 40//40 19//19 28//28
f 40//40 28//28 36//36
f 40//40 33//33 39//39
f 40//40 38//38 19//19
f 40//40 39//39 34//34
f 40//40 34//34 38//38
f 41//41 39//39 37//37
f 41//41 37//37 4//4
f 41//41 4//4 39//39
f 42//42 40//40 36//36
f 42//42 36//36 33//33
f 42//42 33//33 40//40

