# https://github.com/mikedh/trimesh
v 0.02667957 -0.02387763 0.05806291
v 0.02706674 -0.02984082 0.05260740
v 0.02663810 -0.02972816 0.02618455
v 0.01041934 -0.02355822 0.02615711
v -0.00662185 -0.02530534 0.05259553
v 0.02663810 -0.02391860 0.03562508
v 0.02700196 -0.02490130 0.05750381
v -0.00747098 -0.02059908 0.05225341
v 0.02403197 -0.03617180 0.04058897
v 0.01792377 -0.02391860 0.02618455
v 0.02692663 -0.03417319 0.02664257
v -0.00658545 -0.02074117 0.04592184
v 0.00775704 -0.02028763 0.04579181
v 0.02476857 -0.03475735 0.04443442
v 0.01203252 -0.02534973 0.02602732
v 0.02483504 -0.03606094 0.03221499
v 0.00775704 -0.02028763 0.05450614
v 0.02539079 -0.02357398 0.05756422
v 0.02697835 -0.03409624 0.04614373
v 0.02404957 -0.03540545 0.04309680
v 0.01077286 -0.02413410 0.02608463
v 0.01829644 -0.03040594 0.02617187
v 0.00797392 -0.02596377 0.03190264
v 0.02409355 -0.03607178 0.03425370
v 0.02692115 -0.03554758 0.02881124
v 0.02665793 -0.03623443 0.04138575
v 0.00799375 -0.02419936 0.02962609
v 0.00788988 -0.02884793 0.03806974
v -0.00556075 -0.02179616 0.04548510
v 0.02679611 -0.03628557 0.03071306
v 0.02500324 -0.03539932 0.03016142
v 0.02519335 -0.03616982 0.04130783
v 0.02656547 -0.03566492 0.04319534
v 0.00788517 -0.02808984 0.03595619
v 0.02630321 -0.03535921 0.02893960
v 0.02611899 -0.03613007 0.03074470
vn 0.49711971 0.37643041 0.78177499
vn 0.65490308 -0.58531627 0.47802387
vn 0.66262236 0.22596246 -0.71405362
vn -0.43622278 0.47726514 -0.76284184
vn -0.68348731 -0.55513160 0.47399790
vn 0.72678617 0.67431704 -0.13068434
vn 0.70359201 -0.31695110 0.63600337
vn -0.71655014 0.53332595 0.44957682
vn -0.19119640 -0.97638063 0.10062207
vn 0.15898720 0.66960498 -0.72550138
vn 0.54583799 -0.49455082 -0.67637296
vn -0.78675470 0.44922532 -0.42333634
vn 0.06105248 0.99577353 -0.06861243
vn -0.12261453 -0.86369750 0.48886839
vn -0.33823242 -0.37463982 -0.86327506
vn -0.31991045 -0.92953800 -0.18334780
vn -0.03023865 0.79075996 0.61137902
vn 0.17929264 0.97832304 0.10362519
vn 0.65004806 -0.65812088 0.37988740
vn -0.15584729 -0.91028901 0.38351734
vn -0.40049066 -0.26470309 -0.87723401
vn -0.29328633 -0.53109297 -0.79493609
vn -0.59726045 -0.67116788 -0.43910549
vn -0.26503970 -0.96150974 -0.07247746
vn 0.55737279 -0.73754960 -0.38125602
vn 0.58890771 -0.79847825 0.12498075
vn -0.68312347 -0.49867691 -0.53353881
vn -0.46783795 -0.84140460 -0.27049204
vn -0.68780204 -0.56323799 -0.45792065
vn 0.53387949 -0.82884605 -0.16729290
vn -0.39613389 -0.84495544 -0.35934420
vn -0.09369433 -0.97283485 0.21169252
vn 0.32208350 -0.87455752 0.36250706
vn -0.52466697 -0.77744832 -0.34684101
vn -0.34917037 -0.83300594 -0.42916333
vn -0.29334047 -0.91260407 -0.28478971
f 7//7 5//5 2//2
f 7//7 1//1 5//5
f 7//7 6//6 1//1
f 8//8 5//5 1//1
f 10//10 6//6 3//3
f 11//11 3//3 6//6
f 11//11 7//7 2//2
f 11//11 6//6 7//7
f 12//12 5//5 8//8
f 13//13 12//12 8//8
f 13//13 6//6 10//10
f 13//13 10//10 4//4
f 13//13 4//4 12//12
f 15//15 10//10 3//3
f 17//17 13//13 8//8
f 17//17 8//8 1//1
f 18//18 1//1 6//6
f 18//18 6//6 13//13
f 18//18 17//17 1//1
f 18//18 13//13 17//17
f 19//19 2//2 5//5
f 19//19 5//5 14//14
f 20//20 14//14 5//5
f 20//20 5//5 9//9
f 20//20 19//19 14//14
f 21//21 4//4 10//10
f 21//21 10//10 15//15
f 22//22 15//15 3//3
f 22//22 3//3 11//11
f 23//23 15//15 22//22
f 24//24 9//9 5//5
f 24//24 5//5 16//16
f 25//25 11//11 2//2
f 25//25 2//2 19//19
f 25//25 22//22 11//11
f 27//27 12//12 4//4
f 27//27 4//4 21//21
f 27//27 21//21 15//15
f 27//27 15//15 23//23
f 28//28 22//22 16//16
f 28//28 16//16 5//5
f 29//29 23//23 5//5
f 29//29 5//5 12//12
f 29//29 27//27 23//23
f 29//29 12//12 27//27
f 30//30 24//24 16//16
f 30//30 9//9 24//24
f 30//30 26//26 9//9
f 30//30 25//25 19//19
f 30//30 19//19 26//26
f 31//31 16//16 22//22
f 32//32 20//20 9//9
f 32//32 9//9 26//26
f 33//33 26//26 19//19
f 33//33 19//19 20//20
f 33//33 32//32 26//26
f 33//33 20//20 32//32
f 34//34 23//23 22//22
f 34//34 22//22 28//28
f 34//34 28//28 5//5
f 34//34 5//5 23//23
f 35//35 31//31 22//22
f 35//35 22//22 25//25
f 36//36 30//30 16//16
f 36//36 16//16 31//31
f 36//36 25//25 30//30
f 36//36 35//35 25//25
f 36//36 31//31 35//35

