# https://github.com/mikedh/trimesh
v 0.00363229 0.01610337 0.09129058
v 0.02447474 0.00827232 0.06900908
v 0.02445106 0.01484742 0.06421659
v -0.00792537 0.00795114 0.06460662
v 0.00691419 0.00808199 0.08871001
v 0.02442689 0.00845320 0.06429209
v 0.00844850 0.01431007 0.06408128
v 0.00640634 0.01612224 0.08857398
v -0.00569836 0.00810095 0.08293496
v 0.02464662 0.01366860 0.06575398
v -0.00162012 0.01515237 0.08431513
v 0.00645115 0.01591771 0.08399479
v 0.00716029 0.00835896 0.08891399
v -0.00110923 0.01191078 0.08958295
v -0.00481728 0.00802746 0.08409178
v 0.02460983 0.01429747 0.06510213
v 0.02451272 0.00880835 0.06872450
v -0.00285517 0.01114972 0.06667282
v -0.00868430 0.00808433 0.07219839
v -0.00172938 0.01556180 0.08866731
v 0.00052410 0.01393454 0.09100146
v -0.00017134 0.01257829 0.09027291
v -0.00101368 0.01366506 0.09033572
v -0.00180104 0.00901338 0.08749875
v -0.00096283 0.01458668 0.07939620
v -0.00420981 0.00974221 0.06484858
v -0.00764304 0.00899052 0.06673594
v -0.00640985 0.00809735 0.08090402
v -0.00032804 0.01584000 0.09138495
v 0.00230099 0.01399851 0.09099070
v -0.00175028 0.01163493 0.08899762
v -0.00032075 0.01452613 0.09104553
v -0.00069723 0.01049466 0.08884024
v -0.00424968 0.01043675 0.06613749
v -0.00642270 0.00964177 0.06665696
v -0.00866258 0.00805311 0.06590985
v -0.00083807 0.01557267 0.09069130
v -0.00354653 0.01038407 0.06552499
v -0.00764304 0.00827792 0.06483773
v -0.00490576 0.01046545 0.06726233
v -0.00837964 0.00834418 0.06607057
vn 0.22886197 0.62312885 0.74788544
vn 0.74399171 -0.58312987 0.32624513
vn 0.57038644 0.61974899 -0.53904592
vn -0.58538158 -0.32573563 -0.74244508
vn 0.08201274 -0.86059967 0.50263517
vn 0.56894323 -0.57368656 -0.58922605
vn -0.10254601 0.66249804 -0.74201123
vn 0.48098041 0.75658228 0.44299109
vn -0.77313420 -0.54294964 0.32782495
vn 0.92704400 0.25817311 0.27191187
vn -0.35036214 0.93084368 -0.10380949
vn -0.04294172 0.99692805 -0.06550164
vn 0.44026970 -0.39999940 0.80384269
vn -0.41848175 -0.41062973 0.81009644
vn -0.50354312 -0.75381932 0.42213832
vn 0.89994454 0.40413182 0.16363769
vn 0.94230849 0.12868931 0.30902067
vn -0.33368686 0.90646376 -0.25879823
vn -0.92851181 -0.36843823 0.04603349
vn -0.64256165 0.74640493 0.17318836
vn -0.08196548 -0.31693808 0.94489783
vn -0.22714242 -0.43680673 0.87040577
vn -0.66599523 -0.18707293 0.72211777
vn -0.37269366 -0.67124897 0.64072167
vn -0.31507675 0.93587401 -0.15769109
vn -0.31776545 0.76395437 -0.56160381
vn -0.53727343 0.82565089 -0.17215652
vn -0.81220090 -0.53681123 0.22839310
vn -0.37190006 0.56458341 0.73684186
vn 0.05985099 -0.24653664 0.96728359
vn -0.67773579 -0.26241256 0.68688707
vn -0.34760158 -0.26995375 0.89794104
vn -0.22075252 -0.53957089 0.81248482
vn -0.35889086 0.86543237 -0.34960572
vn -0.43276074 0.86507901 -0.25368572
vn -0.92958980 -0.25337025 -0.26770564
vn -0.83519284 0.27701227 0.47509695
vn -0.32813001 0.82805168 -0.45459995
vn -0.41737123 0.77214721 -0.47915544
vn -0.38947525 0.89813256 -0.20412482
vn -0.60570206 0.77118479 -0.19595673
f 5//5 4//4 2//2
f 6//6 2//2 4//4
f 7//7 6//6 4//4
f 7//7 3//3 6//6
f 12//12 8//8 3//3
f 12//12 3//3 7//7
f 12//12 1//1 8//8
f 13//13 5//5 2//2
f 13//13 2//2 8//8
f 13//13 8//8 1//1
f 15//15 4//4 5//5
f 16//16 10//10 6//6
f 16//16 6//6 3//3
f 16//16 3//3 8//8
f 16//16 8//8 10//10
f 17//17 2//2 6//6
f 17//17 6//6 10//10
f 17//17 10//10 8//8
f 17//17 8//8 2//2
f 19//19 4//4 15//15
f 20//20 12//12 7//7
f 20//20 7//7 11//11
f 22//22 5//5 13//13
f 22//22 13//13 21//21
f 24//24 15//15 5//5
f 25//25 11//11 7//7
f 25//25 7//7 18//18
f 26//26 7//7 4//4
f 27//27 20//20 11//11
f 28//28 19//19 15//15
f 28//28 15//15 9//9
f 28//28 20//20 19//19
f 28//28 9//9 20//20
f 29//29 1//1 12//12
f 29//29 12//12 20//20
f 30//30 21//21 13//13
f 30//30 13//13 1//1
f 30//30 29//29 21//21
f 30//30 1//1 29//29
f 31//31 14//14 23//23
f 31//31 24//24 14//14
f 31//31 15//15 24//24
f 31//31 23//23 9//9
f 31//31 9//9 15//15
f 32//32 23//23 14//14
f 32//32 14//14 22//22
f 32//32 29//29 23//23
f 32//32 22//22 21//21
f 32//32 21//21 29//29
f 33//33 22//22 14//14
f 33//33 14//14 24//24
f 33//33 24//24 5//5
f 33//33 5//5 22//22
f 34//34 18//18 7//7
f 35//35 27//27 11//11
f 35//35 11//11 25//25
f 36//36 4//4 19//19
f 36//36 19//19 20//20
f 37//37 29//29 20//20
f 37//37 20//20 9//9
f 37//37 9//9 23//23
f 37//37 23//23 29//29
f 38//38 34//34 7//7
f 38//38 7//7 26//26
f 38//38 26//26 34//34
f 39//39 34//34 26//26
f 39//39 26//26 4//4
f 39//39 35//35 34//34
f 39//39 4//4 36//36
f 40//40 35//35 25//25
f 40//40 25//25 18//18
f 40//40 18//18 34//34
f 40//40 34//34 35//35
f 41//41 36//36 20//20
f 41//41 20//20 27//27
f 41//41 39//39 36//36
f 41//41 27//27 35//35
f 41//41 35//35 39//39

