# https://github.com/mikedh/trimesh
v 0.00383148 0.00896108 0.05402822
v 0.00293174 -0.01383697 0.05435821
v 0.00583652 -0.00584883 0.03547716
v 0.00558732 0.00232107 0.02598126
v -0.01363149 -0.00596943 0.04154489
v 0.00582545 0.00991976 0.03557328
v 0.00365793 -0.00584883 0.05435821
v -0.01086596 -0.00584883 0.05435821
v 0.00311426 -0.02107377 0.03439556
v 0.00597666 0.00265248 0.02601496
v -0.00519734 0.00852770 0.04212160
v -0.00775156 0.00441656 0.05476634
v 0.00293140 -0.02211539 0.04553897
v -0.00583756 -0.01340457 0.03049975
v 0.00334156 -0.01442357 0.02736760
v 0.00377079 0.01234236 0.04624959
v -0.00791129 0.00029788 0.03323717
v -0.01007247 0.00361256 0.04214405
v -0.00998394 0.00334680 0.05451743
v 0.00300159 -0.02257019 0.03852534
v -0.01229628 -0.01414842 0.05210548
v 0.00413117 -0.00592440 0.02541531
v 0.00180095 -0.01808990 0.03042280
v 0.00325884 -0.01699040 0.02886563
v 0.00382697 0.01151795 0.04884083
v -0.00103853 0.00994441 0.03793355
v -0.01145791 -0.00787975 0.03600808
v -0.00452662 0.00364424 0.03263909
v -0.01069935 0.00111323 0.03809462
v -0.00919503 0.00384483 0.05463957
v -0.01361586 -0.00394933 0.04618529
v -0.00659977 0.00717936 0.04690048
v -0.00721289 -0.01664380 0.03448379
v -0.00129981 -0.02165279 0.04553377
v -0.00399472 -0.01214877 0.02910050
v -0.00524840 -0.00175402 0.02981962
v 0.00319420 -0.02035052 0.03310278
v -0.00390100 -0.01536734 0.03049482
v 0.00387506 0.00952522 0.05325724
v 0.00376297 0.01230592 0.04368151
v 0.00238856 0.00930876 0.03476067
v -0.01215352 -0.00596318 0.03739425
v -0.00929029 0.00287596 0.03739152
v 0.00186918 0.01141081 0.04753406
v -0.01214133 -0.00020852 0.04215240
v -0.01365405 -0.01002061 0.04625343
v -0.01289924 -0.00750708 0.05082278
v -0.01001774 0.00371807 0.04556030
v -0.00181179 -0.02165057 0.03928213
v -0.00854626 -0.01347190 0.03379589
v 0.00022819 -0.02240194 0.04331321
v -0.00191053 -0.01217105 0.02842326
v 0.00437299 0.00102054 0.02612944
v -0.00233928 0.00017272 0.02907673
v -0.00657415 -0.00043871 0.03126695
v -0.00459532 -0.00514230 0.02907840
v 0.00313068 -0.01890135 0.03094636
v -0.00468600 -0.01733703 0.03318362
v 0.00182234 -0.01743769 0.02976217
v -0.00324234 -0.01480231 0.02978802
v -0.00583756 -0.01477453 0.03122185
v -0.00396241 0.00926233 0.04286483
v 0.00575988 0.00934841 0.03461065
v -0.00173738 0.00715193 0.03408507
vn 0.51774275 0.45027171 0.72745985
vn 0.54279691 -0.37092935 0.75351373
vn 0.99593558 -0.08992588 0.00506604
vn -0.23111687 0.30334786 -0.92442689
vn -0.97829811 0.00319942 -0.20717763
vn 0.67556717 0.69776983 -0.23817276
vn 0.68546452 -0.03075515 0.72745620
vn -0.51765479 -0.03499815 0.85487347
vn 0.49707015 -0.78955504 -0.35989459
vn 0.54657824 0.39575474 -0.73799079
vn -0.59634252 0.79203311 -0.13061073
vn -0.21983834 0.51013689 0.83152358
vn 0.56676323 -0.74377398 0.35437228
vn -0.61175353 -0.23577221 -0.75509541
vn 0.43900405 -0.35865639 -0.82379672
vn 0.36412101 0.92145900 0.13538540
vn -0.73540373 0.35448794 -0.57751160
vn -0.79414683 0.59903434 -0.10241424
vn -0.66069070 0.40833329 0.62988231
vn 0.53254679 -0.83303410 -0.14982688
vn -0.67281206 -0.51738344 0.52880838
vn 0.34976308 -0.11139806 -0.93019152
vn -0.27295076 -0.73907300 -0.61584818
vn 0.49610604 -0.54617335 -0.67496183
vn 0.45589999 0.82519420 0.33348123
vn -0.37116209 0.87185993 -0.31952929
vn -0.86183905 -0.12343194 -0.49193293
vn -0.52030697 0.57947219 -0.62728991
vn -0.85636721 0.38031763 -0.34927597
vn -0.38306212 0.53890668 0.75022863
vn -0.97797082 0.19511973 0.07417118
vn -0.58900919 0.80119270 0.10563351
vn -0.67680715 -0.64452808 -0.35569036
vn -0.29342291 -0.88555759 0.36012602
vn -0.43618937 -0.17354140 -0.88296218
vn -0.55743263 0.18136744 -0.81016956
vn 0.51422366 -0.74415341 -0.42639151
vn -0.39005018 -0.59439566 -0.70324580
vn 0.51696033 0.73045891 0.44629789
vn 0.21209922 0.97430008 -0.07585031
vn -0.16645697 0.84699921 -0.50486078
vn -0.89743713 0.08562842 -0.43275208
vn -0.71328228 0.58274123 -0.38941116
vn -0.35918484 0.90152634 0.24132242
vn -0.92174573 0.37239317 -0.10820415
vn -0.96851312 -0.24499846 -0.04425034
vn -0.94472400 0.03896607 0.32554294
vn -0.80600350 0.59179800 0.01155373
vn -0.41605064 -0.89190940 -0.17719898
vn -0.82398992 -0.32194687 -0.46625190
vn -0.17581921 -0.98142363 0.07678069
vn -0.29778686 -0.21287310 -0.93059552
vn -0.34030138 0.18366765 -0.92220451
vn -0.43307146 0.40122739 -0.80713425
vn -0.64752352 0.29908993 -0.70089836
vn -0.54310833 0.02771282 -0.83920519
vn 0.40638057 -0.73277631 -0.54579640
vn -0.40260975 -0.75727036 -0.51424410
vn -0.27924599 -0.64073199 -0.71518123
vn -0.34867476 -0.44646639 -0.82407140
vn -0.57248732 -0.48730328 -0.65938894
vn -0.45014799 0.89291346 0.00850555
vn 0.45238298 0.73154826 -0.51008508
vn -0.43575022 0.70225787 -0.56298812
f 6//6 1//1 3//3
f 7//7 2//2 3//3
f 7//7 3//3 1//1
f 10//10 6//6 3//3
f 12//12 7//7 1//1
f 12//12 8//8 2//2
f 12//12 2//2 7//7
f 13//13 3//3 2//2
f 20//20 9//9 3//3
f 20//20 3//3 13//13
f 21//21 2//2 8//8
f 22//22 4//4 10//10
f 22//22 10//10 15//15
f 24//24 15//15 10//10
f 24//24 10//10 3//3
f 25//25 6//6 16//16
f 28//28 10//10 4//4
f 30//30 19//19 8//8
f 30//30 8//8 12//12
f 32//32 19//19 30//30
f 34//34 13//13 2//2
f 34//34 2//2 21//21
f 37//37 24//24 3//3
f 37//37 3//3 9//9
f 39//39 1//1 6//6
f 39//39 6//6 25//25
f 39//39 12//12 1//1
f 40//40 16//16 6//6
f 41//41 40//40 6//6
f 41//41 26//26 40//40
f 42//42 27//27 5//5
f 42//42 5//5 29//29
f 42//42 29//29 17//17
f 43//43 28//28 17//17
f 43//43 17//17 29//29
f 43//43 11//11 26//26
f 43//43 29//29 18//18
f 43//43 18//18 11//11
f 44//44 25//25 16//16
f 44//44 32//32 30//30
f 44//44 30//30 12//12
f 44//44 39//39 25//25
f 44//44 12//12 39//39
f 45//45 31//31 19//19
f 45//45 18//18 29//29
f 45//45 29//29 5//5
f 45//45 5//5 31//31
f 46//46 31//31 5//5
f 46//46 33//33 21//21
f 46//46 5//5 27//27
f 47//47 21//21 8//8
f 47//47 8//8 19//19
f 47//47 19//19 31//31
f 47//47 46//46 21//21
f 47//47 31//31 46//46
f 48//48 19//19 32//32
f 48//48 45//45 19//19
f 48//48 18//18 45//45
f 48//48 32//32 11//11
f 48//48 11//11 18//18
f 49//49 9//9 20//20
f 49//49 34//34 21//21
f 49//49 21//21 33//33
f 50//50 27//27 14//14
f 50//50 46//46 27//27
f 50//50 33//33 46//46
f 51//51 20//20 13//13
f 51//51 13//13 34//34
f 51//51 49//49 20//20
f 51//51 34//34 49//49
f 52//52 35//35 22//22
f 52//52 22//22 15//15
f 52//52 15//15 35//35
f 53//53 36//36 4//4
f 53//53 4//4 22//22
f 54//54 28//28 4//4
f 54//54 4//4 36//36
f 55//55 17//17 28//28
f 55//55 54//54 36//36
f 55//55 28//28 54//54
f 55//55 36//36 27//27
f 55//55 42//42 17//17
f 55//55 27//27 42//42
f 56//56 22//22 35//35
f 56//56 35//35 14//14
f 56//56 14//14 27//27
f 56//56 27//27 36//36
f 56//56 53//53 22//22
f 56//56 36//36 53//53
f 57//57 37//37 23//23
f 57//57 23//23 24//24
f 57//57 24//24 37//37
f 58//58 23//23 37//37
f 58//58 38//38 23//23
f 58//58 37//37 9//9
f 58//58 49//49 33//33
f 58//58 9//9 49//49
f 59//59 24//24 23//23
f 59//59 23//23 38//38
f 60//60 15//15 24//24
f 60//60 59//59 38//38
f 60//60 24//24 59//59
f 60//60 35//35 15//15
f 60//60 14//14 35//35
f 61//61 60//60 38//38
f 61//61 14//14 60//60
f 61//61 50//50 14//14
f 61//61 33//33 50//50
f 61//61 58//58 33//33
f 61//61 38//38 58//58
f 62//62 40//40 26//26
f 62//62 26//26 11//11
f 62//62 16//16 40//40
f 62//62 44//44 16//16
f 62//62 11//11 32//32
f 62//62 32//32 44//44
f 63//63 41//41 6//6
f 63//63 6//6 10//10
f 63//63 10//10 41//41
f 64//64 26//26 41//41
f 64//64 43//43 26//26
f 64//64 28//28 43//43
f 64//64 41//41 10//10
f 64//64 10//10 28//28

