# https://github.com/mikedh/trimesh
v 0.05085898 0.01368093 0.05192580
v 0.02513401 0.01516193 0.05266440
v 0.02085561 0.01561329 0.01323302
v 0.04945300 0.01215193 0.01323220
v 0.04110496 0.02274645 0.03368305
v 0.04041015 0.02206504 0.04068070
v 0.03296519 0.01336944 0.05371136
v 0.03154369 0.02278912 0.03574734
v 0.03033677 0.01694468 0.01323220
v 0.05184356 0.01757441 0.02893279
v 0.03687370 0.01625657 0.05109973
v 0.05228981 0.01196258 0.03247635
v 0.01914145 0.01264636 0.01323220
v 0.02472182 0.01703432 0.04690407
v 0.03776806 0.02276532 0.03948718
v 0.04553451 0.01475043 0.01323220
v 0.03354768 0.02266043 0.03127896
v 0.04889510 0.01900588 0.03939836
v 0.05209868 0.01738783 0.03244658
v 0.05197930 0.01172858 0.01976310
v 0.01960537 0.01261259 0.01701314
v 0.02030322 0.01564185 0.01627100
v 0.02464490 0.01593811 0.05121128
v 0.03844000 0.02278162 0.03902290
v 0.03981903 0.02272264 0.03089482
v 0.05192351 0.01687452 0.02559894
v 0.02418599 0.01686632 0.01323220
v 0.04747431 0.01979483 0.03947067
v 0.04952373 0.01844851 0.04003682
v 0.03340875 0.01196258 0.01323220
v 0.03153922 0.02274034 0.03287639
v 0.01975369 0.01498078 0.01393559
v 0.02472349 0.01625692 0.05032602
v 0.03512889 0.02276648 0.03926869
v 0.01972831 0.01500845 0.01626852
v 0.04179906 0.02196860 0.03960334
v 0.04109287 0.02266625 0.03139360
v 0.03857216 0.02273239 0.03086824
v 0.04744124 0.01399389 0.01323220
v 0.05186487 0.01407379 0.02166632
v 0.04763447 0.01974543 0.03626113
v 0.05179551 0.01760773 0.03174125
v 0.04969618 0.01175380 0.01323220
v 0.02147242 0.01615418 0.01389469
v 0.01978216 0.01443990 0.01323220
v 0.04317283 0.02131208 0.04020888
v 0.04863283 0.01336476 0.01389974
v 0.05018528 0.01167403 0.01454169
v 0.05182556 0.01628588 0.02437044
v 0.02033040 0.01556947 0.01399157
v 0.02282118 0.01681024 0.01459622
v 0.02211288 0.01621810 0.01323220
v 0.04925924 0.01275124 0.01389740
vn 0.63290937 -0.17613496 0.75392453
vn -0.56645747 -0.10399136 0.81750335
vn -0.34109673 0.51515189 -0.78630245
vn 0.46560535 0.36048516 -0.80824632
vn 0.22402736 0.97456832 0.00532279
vn 0.15990416 0.91710463 0.36517086
vn -0.05367592 -0.42052287 0.90569278
vn -0.30652302 0.94889374 0.07512856
vn 0.02559982 0.59624132 -0.80239700
vn 0.71124821 0.69738346 -0.08821734
vn 0.05312359 0.76866578 0.63744082
vn 0.71565522 -0.69692079 0.04624954
vn -0.67763723 -0.48542934 -0.55241844
vn -0.67234914 0.72578281 0.14555392
vn 0.01840458 0.96222598 0.27162923
vn 0.16320886 0.57706165 -0.80022667
vn -0.06160866 0.98039917 -0.18714125
vn 0.52089191 0.84263364 0.13652900
vn 0.86964329 0.49198267 0.04090970
vn 0.78240808 -0.59348008 -0.18872995
vn -0.74298242 -0.66038935 0.10891758
vn -0.63706425 0.77078557 0.00622534
vn -0.75951590 0.49098583 0.42669487
vn 0.10469414 0.98847163 0.10937542
vn 0.07609339 0.97601043 -0.20399371
vn 0.79036930 0.58042027 -0.19603236
vn -0.11450475 0.63535312 -0.76368519
vn 0.42360082 0.89010815 0.16813635
vn 0.62082198 0.75773168 0.20105416
vn -0.02374010 -0.71944256 -0.69414611
vn -0.26224932 0.96252788 -0.06903166
vn -0.83020430 0.51768755 -0.20678593
vn -0.57085550 0.78924951 0.22629452
vn -0.08838954 0.96466257 0.24822048
vn -0.90928990 0.41052711 0.06825959
vn 0.29116943 0.93984890 0.17861804
vn 0.24086713 0.95823628 -0.15416311
vn -0.00080852 0.98587586 -0.16747578
vn 0.30144130 0.52252494 -0.79755929
vn 0.93001473 0.28352532 -0.23385038
vn 0.43876029 0.89860324 -0.00127641
vn 0.52181105 0.85303983 0.00602286
vn 0.57783480 -0.43886295 -0.68811791
vn -0.41633995 0.88879380 -0.19158976
vn -0.54485664 0.27723455 -0.79137364
vn 0.33567818 0.89828872 0.28354460
vn 0.61206051 0.67753026 -0.40784149
vn 0.75013842 -0.60030995 -0.27734513
vn 0.81252868 0.49573191 -0.30667087
vn -0.59996981 0.77609073 -0.19421485
vn -0.31682405 0.93172627 -0.17750685
vn -0.21928031 0.58606523 -0.78002800
vn 0.65362442 0.64948700 -0.38851223
f 11//11 1//1 6//6
f 11//11 7//7 1//1
f 11//11 2//2 7//7
f 12//12 1//1 7//7
f 13//13 9//9 4//4
f 15//15 11//11 6//6
f 15//15 2//2 11//11
f 16//16 4//4 9//9
f 19//19 1//1 12//12
f 20//20 19//19 12//12
f 21//21 7//7 2//2
f 22//22 14//14 8//8
f 23//23 2//2 15//15
f 23//23 21//21 2//2
f 24//24 15//15 6//6
f 24//24 5//5 8//8
f 25//25 16//16 9//9
f 26//26 10//10 19//19
f 26//26 19//19 20//20
f 27//27 9//9 13//13
f 29//29 19//19 18//18
f 29//29 1//1 19//19
f 29//29 28//28 1//1
f 29//29 18//18 28//28
f 30//30 13//13 4//4
f 30//30 21//21 13//13
f 30//30 20//20 12//12
f 30//30 12//12 7//7
f 30//30 7//7 21//21
f 31//31 22//22 8//8
f 31//31 17//17 27//27
f 33//33 8//8 14//14
f 33//33 14//14 23//23
f 34//34 23//23 15//15
f 34//34 33//33 23//23
f 34//34 8//8 33//33
f 34//34 24//24 8//8
f 34//34 15//15 24//24
f 35//35 23//23 14//14
f 35//35 14//14 22//22
f 35//35 22//22 32//32
f 35//35 21//21 23//23
f 35//35 32//32 13//13
f 35//35 13//13 21//21
f 36//36 24//24 6//6
f 36//36 5//5 24//24
f 36//36 28//28 5//5
f 37//37 25//25 5//5
f 37//37 5//5 10//10
f 37//37 10//10 26//26
f 37//37 26//26 16//16
f 37//37 16//16 25//25
f 38//38 8//8 5//5
f 38//38 5//5 25//25
f 38//38 31//31 8//8
f 38//38 17//17 31//31
f 38//38 27//27 17//17
f 38//38 25//25 9//9
f 38//38 9//9 27//27
f 39//39 4//4 16//16
f 39//39 16//16 26//26
f 40//40 26//26 20//20
f 41//41 10//10 5//5
f 41//41 5//5 28//28
f 42//42 19//19 10//10
f 42//42 41//41 28//28
f 42//42 10//10 41//41
f 42//42 28//28 18//18
f 42//42 18//18 19//19
f 43//43 30//30 4//4
f 45//45 32//32 3//3
f 45//45 13//13 32//32
f 45//45 27//27 13//13
f 46//46 36//36 6//6
f 46//46 6//6 1//1
f 46//46 1//1 28//28
f 46//46 28//28 36//36
f 47//47 39//39 26//26
f 47//47 4//4 39//39
f 48//48 20//20 30//30
f 48//48 30//30 43//43
f 48//48 43//43 40//40
f 48//48 40//40 20//20
f 49//49 43//43 4//4
f 49//49 26//26 40//40
f 49//49 40//40 43//43
f 49//49 47//47 26//26
f 50//50 22//22 31//31
f 50//50 31//31 44//44
f 50//50 32//32 22//22
f 50//50 44//44 3//3
f 50//50 3//3 32//32
f 51//51 44//44 31//31
f 51//51 31//31 27//27
f 52//52 3//3 44//44
f 52//52 45//45 3//3
f 52//52 27//27 45//45
f 52//52 51//51 27//27
f 52//52 44//44 51//51
f 53//53 49//49 4//4
f 53//53 4//4 47//47
f 53//53 47//47 49//49

