# https://github.com/mikedh/trimesh
v 0.00247775 0.00005710 0.08799725
v 0.00949342 -0.00625878 0.07271382
v 0.00322734 0.00450564 0.07358367
v -0.01110905 -0.00027750 0.05964522
v -0.01199096 -0.02502787 0.07136951
v 0.00207982 0.00238493 0.06357448
v -0.00955489 0.00174383 0.08201295
v 0.00835714 0.00336196 0.07953375
v 0.00019118 -0.01646222 0.08336958
v -0.01070848 0.00187236 0.06321010
v 0.00208188 -0.02083971 0.05993421
v -0.01736014 -0.00799130 0.07057605
v 0.00834279 -0.00319799 0.08104344
v -0.00311000 0.00274522 0.08712987
v 0.00453418 0.00387898 0.07358457
v 0.00884613 -0.00138042 0.07264772
v -0.01319485 -0.01179720 0.08307531
v -0.01079320 0.00002404 0.05979629
v 0.00197423 0.00500758 0.07371422
v -0.01479446 -0.01898590 0.06230222
v 0.00962483 -0.00422009 0.07259592
v -0.00618976 -0.02580294 0.06914651
v 0.00720823 -0.01320598 0.07270228
v -0.01597014 -0.00310559 0.06453144
v 0.00433218 -0.00971629 0.08386543
v 0.00251593 0.00202835 0.08604455
v 0.00674507 0.00209760 0.07287792
v -0.00982951 -0.01948032 0.08087950
v -0.01666160 -0.01972030 0.06986747
v -0.01589863 -0.00645416 0.08122922
v -0.00443091 -0.00989769 0.08664529
v -0.01125628 0.00163058 0.06332117
v -0.01245536 0.00160566 0.07205826
v -0.00548192 0.00271491 0.08638424
v 0.00178676 0.00473705 0.07660685
v -0.01376627 -0.00982913 0.05986646
v -0.00852110 -0.02508132 0.06473954
v 0.00877079 -0.00974076 0.07279250
v -0.00374310 -0.02451910 0.06836627
v -0.01672708 -0.01840177 0.06403869
v 0.00583264 -0.00589645 0.08363352
v 0.00160096 -0.01328722 0.08445225
v 0.00401346 -0.01237125 0.08274926
v 0.00727750 0.00130018 0.07283209
v -0.00688808 -0.02280589 0.07758095
v -0.01443984 -0.01893154 0.07755936
v -0.01597542 -0.01043186 0.08113634
v -0.01662424 -0.00441461 0.06923095
v -0.00585669 -0.00849110 0.08667596
v -0.00650883 -0.01674568 0.08371685
v -0.01380623 0.00019600 0.06468329
v -0.01244622 0.00151833 0.06471581
v -0.01448823 -0.00337499 0.08072228
v -0.01405632 -0.00648046 0.08309816
v -0.00429848 0.00271903 0.08698772
v -0.00221839 -0.02032721 0.05957054
v -0.01607631 -0.00573789 0.06288238
v -0.00668948 -0.02581678 0.06602761
v 0.00155998 -0.01919967 0.06990507
v 0.00079442 -0.01644395 0.08275531
v -0.01739724 -0.01259666 0.06859956
v -0.01606903 -0.02097145 0.06541988
v -0.01607323 -0.01906155 0.06344450
v 0.00476435 -0.00969659 0.08332434
vn 0.37113846 0.20174598 0.90639661
vn 0.98554325 -0.13029490 -0.10829469
vn 0.37880361 0.90527629 -0.19230879
vn -0.32300273 0.41300040 -0.85152798
vn -0.43564037 -0.88054570 0.18669958
vn 0.42893876 0.62606644 -0.65119302
vn -0.56287913 0.77609077 0.28434170
vn 0.72869260 0.64785762 0.22200811
vn 0.33287642 -0.62204749 0.70869613
vn -0.22763086 0.92531830 -0.30326595
vn 0.57617452 -0.50079608 -0.64593050
vn -0.99533619 0.09429737 0.02034381
vn 0.90493167 -0.07851442 0.41825130
vn -0.03349872 0.67858221 0.73376019
vn 0.45492065 0.86124316 -0.22651143
vn 0.88411815 0.33615356 -0.32455490
vn -0.50659951 -0.27006805 0.81879190
vn -0.10841035 0.64239684 -0.75866560
vn 0.06975294 0.99421420 -0.08168635
vn -0.45327545 -0.39386925 -0.79963015
vn 0.96933612 0.07165714 -0.23505901
vn 0.22653477 -0.96273881 0.14770238
vn 0.83849388 -0.53219022 0.11705381
vn -0.89028051 0.38813129 -0.23823248
vn 0.64503241 -0.28286853 0.70987223
vn 0.33425422 0.76744048 0.54709161
vn 0.71117692 0.62848340 -0.31501745
vn -0.32102342 -0.63016477 0.70699104
vn -0.91591296 -0.38057846 0.12752841
vn -0.87823216 0.21433314 0.42751558
vn -0.04242555 -0.27098650 0.96164775
vn -0.47830164 0.79617803 -0.37057805
vn -0.57747034 0.81387736 0.06427789
vn -0.42026933 0.69892735 0.57868321
vn 0.00513660 0.99167012 0.12870113
vn -0.46439701 -0.02544100 -0.88526164
vn -0.24720475 -0.82519431 -0.50788204
vn 0.95355416 -0.30092968 0.01325831
vn 0.54798089 -0.82946337 0.10820101
vn -0.91338854 -0.17243669 -0.36876411
vn 0.74202066 -0.19358895 0.64181669
vn 0.41092935 -0.39018955 0.82394732
vn 0.75306667 -0.45089097 0.47915335
vn 0.79207320 0.51161084 -0.33297807
vn 0.08939119 -0.86079382 0.50104213
vn -0.71488643 -0.50963928 0.47875380
vn -0.85632150 -0.14900684 0.49447997
vn -0.93268327 0.36012477 0.02029959
vn -0.26200710 -0.11767341 0.95786494
vn -0.12052647 -0.51639705 0.84782513
vn -0.76093530 0.61590994 -0.20404024
vn -0.50855342 0.84542600 -0.16318183
vn -0.78605995 0.50150451 0.36139035
vn -0.59007366 0.12261571 0.79798400
vn -0.22420879 0.62368208 0.74883315
vn -0.03852120 -0.36342462 -0.93082687
vn -0.87403841 0.15594695 -0.46014933
vn 0.08990636 -0.96852588 -0.23210874
vn 0.67386638 -0.71831670 0.17298906
vn 0.61057950 -0.67658825 0.41160784
vn -0.99937220 -0.01926051 -0.02973613
vn -0.74240379 -0.61066152 -0.27555238
vn -0.68325736 -0.38090858 -0.62295107
vn 0.80223098 -0.30860963 0.51106317
f 11//11 4//4 6//6
f 13//13 8//8 1//1
f 15//15 8//8 6//6
f 15//15 6//6 3//3
f 15//15 3//3 8//8
f 18//18 10//10 6//6
f 18//18 6//6 4//4
f 19//19 3//3 6//6
f 19//19 6//6 10//10
f 19//19 8//8 3//3
f 21//21 11//11 6//6
f 21//21 2//2 11//11
f 21//21 6//6 16//16
f 21//21 16//16 8//8
f 21//21 13//13 2//2
f 21//21 8//8 13//13
f 26//26 14//14 1//1
f 26//26 1//1 8//8
f 26//26 8//8 14//14
f 27//27 6//6 8//8
f 32//32 18//18 4//4
f 32//32 10//10 18//18
f 34//34 33//33 7//7
f 34//34 19//19 33//33
f 35//35 14//14 8//8
f 35//35 8//8 19//19
f 35//35 19//19 34//34
f 38//38 23//23 11//11
f 38//38 11//11 2//2
f 38//38 2//2 13//13
f 41//41 13//13 1//1
f 41//41 1//1 25//25
f 42//42 25//25 1//1
f 42//42 31//31 9//9
f 42//42 1//1 31//31
f 43//43 23//23 38//38
f 43//43 38//38 13//13
f 43//43 42//42 9//9
f 43//43 25//25 42//42
f 44//44 16//16 6//6
f 44//44 6//6 27//27
f 44//44 27//27 8//8
f 44//44 8//8 16//16
f 45//45 28//28 5//5
f 45//45 5//5 22//22
f 46//46 28//28 17//17
f 46//46 29//29 5//5
f 46//46 5//5 28//28
f 47//47 30//30 12//12
f 47//47 29//29 46//46
f 47//47 46//46 17//17
f 48//48 24//24 12//12
f 48//48 12//12 30//30
f 49//49 31//31 1//1
f 50//50 9//9 31//31
f 50//50 45//45 9//9
f 50//50 28//28 45//45
f 50//50 17//17 28//28
f 50//50 49//49 17//17
f 50//50 31//31 49//49
f 51//51 4//4 24//24
f 51//51 48//48 33//33
f 51//51 24//24 48//48
f 52//52 33//33 19//19
f 52//52 19//19 10//10
f 52//52 10//10 32//32
f 52//52 51//51 33//33
f 52//52 32//32 4//4
f 52//52 4//4 51//51
f 53//53 7//7 33//33
f 53//53 34//34 7//7
f 53//53 30//30 34//34
f 53//53 48//48 30//30
f 53//53 33//33 48//48
f 54//54 34//34 30//30
f 54//54 17//17 49//49
f 54//54 47//47 17//17
f 54//54 30//30 47//47
f 55//55 35//35 34//34
f 55//55 14//14 35//35
f 55//55 54//54 49//49
f 55//55 34//34 54//54
f 55//55 49//49 1//1
f 55//55 1//1 14//14
f 56//56 36//36 4//4
f 56//56 4//4 11//11
f 56//56 20//20 36//36
f 56//56 37//37 20//20
f 56//56 11//11 37//37
f 57//57 24//24 4//4
f 57//57 4//4 36//36
f 57//57 36//36 40//40
f 57//57 12//12 24//24
f 58//58 37//37 11//11
f 58//58 22//22 5//5
f 58//58 5//5 37//37
f 58//58 39//39 22//22
f 58//58 11//11 39//39
f 59//59 39//39 11//11
f 59//59 11//11 23//23
f 60//60 22//22 39//39
f 60//60 45//45 22//22
f 60//60 9//9 45//45
f 60//60 43//43 9//9
f 60//60 23//23 43//43
f 60//60 59//59 23//23
f 60//60 39//39 59//59
f 61//61 40//40 29//29
f 61//61 57//57 40//40
f 61//61 12//12 57//57
f 61//61 47//47 12//12
f 61//61 29//29 47//47
f 62//62 5//5 29//29
f 62//62 29//29 40//40
f 62//62 37//37 5//5
f 62//62 20//20 37//37
f 63//63 40//40 36//36
f 63//63 36//36 20//20
f 63//63 62//62 40//40
f 63//63 20//20 62//62
f 64//64 41//41 25//25
f 64//64 13//13 41//41
f 64//64 43//43 13//13
f 64//64 25//25 43//43

