# https://github.com/mikedh/trimesh
v 0.05134034 -0.00477986 0.06176771
v 0.07386272 -0.01518297 0.02977588
v 0.06129906 0.00690535 0.03862349
v 0.03767533 0.00415587 0.01435034
v 0.03787631 -0.03206197 0.03147614
v 0.05396277 0.00394709 0.01435034
v 0.03769951 0.00837152 0.05240006
v 0.06656373 -0.00269965 0.05044866
v 0.05964007 -0.02255061 0.05269757
v 0.07183826 -0.00605098 0.02644719
v 0.05428519 0.01046613 0.03357539
v 0.03760604 -0.02673703 0.01435034
v 0.03810216 -0.01936310 0.05606037
v 0.05704724 0.00411582 0.05553409
v 0.05538393 -0.02910455 0.03660226
v 0.05891719 -0.01029142 0.05961853
v 0.06653402 -0.01583974 0.04990711
v 0.05730937 0.00840912 0.02677233
v 0.06667356 -0.01654265 0.01436108
v 0.07376666 -0.01057869 0.03111568
v 0.06583764 0.00284950 0.04070406
v 0.03851430 0.00860285 0.05216846
v 0.03760271 -0.03082866 0.04116476
v 0.03785827 -0.00326673 0.05879677
v 0.05079447 0.00130044 0.05896248
v 0.05399545 0.01007039 0.04190774
v 0.06379640 -0.02343660 0.04353186
v 0.04832791 -0.02632511 0.01435034
v 0.05202062 -0.01862230 0.06035493
v 0.05825346 -0.00554087 0.05950041
v 0.06086275 -0.01795191 0.05601543
v 0.06590601 -0.01238927 0.05262594
v 0.07116235 -0.00605281 0.02481647
v 0.05801621 0.00849107 0.02864489
v 0.05634474 0.00919082 0.02725531
v 0.07120724 -0.01899376 0.02644155
v 0.07388068 -0.01126056 0.02720692
v 0.07317935 -0.00809871 0.03038199
v 0.06453300 0.00196005 0.04769161
v 0.04980110 -0.03060638 0.04253545
v 0.03797638 -0.01236328 0.05885679
v 0.03778767 -0.00045292 0.05813303
v 0.05554366 0.00153632 0.05808380
v 0.03944738 0.00586941 0.05522667
v 0.05959689 0.00622222 0.04571207
v 0.05521495 0.00986699 0.04012202
v 0.05490198 0.00547747 0.05430605
v 0.06305980 -0.01989216 0.05211118
v 0.06584488 -0.01853399 0.04845232
v 0.04465871 -0.03198412 0.03233005
v 0.04127912 -0.03123767 0.02652457
v 0.06313433 -0.02040603 0.01435034
v 0.04437079 -0.02410390 0.05546393
v 0.05414312 -0.01104043 0.06177583
v 0.06302143 -0.00490159 0.05537689
v 0.05908767 -0.01982209 0.05604313
v 0.05680071 -0.01578634 0.05949813
v 0.06442467 -0.01654219 0.05325121
v 0.06732062 -0.00536780 0.05052787
v 0.06802161 -0.01169069 0.04850941
v 0.05735033 0.00764038 0.02541137
v 0.06666514 -0.01010123 0.01437816
v 0.05555927 0.00998447 0.03349562
v 0.06379640 0.00489974 0.03737928
vn 0.03754111 0.19116778 0.98083920
vn 0.94490175 -0.32698390 0.01556326
vn 0.55259471 0.82974550 0.07849519
vn -0.60476751 0.49286468 -0.62557227
vn -0.63370810 -0.77231398 -0.04410397
vn 0.23256554 0.57196959 -0.78661557
vn -0.68264333 0.65986600 0.31396647
vn 0.80804847 0.39338901 0.43852338
vn 0.41690805 -0.76994225 0.48309068
vn 0.83424804 0.50637610 -0.21820506
vn 0.06905276 0.99522962 -0.06891815
vn -0.59272437 -0.46823232 -0.65531391
vn -0.74706951 -0.35818297 0.55999295
vn 0.41738848 0.68563165 0.59640264
vn 0.40698866 -0.91316791 -0.02201356
vn 0.55628159 -0.04563904 0.82973964
vn 0.86634169 -0.30556462 0.39507258
vn 0.56323540 0.75605190 -0.33339378
vn 0.55668362 -0.24377469 -0.79415190
vn 0.97993904 0.10900274 0.16684685
vn 0.76645188 0.63071234 0.12146384
vn -0.10616490 0.94763941 0.30117863
vn -0.68023460 -0.69828535 0.22288663
vn -0.73615285 0.07377028 0.67278297
vn 0.02619380 0.54661375 0.83697508
vn 0.19353348 0.96533832 0.17511915
vn 0.61913790 -0.75775881 0.20608212
vn 0.15981366 -0.62101176 -0.76733565
vn 0.08058061 -0.47751708 0.87491954
vn 0.49245878 0.22031652 0.84198871
vn 0.58873729 -0.37717429 0.71493213
vn 0.80364073 -0.09644729 0.58724739
vn 0.77449420 0.48426521 -0.40699624
vn 0.57676931 0.80193820 -0.15566721
vn 0.24266665 0.93482354 -0.25926405
vn 0.74847319 -0.63632990 -0.18674086
vn 0.96346882 0.05577080 -0.26194931
vn 0.92371735 0.38036073 0.04551896
vn 0.70112832 0.64258159 0.30904364
vn 0.19019476 -0.94524721 0.26520496
vn -0.73217132 -0.12400470 0.66973726
vn -0.72940169 0.24400351 0.63908955
vn 0.32546885 0.48938887 0.80905412
vn -0.20729872 0.60000621 0.77267056
vn 0.49860892 0.82777364 0.25725463
vn 0.37340003 0.92137278 0.10791021
vn 0.19956481 0.84947687 0.48842904
vn 0.67053413 -0.57963752 0.46303814
vn 0.79963084 -0.50357874 0.32710699
vn 0.15406540 -0.98578871 -0.06696617
vn 0.01538453 -0.96469486 -0.26292041
vn 0.34305050 -0.55483920 -0.75793787
vn -0.14965763 -0.72830687 0.66870898
vn 0.16314204 -0.07642150 0.98363836
vn 0.68009431 0.22021352 0.69926943
vn 0.42685904 -0.58888373 0.68629973
vn 0.43739708 -0.30568998 0.84571711
vn 0.74339972 -0.31502194 0.59001528
vn 0.87595452 0.14176391 0.46109291
vn 0.92400043 -0.10244267 0.36841378
vn 0.58823101 0.70530835 -0.39563167
vn 0.53534254 0.20336762 -0.81978654
vn 0.40836884 0.91266185 -0.01682991
vn 0.68498900 0.72644616 -0.05537187
f 12//12 4//4 6//6
f 22//22 11//11 4//4
f 22//22 4//4 7//7
f 23//23 12//12 5//5
f 23//23 7//7 4//4
f 23//23 4//4 12//12
f 26//26 11//11 22//22
f 28//28 12//12 6//6
f 34//34 33//33 18//18
f 34//34 10//10 33//33
f 35//35 18//18 6//6
f 35//35 6//6 4//4
f 35//35 4//4 11//11
f 35//35 34//34 18//18
f 36//36 19//19 2//2
f 36//36 27//27 15//15
f 36//36 2//2 27//27
f 37//37 20//20 2//2
f 37//37 33//33 10//10
f 37//37 2//2 19//19
f 38//38 10//10 21//21
f 38//38 37//37 10//10
f 38//38 20//20 37//37
f 38//38 21//21 8//8
f 38//38 8//8 20//20
f 39//39 14//14 8//8
f 39//39 8//8 21//21
f 39//39 21//21 3//3
f 40//40 27//27 9//9
f 40//40 15//15 27//27
f 41//41 23//23 13//13
f 41//41 13//13 29//29
f 41//41 1//1 24//24
f 42//42 7//7 23//23
f 42//42 41//41 24//24
f 42//42 23//23 41//41
f 42//42 24//24 1//1
f 42//42 1//1 25//25
f 43//43 25//25 1//1
f 43//43 14//14 25//25
f 43//43 1//1 30//30
f 44//44 22//22 7//7
f 44//44 42//42 25//25
f 44//44 7//7 42//42
f 44//44 25//25 14//14
f 45//45 26//26 14//14
f 45//45 39//39 3//3
f 45//45 14//14 39//39
f 46//46 11//11 26//26
f 46//46 45//45 3//3
f 46//46 26//26 45//45
f 47//47 26//26 22//22
f 47//47 14//14 26//26
f 47//47 44//44 14//14
f 47//47 22//22 44//44
f 48//48 9//9 27//27
f 49//49 27//27 2//2
f 49//49 2//2 17//17
f 49//49 48//48 27//27
f 50//50 28//28 15//15
f 50//50 15//15 40//40
f 50//50 40//40 23//23
f 50//50 23//23 5//5
f 51//51 5//5 12//12
f 51//51 12//12 28//28
f 51//51 50//50 5//5
f 51//51 28//28 50//50
f 52//52 28//28 6//6
f 52//52 6//6 19//19
f 52//52 19//19 36//36
f 52//52 36//36 15//15
f 52//52 15//15 28//28
f 53//53 29//29 13//13
f 53//53 13//13 23//23
f 53//53 23//23 40//40
f 53//53 40//40 9//9
f 53//53 9//9 29//29
f 54//54 41//41 29//29
f 54//54 1//1 41//41
f 54//54 30//30 1//1
f 54//54 16//16 30//30
f 55//55 30//30 16//16
f 55//55 8//8 14//14
f 55//55 43//43 30//30
f 55//55 14//14 43//43
f 55//55 16//16 32//32
f 56//56 29//29 9//9
f 56//56 48//48 31//31
f 56//56 9//9 48//48
f 57//57 31//31 16//16
f 57//57 56//56 31//31
f 57//57 29//29 56//56
f 57//57 54//54 29//29
f 57//57 16//16 54//54
f 58//58 17//17 32//32
f 58//58 31//31 48//48
f 58//58 49//49 17//17
f 58//58 48//48 49//49
f 58//58 32//32 16//16
f 58//58 16//16 31//31
f 59//59 20//20 8//8
f 59//59 55//55 32//32
f 59//59 8//8 55//55
f 60//60 32//32 17//17
f 60//60 17//17 2//2
f 60//60 59//59 32//32
f 60//60 2//2 20//20
f 60//60 20//20 59//59
f 61//61 33//33 6//6
f 61//61 6//6 18//18
f 61//61 18//18 33//33
f 62//62 19//19 6//6
f 62//62 6//6 33//33
f 62//62 37//37 19//19
f 62//62 33//33 37//37
f 63//63 3//3 34//34
f 63//63 46//46 3//3
f 63//63 11//11 46//46
f 63//63 35//35 11//11
f 63//63 34//34 35//35
f 64//64 34//34 3//3
f 64//64 3//3 21//21
f 64//64 21//21 10//10
f 64//64 10//10 34//34

