# https://github.com/mikedh/trimesh

o stick.stl
v 0.06224097 -0.00985923 0.00049891
v 0.06206524 -0.00820708 -0.00472008
v 0.06362812 -0.00805923 0.00045220
v 0.06465055 -0.00283728 -0.00480713
v 0.06191144 -0.00283728 -0.00928788
v 0.06571559 -0.00283728 0.00038191
v 0.06188951 -0.00052705 -0.00993907
v 0.06512949 0.00238467 -0.00482326
v 0.06201393 0.00238467 -0.00994326
v 0.06612470 0.00238467 0.00036814
v 0.05145153 -0.00983503 -0.00958761
v 0.05140429 -0.00805923 -0.01099038
v 0.05675713 -0.00805923 -0.00976626
v 0.05684625 -0.01211606 -0.00454435
v 0.05730768 -0.01328117 0.00066502
v 0.05697962 -0.01328117 -0.00058332
v 0.05336776 -0.01328117 -0.00442722
v 0.05162726 -0.01366233 -0.00436862
v 0.05160023 -0.01328117 -0.00517139
v 0.05180299 -0.01486358 0.00085037
v 0.06128656 -0.00283728 -0.00991877
v 0.05657028 -0.00283728 -0.01274018
v 0.05655187 0.00238467 -0.01328701
v 0.05132149 -0.00283728 -0.01344956
v 0.05130832 0.00238467 -0.01384058
v 0.04623254 -0.01037967 -0.00941188
v 0.04617991 -0.00805923 -0.01097503
v 0.04101355 -0.01074555 -0.00923615
v 0.04095792 -0.00805923 -0.01088824
v 0.04640827 -0.01435914 -0.00419289
v 0.04633988 -0.01328117 -0.00622388
v 0.04658400 -0.01538433 0.00102610
v 0.04118928 -0.01472199 -0.00401716
v 0.04110075 -0.01328117 -0.00664637
v 0.04136501 -0.01548063 0.00120183
v 0.04611158 -0.00283728 -0.01300430
v 0.04610088 0.00238467 -0.01332210
v 0.04089800 -0.00283728 -0.01266783
v 0.04088969 0.00238467 -0.01291450
v 0.03579456 -0.01121036 -0.00906042
v 0.03572804 -0.00805923 -0.01103599
v 0.03057557 -0.01164210 -0.00888469
v 0.03049456 -0.00805923 -0.01129050
v 0.03597029 -0.01500403 -0.00384143
v 0.03586526 -0.01328117 -0.00696071
v 0.03614602 -0.01557467 0.00137756
v 0.03075130 -0.01525055 -0.00366570
v 0.03063281 -0.01328117 -0.00718463
v 0.03092703 -0.01577641 0.00155329
v 0.03566866 -0.00283728 -0.01279963
v 0.03566150 0.00238467 -0.01301216
v 0.03043448 -0.00283728 -0.01307496
v 0.03042940 0.00238467 -0.01322573
v 0.02535658 -0.01208005 -0.00870895
v 0.02526178 -0.00805923 -0.01152460
v 0.02013759 -0.01234417 -0.00853322
v 0.02003715 -0.00805923 -0.01151602
v 0.02553232 -0.01552682 -0.00348996
v 0.02539937 -0.01328117 -0.00743822
v 0.02570805 -0.01604892 0.00172902
v 0.02031332 -0.01577121 -0.00331423
v 0.02017035 -0.01328117 -0.00756024
v 0.02048905 -0.01630357 0.00190476
v 0.02520592 -0.00283728 -0.01318341
v 0.02520543 0.00238467 -0.01319801
v 0.01998227 -0.00283728 -0.01314582
v 0.01998207 0.00238467 -0.01315172
v 0.01491860 -0.01243880 -0.00835749
v 0.01481226 -0.00805923 -0.01151561
v 0.00969961 -0.01262678 -0.00818176
v 0.00957888 -0.00805923 -0.01176723
v 0.01509433 -0.01577588 -0.00313850
v 0.01494877 -0.01328117 -0.00746143
v 0.01527006 -0.01627379 0.00208049
v 0.00987534 -0.01560572 -0.00296277
v 0.00972577 -0.01328117 -0.00740493
v 0.01005107 -0.01598426 0.00225622
v 0.01475484 -0.00283728 -0.01322080
v 0.01475584 0.00238467 -0.01319136
v 0.00952424 -0.00283728 -0.01339003
v 0.00953105 0.00238467 -0.01318787
v 0.00448062 -0.01268879 -0.00800603
v 0.00435144 -0.00805923 -0.01184272
v -0.00073837 -0.01267418 -0.00783030
v -0.00086546 -0.00805923 -0.01160448
v 0.00465635 -0.01547049 -0.00278704
v 0.00450627 -0.01328117 -0.00724427
v 0.00483209 -0.01580211 0.00243195
v -0.00056264 -0.01551725 -0.00261131
v -0.00071252 -0.01328117 -0.00706246
v -0.00038691 -0.01581422 0.00260768
v 0.00430489 -0.00392553 -0.01322502
v 0.00430033 -0.00283728 -0.01336054
v 0.00430489 0.00150433 -0.01322502
v 0.00431058 0.00238467 -0.01305610
v -0.00091411 -0.00319139 -0.01304929
v -0.00091525 -0.00283728 -0.01308332
v -0.00091411 0.00071643 -0.01304929
v -0.00090498 0.00238467 -0.01277837
v -0.00595736 -0.01295987 -0.00765457
v -0.00608731 -0.00805923 -0.01151365
v -0.01117414 -0.01328117 -0.00741340
v -0.01131519 -0.00805923 -0.01160237
v -0.00578163 -0.01570961 -0.00243558
v -0.00594397 -0.01328117 -0.00725681
v -0.00560590 -0.01587095 0.00278341
v -0.01100062 -0.01578643 -0.00225985
v -0.01082489 -0.01589861 0.00295914
v -0.00613351 -0.00283728 -0.01288571
v -0.00613310 0.00069023 -0.01287356
v -0.00612466 0.00238467 -0.01262315
v -0.01135208 -0.00452782 -0.01269783
v -0.01135928 -0.00283728 -0.01291180
v -0.01135208 0.00224627 -0.01269783
v -0.01639535 -0.01326823 -0.00730311
v -0.01654154 -0.00805923 -0.01164499
v -0.02161983 -0.01328117 -0.00729073
v -0.02176795 -0.00805923 -0.01168945
v -0.01809243 -0.01328117 -0.00724596
v -0.01621961 -0.01572521 -0.00208412
v -0.01604388 -0.01588463 0.00313487
v -0.02143860 -0.01583148 -0.00190839
v -0.02126287 -0.01598166 0.00331060
v -0.01657107 -0.00573859 -0.01252209
v -0.01658789 -0.00283728 -0.01302145
v -0.01182958 0.00238467 -0.01268175
v -0.01657919 0.00238467 -0.01276298
v -0.02179006 -0.00650416 -0.01234636
v -0.02181503 -0.00283728 -0.01308781
v -0.02180487 0.00238467 -0.01278614
v -0.02683333 -0.01355330 -0.00695164
v -0.02684513 -0.01328117 -0.00730241
v -0.02699055 -0.00805923 -0.01162112
v -0.03205232 -0.01346428 -0.00677591
v -0.03220796 -0.00805923 -0.01139824
v -0.02665759 -0.01601209 -0.00173265
v -0.02648186 -0.01610859 0.00348633
v -0.03187659 -0.01594091 -0.00155692
v -0.03170085 -0.01601145 0.00366207
v -0.02700906 -0.00683539 -0.01217063
v -0.02703965 -0.00283728 -0.01307929
v -0.02702993 0.00238467 -0.01279051
v -0.03222805 -0.00677977 -0.01199490
v -0.03226104 -0.00283728 -0.01297477
v -0.03225305 0.00238467 -0.01273744
v -0.03727271 -0.01328117 -0.00664203
v -0.03742619 -0.00805923 -0.01120018
v -0.04248806 -0.01328117 -0.00635819
v -0.04264667 -0.00805923 -0.01106872
v -0.03897769 -0.01328117 -0.00654273
v -0.03709557 -0.01571472 -0.00138119
v -0.03691984 -0.01578396 0.00383780
v -0.04231456 -0.01548359 -0.00120546
v -0.04213883 -0.01551002 0.00401353
v -0.03744703 -0.00672692 -0.01181917
v -0.03747936 -0.00283728 -0.01277942
v -0.03746949 0.00238467 -0.01248615
v -0.04266602 -0.00680253 -0.01164344
v -0.04269670 -0.00283728 -0.01255446
v -0.04268193 0.00238467 -0.01211604
v -0.04770929 -0.01288591 -0.00624872
v -0.04785855 -0.00805923 -0.01068158
v -0.05292828 -0.01154509 -0.00607299
v -0.05303950 -0.00805923 -0.00937619
v -0.04753356 -0.01493567 -0.00102973
v -0.04768763 -0.01328117 -0.00560554
v -0.04735782 -0.01480081 0.00418926
v -0.05275255 -0.01360673 -0.00085400
v -0.05280373 -0.01328117 -0.00237421
v -0.05258493 -0.01328117 0.00412381
v -0.04788502 -0.00624198 -0.01146771
v -0.04790759 -0.00283728 -0.01213808
v -0.04789029 0.00238467 -0.01162426
v -0.05231045 -0.00283728 -0.01131870
v -0.05309751 -0.00283728 -0.01109906
v -0.04934185 0.00238467 -0.01141866
v -0.05307965 0.00238467 -0.01056858
v -0.05814726 -0.00844804 -0.00589726
v -0.05816044 -0.00805923 -0.00628869
v -0.05859873 -0.00805923 -0.00588206
v -0.05362242 -0.01328117 -0.00082471
v -0.05797153 -0.01103625 -0.00067827
v -0.05779580 -0.01016132 0.00454072
v -0.06134470 -0.00805923 -0.00056469
v -0.06005261 -0.00805923 0.00461671
v -0.05824452 -0.00283728 -0.00878576
v -0.05822336 0.00238467 -0.00815725
v -0.06167913 -0.00283728 -0.00577833
v -0.06103152 0.00238467 -0.00580014
v -0.06319051 -0.00524313 -0.00050254
v -0.06328151 -0.00283728 -0.00320502
v -0.06302287 -0.00283728 0.00447626
v -0.06325010 0.00238467 -0.00227220
v -0.06303738 0.00238467 0.00404536
v -0.06269991 0.00238467 0.00470585
v -0.06397740 -0.00283728 -0.00047604
v -0.06368531 0.00238467 -0.00048588
v 0.06188951 0.00352468 -0.00993907
v 0.06425407 0.00760661 -0.00479378
v 0.06193229 0.00760661 -0.00866847
v 0.06537772 0.00760661 0.00039329
v 0.06206524 0.01226182 -0.00472008
v 0.06209468 0.01282856 -0.00384559
v 0.06322114 0.01282856 0.00046590
v 0.06224097 0.01428771 0.00049891
v 0.05659450 0.00760661 -0.01202101
v 0.06066173 0.00760661 -0.00989773
v 0.05667052 0.01190983 -0.00976334
v 0.05135028 0.00760661 -0.01259454
v 0.05415644 0.01282856 -0.00967869
v 0.05144681 0.01282856 -0.00972756
v 0.05669425 0.01282856 -0.00905862
v 0.06166184 0.01282856 -0.00470650
v 0.05684625 0.01650429 -0.00454435
v 0.05702198 0.01799838 0.00067464
v 0.05162726 0.01715858 -0.00436862
v 0.05171065 0.01805051 -0.00189196
v 0.05180299 0.01839463 0.00085037
v 0.04614332 0.00760661 -0.01206160
v 0.04920202 0.01282856 -0.00951187
v 0.04623254 0.01238529 -0.00941188
v 0.04093749 0.00760661 -0.01149485
v 0.04101355 0.01156315 -0.00923615
v 0.04624474 0.01282856 -0.00904957
v 0.04104923 0.01282856 -0.00817637
v 0.04640827 0.01659180 -0.00419289
v 0.04887426 0.01805051 0.00094898
v 0.04658400 0.01773384 0.00102610
v 0.04118928 0.01592784 -0.00401716
v 0.04136501 0.01705526 0.00120183
v 0.03571583 0.00760661 -0.01139865
v 0.03579456 0.01128366 -0.00906042
v 0.03048714 0.00760661 -0.01151088
v 0.03057557 0.01140884 -0.00888469
v 0.03584280 0.01282856 -0.00762781
v 0.03062461 0.01282856 -0.00742817
v 0.03597029 0.01540241 -0.00384143
v 0.03614602 0.01642755 0.00137756
v 0.03075130 0.01508996 -0.00366570
v 0.03092703 0.01588103 0.00155329
v 0.02526420 0.00760661 -0.01145279
v 0.02535658 0.01149864 -0.00870895
v 0.02004109 0.00760661 -0.01139901
v 0.02013759 0.01153547 -0.00853322
v 0.02540448 0.01282856 -0.00728645
v 0.02018578 0.01282856 -0.00710204
v 0.02553232 0.01496093 -0.00348996
v 0.02570805 0.01563380 0.00172902
v 0.02031332 0.01494506 -0.00331423
v 0.02048905 0.01570553 0.00190476
v 0.01481835 0.00760661 -0.01133465
v 0.01491860 0.01159674 -0.00835749
v 0.00959727 0.00760661 -0.01122121
v 0.00969961 0.01175911 -0.00818176
v 0.01496396 0.01282856 -0.00701037
v 0.00973755 0.01282856 -0.00705490
v 0.01509433 0.01509502 -0.00313850
v 0.01527006 0.01594959 0.00208049
v 0.00987534 0.01530761 -0.00296277
v 0.01005107 0.01611508 0.00225622
v 0.00437638 0.00760661 -0.01110186
v 0.00448062 0.01185319 -0.00800603
v -0.00083992 0.00760661 -0.01084610
v -0.00073837 0.01176609 -0.00783030
v 0.00451570 0.01282856 -0.00696436
v -0.00070005 0.01282856 -0.00669218
v 0.00465635 0.01532669 -0.00278704
v 0.00483209 0.01608931 0.00243195
v -0.00056264 0.01524804 -0.00261131
v -0.00038691 0.01602615 0.00260768
v -0.00606160 0.00760661 -0.01075032
v -0.00595736 0.01186198 -0.00765457
v -0.01129014 0.00760661 -0.01085831
v -0.01117635 0.01208688 -0.00747884
v -0.00592221 0.01282856 -0.00661058
v -0.01114806 0.01282856 -0.00663880
v -0.00578163 0.01528110 -0.00243558
v -0.00560590 0.01603332 0.00278341
v -0.01100062 0.01534515 -0.00225985
v -0.01082489 0.01603107 0.00295914
v -0.01657107 0.00345064 -0.01252209
v -0.01651597 0.00760661 -0.01088544
v -0.01639535 0.01215008 -0.00730311
v -0.02179006 0.00410778 -0.01234636
v -0.02173967 0.00760661 -0.01084962
v -0.02161434 0.01219867 -0.00712737
v -0.01636855 0.01282856 -0.00650722
v -0.02158907 0.01282856 -0.00637695
v -0.01621961 0.01531705 -0.00208412
v -0.01604388 0.01591202 0.00313487
v -0.02143860 0.01526472 -0.00190839
v -0.02126287 0.01571264 0.00331060
v -0.02700906 0.00464343 -0.01217063
v -0.02696412 0.00760661 -0.01083610
v -0.02683333 0.01229418 -0.00695164
v -0.03222805 0.00491573 -0.01199490
v -0.03218397 0.00760661 -0.01068586
v -0.03205232 0.01214359 -0.00677591
v -0.02681153 0.01282856 -0.00630448
v -0.03202350 0.01282856 -0.00592003
v -0.02665759 0.01521902 -0.00173265
v -0.02648186 0.01545944 0.00348633
v -0.03187659 0.01498364 -0.00155692
v -0.03170085 0.01505255 0.00366207
v -0.03744703 0.00451218 -0.01181917
v -0.03739202 0.00760661 -0.01018541
v -0.03727130 0.01158551 -0.00660018
v -0.04266602 0.00381569 -0.01164344
v -0.04259514 0.00760661 -0.00953852
v -0.04249029 0.01091780 -0.00642445
v -0.03721678 0.01282856 -0.00498108
v -0.04239774 0.01282856 -0.00367596
v -0.03709557 0.01447868 -0.00138119
v -0.03691984 0.01446160 0.00383780
v -0.04231456 0.01378894 -0.00120546
v -0.04213883 0.01367097 0.00401353
v -0.04788502 0.00287232 -0.01146771
v -0.04779761 0.00760661 -0.00887191
v -0.04770929 0.01027478 -0.00624872
v -0.05297623 0.00760661 -0.00749715
v -0.05292828 0.00899670 -0.00607299
v -0.04754809 0.01282856 -0.00146135
v -0.04650021 0.01282856 0.00416038
v -0.04737767 0.01282856 0.00359990
v -0.04735782 0.01263969 0.00418926
v -0.05275255 0.01165501 -0.00085400
v -0.04809487 0.01282856 -0.00101083
v -0.05257681 0.01114944 0.00436499
v -0.04753356 0.01293552 -0.00102973
v -0.05595732 0.00760661 -0.00597100
v -0.05814726 0.00608038 -0.00589726
v -0.05809088 0.00760661 -0.00422300
v -0.05797153 0.00919328 -0.00067827
v -0.05779580 0.00852711 0.00454072
v -0.06010964 0.00760661 -0.00060627
v -0.06319051 0.00360677 -0.00050254
v -0.05903800 0.00760661 0.00458255
v 0.06283300 -0.00805923 0.00570388
v 0.06241670 -0.00859367 0.00571790
v 0.06244587 -0.00805923 0.00658418
v 0.06514702 -0.00283728 0.00562596
v 0.06258138 -0.00283728 0.01060831
v 0.06560101 0.00238467 0.00561068
v 0.06306450 0.00238467 0.01092099
v 0.06259244 -0.00190843 0.01093688
v 0.06261079 0.00238467 0.01148201
v 0.05719771 -0.01243841 0.00589363
v 0.05709480 -0.01328117 0.00283750
v 0.05737344 -0.00841608 0.01111262
v 0.05799159 -0.00805923 0.01109180
v 0.05197872 -0.01374299 0.00606936
v 0.05456942 -0.01328117 0.00598213
v 0.05201108 -0.01328117 0.00703046
v 0.05215445 -0.00985508 0.01128835
v 0.05738297 -0.00805923 0.01139554
v 0.05220142 -0.00805923 0.01268337
v 0.06229020 -0.00283728 0.01094706
v 0.05748403 -0.00283728 0.01439685
v 0.05751633 0.00238467 0.01535631
v 0.05229226 -0.00283728 0.01538116
v 0.05231791 0.00238467 0.01614281
v 0.04675973 -0.01392413 0.00624509
v 0.04679868 -0.01328117 0.00740177
v 0.04693547 -0.00961295 0.01146408
v 0.04154074 -0.01365442 0.00642082
v 0.04156087 -0.01328117 0.00701856
v 0.04171647 -0.00865595 0.01163981
v 0.04697170 -0.00805923 0.01254012
v 0.04172877 -0.00805923 0.01200516
v 0.04704884 -0.00283728 0.01483131
v 0.04706582 0.00238467 0.01533555
v 0.04179857 -0.00283728 0.01407797
v 0.04181419 0.00238467 0.01454189
v 0.03632175 -0.01352287 0.00659655
v 0.03633379 -0.01328117 0.00695398
v 0.03649748 -0.00809205 0.01181554
v 0.03110276 -0.01358042 0.00677228
v 0.03111657 -0.01328117 0.00718223
v 0.03127309 -0.00805923 0.01183088
v 0.03552094 -0.00805923 0.01184842
v 0.03656427 -0.00283728 0.01379893
v 0.03657739 0.00238467 0.01418874
v 0.03133597 -0.00283728 0.01369824
v 0.03134482 0.00238467 0.01396117
v 0.02588378 -0.01371578 0.00694801
v 0.02590215 -0.01328117 0.00749366
v 0.02604706 -0.00805923 0.01179736
v 0.02066478 -0.01395748 0.00712374
v 0.02069323 -0.01328117 0.00796858
v 0.02083399 -0.00805923 0.01214916
v 0.02605951 -0.00730851 0.01216700
v 0.02084051 -0.00766168 0.01234273
v 0.02610896 -0.00283728 0.01363560
v 0.02612026 0.00238467 0.01397136
v 0.02089323 -0.00283728 0.01390847
v 0.02090318 0.00238467 0.01420384
v 0.01544579 -0.01392938 0.00729947
v 0.01547362 -0.01328117 0.00812580
v 0.01562047 -0.00805923 0.01248709
v 0.01022680 -0.01365438 0.00747521
v 0.01024296 -0.01328117 0.00795496
v 0.01039354 -0.00805923 0.01242704
v 0.01040253 -0.00754889 0.01269419
v 0.01567942 -0.00283728 0.01423793
v 0.01568476 0.00238467 0.01439643
v 0.01045270 -0.00283728 0.01418401
v 0.01045899 0.00238467 0.01437092
v 0.00500782 -0.01346697 0.00765094
v 0.00516250 -0.00805923 0.01224480
v -0.00021118 -0.01329098 0.00782667
v -0.00007106 -0.00805923 0.01198799
v 0.00518355 -0.00671748 0.01286993
v -0.00003545 -0.00554422 0.01304566
v 0.00522009 -0.00283728 0.01395518
v 0.00522950 0.00238467 0.01423468
v -0.00001181 -0.00283728 0.01374780
v 0.00000143 0.00238467 0.01414095
v -0.00543224 -0.01328117 0.00794112
v -0.00529587 -0.00805923 0.01199103
v -0.01064915 -0.01333836 0.00817813
v -0.00795654 -0.01328117 0.00808747
v -0.01051161 -0.00805923 0.01226290
v -0.00525444 -0.00480662 0.01322139
v -0.01047342 -0.00460821 0.01339712
v -0.00523927 -0.00283728 0.01367207
v -0.00522645 0.00238467 0.01405257
v -0.01046295 -0.00283728 0.01370808
v -0.01045630 0.00238467 0.01390565
v -0.01586815 -0.01341693 0.00835386
v -0.01573092 -0.00805923 0.01242940
v -0.02108714 -0.01351202 0.00852959
v -0.02107798 -0.01328117 0.00880172
v -0.02094952 -0.00805923 0.01261682
v -0.01569242 -0.00423387 0.01357285
v -0.02091141 -0.00424118 0.01374858
v -0.01568547 -0.00283728 0.01377923
v -0.01568278 0.00238467 0.01385934
v -0.02090461 -0.00283728 0.01395046
v -0.02090400 0.00238467 0.01396851
v -0.02630613 -0.01349721 0.00870532
v -0.02617376 -0.00805923 0.01263676
v -0.03152668 -0.01328117 0.00883465
v -0.03084017 -0.01328117 0.00885799
v -0.03140466 -0.00805923 0.01245856
v -0.02613040 -0.00345746 0.01392431
v -0.03135579 -0.00283728 0.01391017
v -0.02775227 -0.00283728 0.01397892
v -0.02768192 0.00238467 0.01397655
v -0.03135629 0.00238467 0.01389507
v -0.02612755 -0.00283728 0.01400911
v -0.02612771 0.00238467 0.01400413
v -0.03675527 -0.01328117 0.00872521
v -0.03674411 -0.01297417 0.00905679
v -0.03663087 -0.00805923 0.01241988
v -0.04198767 -0.01328117 0.00850262
v -0.04196310 -0.01259800 0.00923252
v -0.04186200 -0.00805923 0.01223483
v -0.03658261 -0.00283728 0.01385301
v -0.03658767 0.00238467 0.01370282
v -0.04181486 -0.00283728 0.01363495
v -0.04182504 0.00238467 0.01333267
v -0.04724851 -0.01328117 0.00743570
v -0.04718209 -0.01138306 0.00940825
v -0.04711586 -0.00805923 0.01137539
v -0.05240108 -0.00850910 0.00958398
v -0.05239323 -0.00805923 0.00981722
v -0.04706629 -0.00283728 0.01284736
v -0.04707554 0.00238467 0.01257272
v -0.05233910 -0.00283728 0.01142468
v -0.05234494 0.00238467 0.01125151
v -0.05771122 -0.00805923 0.00705260
v -0.05297358 -0.00805923 0.00960325
v -0.05763268 -0.00283728 0.00938509
v -0.05688779 -0.00283728 0.00973505
v -0.05660811 0.00238467 0.00972563
v -0.05763705 0.00238467 0.00925544
v 0.06480148 0.00760661 0.00563760
v 0.06256726 0.00760661 0.01018935
v 0.06259244 0.00557157 0.01093688
v 0.06247316 0.01282856 0.00571599
v 0.06194036 0.00760661 0.01095884
v 0.05763428 0.01282856 0.01110383
v 0.05748176 0.00760661 0.01432967
v 0.05228458 0.00760661 0.01515307
v 0.05217960 0.01282856 0.01203525
v 0.05719771 0.01698980 0.00589363
v 0.05190818 0.01805051 0.00397447
v 0.05197872 0.01735140 0.00606936
v 0.05215445 0.01365299 0.01128835
v 0.04807087 0.01282856 0.01142585
v 0.04692605 0.01282856 0.01118446
v 0.04693547 0.01251702 0.01146408
v 0.04166954 0.01282856 0.01024597
v 0.04171647 0.01123652 0.01163981
v 0.04703049 0.00760661 0.01428608
v 0.04177873 0.00760661 0.01348886
v 0.04675973 0.01646770 0.00624509
v 0.04154074 0.01553135 0.00642082
v 0.03641435 0.01282856 0.00934648
v 0.03649748 0.00995136 0.01181554
v 0.03115680 0.01282856 0.00837700
v 0.03127849 0.00855377 0.01199127
v 0.03653647 0.00760661 0.01297336
v 0.03129496 0.00760661 0.01248029
v 0.03632175 0.01472464 0.00659655
v 0.03110276 0.01396302 0.00677228
v 0.02592353 0.01282856 0.00812866
v 0.02605951 0.00812253 0.01216700
v 0.02071369 0.01282856 0.00857627
v 0.02084051 0.00836007 0.01234273
v 0.02606880 0.00760661 0.01244290
v 0.02085359 0.00760661 0.01273115
v 0.02588378 0.01366139 0.00694801
v 0.02066478 0.01384501 0.00712374
v 0.01550329 0.01282856 0.00900720
v 0.01562152 0.00846012 0.01251846
v 0.01028263 0.01282856 0.00913315
v 0.01040253 0.00825949 0.01269419
v 0.01563560 0.00760661 0.01293661
v 0.01041284 0.00760661 0.01300037
v 0.01544579 0.01407795 0.00729947
v 0.01022680 0.01409533 0.00747521
v 0.00505802 0.01282856 0.00914183
v 0.00518355 0.00788849 0.01286993
v -0.00016271 0.01282856 0.00926609
v 0.00081451 0.00760661 0.01301704
v -0.00003545 0.00756070 0.01304566
v 0.00500782 0.01399330 0.00765094
v -0.00021118 0.01396098 0.00782667
v -0.00526236 0.00760661 0.01298619
v -0.00525444 0.00696770 0.01322139
v -0.00538633 0.01282856 0.00930452
v -0.01049478 0.00760661 0.01276285
v -0.01047342 0.00569550 0.01339712
v -0.01061729 0.01282856 0.00912460
v -0.00543017 0.01389628 0.00800240
v -0.01064915 0.01367716 0.00817813
v -0.01572422 0.00760661 0.01262836
v -0.01569242 0.00446622 0.01357285
v -0.01584692 0.01282856 0.00898441
v -0.02094865 0.00760661 0.01264268
v -0.02091141 0.00393061 0.01374858
v -0.02107532 0.01282856 0.00888064
v -0.01586815 0.01341226 0.00835386
v -0.02108714 0.01314663 0.00852959
v -0.02617880 0.00760661 0.01248690
v -0.02613040 0.00294612 0.01392431
v -0.02630613 0.01269278 0.00870532
v -0.02505178 0.01282856 0.00866309
v -0.03141500 0.00760661 0.01215158
v -0.03155490 0.01282856 0.00799667
v -0.03152512 0.01201668 0.00888105
v -0.03665456 0.00760661 0.01171609
v -0.03680650 0.01282856 0.00720387
v -0.03674411 0.01118979 0.00905679
v -0.04189851 0.00760661 0.01115067
v -0.04207281 0.01282856 0.00597413
v -0.04196310 0.01020290 0.00923252
v -0.04715006 0.00760661 0.01035948
v -0.04718209 0.00891647 0.00940825
v -0.05076399 0.00760661 0.00952885
v -0.05242057 0.00760661 0.00900529
v -0.05240108 0.00675379 0.00958398
v -0.05774667 0.00760661 0.00599968
vn 0.68653749 -0.72537577 -0.04996277
vn 0.69722369 -0.58934340 -0.40810966
vn 0.86486890 -0.49946947 -0.05031938
vn 0.90278948 -0.24318098 -0.35473111
vn 0.74190540 -0.31459281 -0.59212139
vn 0.97290093 -0.22676050 -0.04520450
vn 0.70091354 -0.09049218 -0.70748242
vn 0.93447673 0.03502887 -0.35429681
vn 0.71318678 0.02435387 -0.70055086
vn 0.99849596 0.03164203 -0.04477279
vn 0.13087113 -0.69528300 -0.70672080
vn 0.07428521 -0.52143113 -0.85005369
vn 0.36781956 -0.60015391 -0.71029857
vn 0.40325529 -0.81030982 -0.42518604
vn 0.44225188 -0.89615499 -0.03632488
vn 0.40506897 -0.89502732 -0.18666877
vn 0.23992252 -0.87945990 -0.41108087
vn 0.15256608 -0.93208442 -0.32854561
vn 0.16867025 -0.83194337 -0.52860247
vn 0.16022021 -0.98706728 -0.00525945
vn 0.58576378 -0.32517069 -0.74239128
vn 0.31582999 -0.27297893 -0.90869903
vn 0.30713132 0.06567375 -0.94939839
vn 0.01752351 -0.25318501 -0.96725916
vn 0.00260841 0.07887523 -0.99688108
vn 0.03051368 -0.64826905 -0.76079968
vn -0.00807356 -0.46269557 -0.88648047
vn 0.02459162 -0.62324541 -0.78163956
vn 0.00913811 -0.42924516 -0.90314179
vn 0.07773759 -0.93807194 -0.33760613
vn 0.07033943 -0.81808590 -0.57077826
vn 0.06634256 -0.99686113 0.04320368
vn 0.04003422 -0.94551899 -0.32309612
vn 0.03762795 -0.80395749 -0.59349515
vn 0.01754123 -0.99562773 0.09174822
vn -0.06545117 -0.22177482 -0.97289880
vn -0.08683513 0.08584381 -0.99251725
vn -0.01328168 -0.19261328 -0.98118486
vn -0.03512801 0.10937597 -0.99337954
vn 0.03156777 -0.62786992 -0.77767785
vn 0.03356107 -0.42781355 -0.90324372
vn 0.02856652 -0.64305121 -0.76529020
vn 0.03904352 -0.44024461 -0.89702859
vn 0.03295397 -0.95123402 -0.30670487
vn 0.03196621 -0.80022057 -0.59885324
vn 0.02548263 -0.99103757 0.13113036
vn 0.03586867 -0.95258179 -0.30216117
vn 0.02809806 -0.80175578 -0.59699092
vn 0.04706740 -0.98758098 0.14989485
vn 0.03700255 -0.18331600 -0.98235740
vn 0.02873147 0.13290707 -0.99071197
vn 0.03727744 -0.17615481 -0.98365638
vn 0.02006330 0.14717247 -0.98890734
vn 0.01858937 -0.65313162 -0.75701619
vn 0.01418640 -0.44283864 -0.89648909
vn -0.00327276 -0.64955282 -0.76030942
vn -0.00323892 -0.44263683 -0.89669513
vn 0.03637246 -0.95203906 -0.30380696
vn 0.02400360 -0.80132313 -0.59775001
vn 0.05455923 -0.98598574 0.15765599
vn 0.01011045 -0.95140732 -0.30776922
vn 0.00045691 -0.79731293 -0.60356597
vn 0.02648213 -0.98706669 0.15810771
vn 0.00398932 -0.15688842 -0.98760828
vn -0.00695399 0.15956617 -0.98716274
vn 0.00079883 -0.15245444 -0.98831018
vn -0.00292788 0.16310644 -0.98660413
vn -0.00613548 -0.65763194 -0.75331440
vn 0.01752228 -0.45723669 -0.88917241
vn -0.00560050 -0.69015324 -0.72364158
vn 0.02456810 -0.47057347 -0.88201872
vn -0.02726573 -0.95327342 -0.30087598
vn -0.01167718 -0.80699518 -0.59044257
vn -0.02369895 -0.98648294 0.16214120
vn -0.03331452 -0.96044297 -0.27647682
vn -0.01303292 -0.83250075 -0.55387061
vn -0.03551992 -0.98451070 0.17168875
vn 0.02081957 -0.14840915 -0.98870687
vn 0.00182384 0.17425733 -0.98469846
vn 0.02222312 -0.12552851 -0.99184108
vn -0.00241228 0.19760922 -0.98027791
vn -0.01942757 -0.71453531 -0.69932958
vn -0.01367400 -0.48452978 -0.87466789
vn -0.00728646 -0.71025626 -0.70390549
vn -0.03089707 -0.47304372 -0.88049702
vn -0.01487179 -0.96516172 -0.26123110
vn -0.01771831 -0.84785853 -0.52992638
vn -0.00818232 -0.98398784 0.17804767
vn 0.01255831 -0.96556327 -0.25986507
vn 0.00188509 -0.84491933 -0.53489044
vn 0.01242311 -0.98081207 0.19455935
vn -0.02209972 -0.22449071 -0.97422560
vn -0.02659598 -0.04804967 -0.99849080
vn -0.02956201 0.10926249 -0.99357325
vn -0.03774407 0.27037026 -0.96201627
vn -0.04845946 -0.18573771 -0.98140368
vn -0.04477627 -0.04371331 -0.99804020
vn -0.04187118 0.08360846 -0.99561862
vn -0.03940708 0.25511533 -0.96610727
vn 0.01373406 -0.70300802 -0.71104930
vn 0.00308462 -0.45608127 -0.88993279
vn -0.00504825 -0.78308519 -0.62189396
vn 0.01243893 -0.47400479 -0.88043440
vn 0.01308256 -0.96835069 -0.24925045
vn 0.01580275 -0.84103254 -0.54075367
vn 0.01471784 -0.97679599 0.21366559
vn -0.00480585 -0.97120322 -0.23820415
vn 0.01142246 -0.97668252 0.21438467
vn -0.01026882 -0.11837947 -0.99291533
vn -0.01770019 0.07436650 -0.99707388
vn -0.00976012 0.24313769 -0.96994268
vn 0.02301132 -0.21123036 -0.97716540
vn 0.00830685 -0.04462746 -0.99896916
vn 0.00398990 0.17626634 -0.98433442
vn -0.01215618 -0.78900969 -0.61426048
vn 0.00858037 -0.50669605 -0.86208207
vn 0.00910402 -0.78974262 -0.61337077
vn 0.00073004 -0.52197264 -0.85296192
vn -0.00213597 -0.79348348 -0.60858804
vn -0.00261793 -0.97180022 -0.23579118
vn 0.01373661 -0.97859097 0.20535584
vn 0.01904529 -0.97197496 -0.23431165
vn 0.02637235 -0.97766882 0.20849026
vn 0.01293627 -0.26168590 -0.96506639
vn 0.01239798 -0.05762947 -0.99826106
vn 0.02861696 0.19568109 -0.98024996
vn 0.01065223 0.13533363 -0.99074282
vn -0.00167106 -0.29734600 -0.95476833
vn 0.00304886 -0.06876054 -0.99762853
vn 0.00238489 0.15125591 -0.98849176
vn -0.01063643 -0.85339007 -0.52116432
vn -0.02059655 -0.71857685 -0.69514250
vn -0.02368557 -0.52786756 -0.84899637
vn -0.04276173 -0.79812470 -0.60097288
vn -0.03543659 -0.53902959 -0.84154106
vn 0.00056215 -0.97381482 -0.22734200
vn 0.00751498 -0.97484221 0.22276935
vn -0.03563948 -0.97388742 -0.22421667
vn -0.02043739 -0.97260976 0.23154390
vn -0.02582384 -0.31893065 -0.94742618
vn -0.01445421 -0.08498175 -0.99627766
vn -0.00612812 0.16019527 -0.98706632
vn -0.03297736 -0.33138285 -0.94291988
vn -0.02857559 -0.09890525 -0.99468648
vn -0.03153152 0.16703244 -0.98544707
vn -0.03920792 -0.79829838 -0.60098456
vn -0.02924474 -0.54503529 -0.83790291
vn -0.04690510 -0.81430064 -0.57854505
vn -0.04418529 -0.54782807 -0.83542329
vn -0.03459667 -0.80603074 -0.59086168
vn -0.04838291 -0.97470606 -0.21819073
vn -0.03747541 -0.97306972 0.22744429
vn -0.06949716 -0.97802257 -0.19657570
vn -0.07576280 -0.97091786 0.22710903
vn -0.03292350 -0.32992331 -0.94343344
vn -0.04123431 -0.09435249 -0.99468454
vn -0.05585385 0.18293752 -0.98153666
vn -0.04495732 -0.32429231 -0.94488800
vn -0.05955796 -0.07312957 -0.99554252
vn -0.07869908 0.20136872 -0.97634886
vn -0.14253886 -0.76771085 -0.62474213
vn -0.13706084 -0.53948756 -0.83076320
vn -0.33507970 -0.76782644 -0.54604410
vn -0.32094488 -0.50216284 -0.80301112
vn -0.17869398 -0.97324005 -0.14447236
vn -0.15375742 -0.88905931 -0.43119857
vn -0.19734899 -0.95238949 0.23239545
vn -0.29904100 -0.95239907 -0.05924947
vn -0.34206543 -0.88982912 -0.30198573
vn -0.38044401 -0.86417462 0.32933961
vn -0.14835448 -0.30071488 -0.94210483
vn -0.13077868 -0.05197759 -0.99004811
vn -0.11461900 0.20207318 -0.97264018
vn -0.24014012 -0.09377000 -0.96619869
vn -0.33574320 -0.10296617 -0.93630896
vn -0.18899316 0.28597773 -0.93941382
vn -0.30605874 0.30022622 -0.90343359
vn -0.51498272 -0.70202680 -0.49188532
vn -0.51818546 -0.50425383 -0.69080525
vn -0.66728315 -0.53761889 -0.51546012
vn -0.42491277 -0.90338795 -0.05778716
vn -0.56481883 -0.82008252 -0.09189310
vn -0.52763444 -0.76140135 0.37665618
vn -0.76801951 -0.63229006 -0.10176104
vn -0.71572923 -0.55399068 0.42523640
vn -0.53939829 -0.12697347 -0.83242250
vn -0.51196645 0.28569699 -0.81010344
vn -0.76842652 -0.17457266 -0.61566636
vn -0.72981726 0.30616708 -0.61125157
vn -0.88592838 -0.45749672 -0.07633908
vn -0.88823592 -0.19042027 -0.41806348
vn -0.85789582 -0.19387222 0.47584485
vn -0.87174599 0.30143601 -0.38625803
vn -0.90807263 0.29603594 0.29625465
vn -0.77174174 0.26567615 0.57778099
vn -0.99058212 -0.13288743 -0.03298464
vn -0.97576395 0.21392988 -0.04602961
vn 0.69047202 0.13061378 -0.71146921
vn 0.89388280 0.27232876 -0.35610474
vn 0.72824863 0.33559881 -0.59751768
vn 0.96312229 0.26473773 -0.04805616
vn 0.74755890 0.46602591 -0.47326055
vn 0.75020612 0.59716740 -0.28386945
vn 0.87874648 0.47478550 -0.04881954
vn 0.70695863 0.70552357 -0.04945695
vn 0.28228622 0.32298262 -0.90332537
vn 0.55636987 0.34704836 -0.75499007
vn 0.35000338 0.51154196 -0.78474357
vn -0.00192095 0.35138881 -0.93622765
vn 0.08605154 0.63569019 -0.76713305
vn -0.02991540 0.63841540 -0.76911042
vn 0.36470331 0.63720692 -0.67893949
vn 0.62151144 0.61293874 -0.48788281
vn 0.32804701 0.83585600 -0.44014759
vn 0.34726594 0.93661645 -0.04643270
vn -0.01038231 0.87811841 -0.47833070
vn -0.01911205 0.97170459 -0.23542499
vn -0.02067289 0.99976309 -0.00681094
vn -0.09642869 0.36603554 -0.92559143
vn -0.08973958 0.64722745 -0.75699633
vn -0.11435333 0.55980392 -0.82069659
vn -0.06421119 0.38825359 -0.91931282
vn -0.08546492 0.56703744 -0.81924617
vn -0.11218153 0.71347304 -0.69164408
vn -0.09151523 0.72662849 -0.68090822
vn -0.12752290 0.89770318 -0.42174271
vn -0.15531204 0.98783381 0.00790743
vn -0.13249349 0.99106007 0.01566588
vn -0.11450463 0.90832017 -0.40229736
vn -0.12875597 0.99111676 0.03330866
vn 0.00106655 0.42036380 -0.90735502
vn -0.03276775 0.60320330 -0.79691408
vn 0.00690124 0.44200818 -0.89698447
vn -0.01102143 0.64081352 -0.76761746
vn -0.05511481 0.76157385 -0.64573030
vn -0.02179834 0.79495693 -0.60627413
vn -0.09238027 0.92160454 -0.37697608
vn -0.11150640 0.99209648 0.05754038
vn -0.04713846 0.93871638 -0.34145208
vn -0.07191471 0.99308146 0.09283044
vn -0.01202733 0.45166634 -0.89210586
vn -0.01901368 0.65623188 -0.75431969
vn -0.01122938 0.46023691 -0.88772512
vn -0.01768628 0.66693005 -0.74491040
vn -0.01743754 0.80769955 -0.58933638
vn -0.01539038 0.81307328 -0.58195788
vn -0.02032026 0.94806842 -0.31741669
vn -0.01108206 0.99401228 0.10870502
vn 0.00123988 0.94661302 -0.32236975
vn 0.03085701 0.99491116 0.09591471
vn -0.01272458 0.46970580 -0.88273130
vn -0.00946559 0.66835547 -0.74378180
vn -0.01584255 0.47470259 -0.88000367
vn -0.00902453 0.66098466 -0.75034515
vn 0.00112670 0.80579371 -0.59219526
vn -0.00429564 0.79572186 -0.60564698
vn 0.02357300 0.94089916 -0.33786547
vn 0.03997070 0.99478912 0.09379204
vn 0.00539253 0.94042690 -0.33995319
vn 0.01685904 0.99413999 0.10677759
vn -0.03206508 0.47343057 -0.88024731
vn -0.02548711 0.66324301 -0.74796999
vn -0.02967181 0.47214710 -0.88102026
vn -0.02501772 0.66218281 -0.74892459
vn -0.02091967 0.79824037 -0.60197565
vn -0.02117776 0.80097736 -0.59831995
vn -0.01511773 0.94205458 -0.33511882
vn -0.00515262 0.99329024 0.11553332
vn -0.01539575 0.94212480 -0.33490870
vn -0.00049642 0.99325648 0.11593670
vn -0.00043633 0.46938272 -0.88299472
vn -0.00341682 0.66613171 -0.74582630
vn 0.00991373 0.47564512 -0.87958140
vn -0.00592093 0.67996154 -0.73322387
vn -0.00401219 0.80367718 -0.59505201
vn -0.00473835 0.81244369 -0.58302041
vn -0.00252034 0.94332538 -0.33185973
vn 0.00463164 0.99248282 0.12229638
vn -0.01015272 0.94727304 -0.32026661
vn -0.01137895 0.98987017 0.14151882
vn 0.01464825 0.29164287 -0.95641511
vn 0.00067251 0.50197229 -0.86488344
vn -0.01499810 0.69123633 -0.72247311
vn 0.00249653 0.31961108 -0.94754553
vn -0.00358744 0.51929740 -0.85458606
vn -0.01326198 0.69973914 -0.71427534
vn -0.01565383 0.82132236 -0.57024954
vn -0.01310304 0.82757971 -0.56119527
vn -0.02001807 0.95217018 -0.30491182
vn -0.02548186 0.98659049 0.16121375
vn -0.02194801 0.95846425 -0.28436694
vn -0.03688600 0.98231611 0.18356055
vn -0.00602172 0.33920029 -0.94069490
vn -0.01293696 0.53308579 -0.84596228
vn -0.02612832 0.70760128 -0.70612870
vn -0.04301029 0.36435474 -0.93026649
vn -0.05460776 0.55075618 -0.83287792
vn -0.07007046 0.71818775 -0.69231242
vn -0.02316909 0.83252709 -0.55349963
vn -0.06965007 0.84007827 -0.53797525
vn -0.03373936 0.96646208 -0.25458340
vn -0.04951138 0.97624449 0.21093914
vn -0.07514345 0.97139345 -0.22527367
vn -0.07844836 0.97151040 0.22363676
vn -0.07285332 0.38673708 -0.91930780
vn -0.08918448 0.57084480 -0.81619994
vn -0.10627367 0.72961726 -0.67554761
vn -0.09164814 0.40020241 -0.91183258
vn -0.10140099 0.58845882 -0.80214342
vn -0.11658655 0.75019296 -0.65085951
vn -0.10893599 0.85245763 -0.51132078
vn -0.14365963 0.87804613 -0.45650509
vn -0.11275093 0.97281928 -0.20226192
vn -0.11217965 0.96788871 0.22496037
vn -0.15260016 0.97464594 -0.16364130
vn -0.15839403 0.96374672 0.21471745
vn -0.13406945 0.39683562 -0.90804563
vn -0.15506045 0.59242008 -0.79056607
vn -0.17647501 0.78742873 -0.59060356
vn -0.28152238 0.59417717 -0.75345778
vn -0.28862102 0.78322050 -0.55069371
vn -0.24115036 0.90229539 -0.35736472
vn -0.16969734 0.92960295 0.32717146
vn -0.16581011 0.97547302 0.14477357
vn -0.20502573 0.87238864 0.44373698
vn -0.33836013 0.92532171 -0.17114952
vn -0.24456977 0.95198808 -0.18413129
vn -0.32765978 0.87604464 0.35381471
vn -0.17270011 0.98020586 -0.09680467
vn -0.40135407 0.68283697 -0.61044949
vn -0.54404629 0.54219452 -0.64034267
vn -0.53617302 0.72044386 -0.43986264
vn -0.50331219 0.85509231 -0.12447487
vn -0.48640597 0.81637804 0.31134567
vn -0.71170608 0.69225083 -0.11942882
vn -0.85180925 0.51753995 -0.08107650
vn -0.66851036 0.63979564 0.37915094
vn 0.83654846 -0.49147212 0.24216076
vn 0.67360311 -0.68832551 0.26919665
vn 0.69708156 -0.54620192 0.46447903
vn 0.93361704 -0.22962254 0.27501402
vn 0.78441930 -0.31299547 0.53546261
vn 0.96262978 0.02836764 0.26933101
vn 0.84845929 0.01560295 0.52903061
vn 0.75226180 -0.13846811 0.64414965
vn 0.68698588 0.01039889 0.72659636
vn 0.42342993 -0.81886357 0.38751716
vn 0.41855390 -0.89791475 0.13624146
vn 0.31143331 -0.68281576 0.66088723
vn 0.48771523 -0.57261482 0.65897354
vn 0.11008298 -0.94203133 0.31695221
vn 0.24022220 -0.88704278 0.39426945
vn 0.13128551 -0.83422897 0.53556152
vn 0.11246645 -0.69978984 0.70543991
vn 0.29152983 -0.53965772 0.78979738
vn 0.07988010 -0.53018248 0.84411238
vn 0.63575247 -0.33081616 0.69740911
vn 0.37656322 -0.30623232 0.87431225
vn 0.38372932 0.00843893 0.92340706
vn 0.02820226 -0.30032527 0.95341983
vn -0.00063614 0.02090856 0.99978119
vn 0.01710022 -0.92550340 0.37835306
vn -0.00850323 -0.81508689 0.57927632
vn -0.04679081 -0.65823954 0.75135300
vn -0.01562390 -0.89870437 0.43827657
vn -0.02940110 -0.78799242 0.61498254
vn -0.06274111 -0.61334346 0.78732037
vn -0.05963947 -0.48005822 0.87520697
vn -0.06267327 -0.44406143 0.89380172
vn -0.11128377 -0.25707675 0.95996222
vn -0.14590037 0.04264157 0.98837988
vn -0.09249188 -0.23349207 0.96794974
vn -0.10795598 0.05381126 0.99269827
vn 0.00941871 -0.88468347 0.46609703
vn 0.00732124 -0.76430652 0.64481156
vn -0.01505794 -0.52826831 0.84894396
vn 0.03490357 -0.87216286 0.48796895
vn 0.02795348 -0.73902745 0.67309511
vn -0.00030773 -0.51258719 0.85863512
vn 0.00489629 -0.51925580 0.85460484
vn -0.03526677 -0.21383734 0.97623247
vn -0.05735782 0.07122309 0.99580990
vn -0.00893238 -0.19594803 0.98057360
vn -0.02387077 0.10374149 0.99431780
vn 0.05017765 -0.85563384 0.51514361
vn 0.05283152 -0.71334148 0.69882241
vn 0.03286541 -0.54695886 0.83651412
vn 0.03509577 -0.85391434 0.51922884
vn 0.04028573 -0.70787018 0.70519279
vn 0.05281385 -0.53726655 0.84175730
vn 0.02670593 -0.37672961 0.92593822
vn 0.05681046 -0.37530360 0.92515933
vn 0.01974086 -0.19019327 0.98154817
vn 0.02247069 0.11071164 0.99359851
vn 0.05611929 -0.18558539 0.98102430
vn 0.04404754 0.11194804 0.99273735
vn -0.00729117 -0.85614665 0.51668148
vn 0.00364676 -0.71612954 0.69795787
vn 0.02474644 -0.49008973 0.87132065
vn -0.02031179 -0.85666580 0.51547176
vn -0.01927749 -0.72172607 0.69191029
vn -0.02089530 -0.55833789 0.82935046
vn -0.01508933 -0.38552158 0.92257543
vn 0.02427342 -0.17620570 0.98405404
vn 0.01592040 0.12063714 0.99256900
vn -0.02059562 -0.16858770 0.98547146
vn -0.01395750 0.11278575 0.99352129
vn -0.01358717 -0.79669886 0.60422373
vn -0.03587829 -0.53977564 0.84104400
vn 0.00386601 -0.77735675 0.62904812
vn -0.01830459 -0.51616960 0.85629077
vn -0.03608369 -0.34901473 0.93642228
vn -0.02430821 -0.31681849 0.94817465
vn -0.03665548 -0.16332485 0.98589115
vn -0.01860468 0.09468646 0.99533328
vn -0.02491335 -0.16171154 0.98652354
vn -0.01562887 0.06742819 0.99760171
vn 0.02455057 -0.77371166 0.63306203
vn 0.02160835 -0.49366618 0.86938299
vn 0.03530294 -0.77519912 0.63072976
vn 0.03571772 -0.77202205 0.63459137
vn 0.03334700 -0.47112451 0.88143614
vn 0.00843622 -0.28524474 0.95841759
vn 0.01859007 -0.24416771 0.96955482
vn -0.00468140 -0.14138875 0.98994308
vn -0.01938367 0.05052996 0.99853442
vn 0.00890878 -0.10174218 0.99477091
vn -0.01289733 0.05193881 0.99856698
vn 0.03466753 -0.77788428 0.62745056
vn 0.02990982 -0.45339740 0.89080649
vn 0.02471181 -0.84081086 0.54076467
vn 0.02624122 -0.67947148 0.73323250
vn 0.01755226 -0.44323976 0.89623124
vn 0.02355348 -0.21655655 0.97598591
vn 0.01860208 -0.21548743 0.97632942
vn 0.02186204 -0.07936523 0.99660585
vn 0.00853333 0.05813543 0.99827223
vn 0.02159742 -0.07239382 0.99714226
vn 0.01532732 0.06739488 0.99760864
vn 0.00122804 -0.76697821 0.64167197
vn -0.01382251 -0.43085090 0.90231726
vn -0.01351968 -0.75074156 0.66045766
vn -0.01803715 -0.74830892 0.66310513
vn -0.01704015 -0.42270176 0.90610864
vn -0.02384799 -0.20742084 0.97796108
vn -0.01488723 -0.13368936 0.99091146
vn -0.02880970 -0.12527146 0.99170412
vn -0.03432115 0.14333799 0.98907850
vn -0.02543414 0.16438188 0.98606881
vn -0.00360447 -0.06741640 0.99771842
vn -0.00486882 0.07042962 0.99750487
vn -0.01993506 -0.81770112 0.57529773
vn -0.01460483 -0.65371082 0.75660350
vn -0.01819436 -0.41718236 0.90864066
vn -0.07422171 -0.81338270 0.57697463
vn -0.07497161 -0.64713485 0.75868026
vn -0.08313601 -0.40328637 0.91128947
vn -0.02885446 -0.12259351 0.99203742
vn -0.05416660 0.19208545 0.97988222
vn -0.09683256 -0.10503798 0.98974263
vn -0.10875637 0.21714753 0.97006134
vn -0.22465012 -0.79559045 0.56264390
vn -0.21910419 -0.61330833 0.75884534
vn -0.20088075 -0.38382842 0.90128945
vn -0.34052336 -0.56435602 0.75202801
vn -0.29339870 -0.35840827 0.88626221
vn -0.20323800 -0.10502180 0.97348073
vn -0.18931048 0.21404362 0.95830417
vn -0.30027688 -0.12052916 0.94620638
vn -0.28008573 0.19267976 0.94043952
vn -0.51774111 -0.50920914 0.68749559
vn -0.38974529 -0.44201108 0.80791387
vn -0.54138880 -0.16778908 0.82385981
vn -0.39570972 -0.15896396 0.90451328
vn -0.38810917 0.23397599 0.89141826
vn -0.52488258 0.24579420 0.81491318
vn 0.92677796 0.26444664 0.26674069
vn 0.78568150 0.33633153 0.51921641
vn 0.76313015 0.16102028 0.62586328
vn 0.74940942 0.57397074 0.33006532
vn 0.65404414 0.35240280 0.66935680
vn 0.37374820 0.62125264 0.68873612
vn 0.36166293 0.33247477 0.87101117
vn -0.00086342 0.34992956 0.93677562
vn 0.00739501 0.59136391 0.80637091
vn 0.34520282 0.86057381 0.37449664
vn -0.03428548 0.97550107 0.21730664
vn -0.02875493 0.89331960 0.44850110
vn -0.00123856 0.74592442 0.66602945
vn -0.13113501 0.66036264 0.73940841
vn -0.13005630 0.73256570 0.66815631
vn -0.12204668 0.57854562 0.80646734
vn -0.12001446 0.73390122 0.66856976
vn -0.11628444 0.56001400 0.82028181
vn -0.14053223 0.34475040 0.92811522
vn -0.11260454 0.32905738 0.93757211
vn -0.13978916 0.89441919 0.42482150
vn -0.12870123 0.88972602 0.43797671
vn -0.12078162 0.73534058 0.66684783
vn -0.11315874 0.54652980 0.82975917
vn -0.07692855 0.73756548 0.67087940
vn -0.06633919 0.54863284 0.83342733
vn -0.08468124 0.34117707 0.93617696
vn -0.04639849 0.36890299 0.92830909
vn -0.11402604 0.88630588 0.44884291
vn -0.07281810 0.88050052 0.46841899
vn 0.01235070 0.74132487 0.67103271
vn 0.01760878 0.56119346 0.82749733
vn 0.05845387 0.73689919 0.67347066
vn 0.04930185 0.55359974 0.83132224
vn 0.02221872 0.37913915 0.92507288
vn 0.04307031 0.36808106 0.92879561
vn 0.00592486 0.88255928 0.47016381
vn 0.04863383 0.88691648 0.45936249
vn 0.03359438 0.72411508 0.68886048
vn 0.02526779 0.53643915 0.84356066
vn 0.00870224 0.71242739 0.70169187
vn 0.00155544 0.52228845 0.85276747
vn 0.02305466 0.35449320 0.93477433
vn 0.00114283 0.33718799 0.94143664
vn 0.03415329 0.88367605 0.46685136
vn 0.01346183 0.87316404 0.48724054
vn 0.00496958 0.70130620 0.71284284
vn -0.00560434 0.43362787 0.90107461
vn 0.00987589 0.69085711 0.72292387
vn 0.00456829 0.41215041 0.91110437
vn 0.00576207 0.40181188 0.91570411
vn 0.00474091 0.86669892 0.49880908
vn 0.00902834 0.86586134 0.50020259
vn -0.02068086 0.46525991 0.88493249
vn -0.01672393 0.26784202 0.96331769
vn -0.00927438 0.68009049 0.73306952
vn -0.03075145 0.44899552 0.89300469
vn -0.02390821 0.23449014 0.97182445
vn -0.01979958 0.66397183 0.74749541
vn -0.00343338 0.85592089 0.51709539
vn -0.01778638 0.83572024 0.54886732
vn -0.01254486 0.43736485 0.89919665
vn -0.00430111 0.21122655 0.97742767
vn -0.01464480 0.65873410 0.75223328
vn -0.01585447 0.44126833 0.89723514
vn 0.00027728 0.21757805 0.97604288
vn -0.02821438 0.66497331 0.74633400
vn -0.02141809 0.82592402 0.56337446
vn -0.03523951 0.82658849 0.56170246
vn -0.04187818 0.44859283 0.89275455
vn -0.02925267 0.22182404 0.97464782
vn -0.05378003 0.75130637 0.65775865
vn -0.04934469 0.76228004 0.64536366
vn -0.05590326 0.46131989 0.88547094
vn -0.07127574 0.81716674 0.57197753
vn -0.07121374 0.66681986 0.74180852
vn -0.07876505 0.48094147 0.87320752
vn -0.10358260 0.82591744 0.55419403
vn -0.09275363 0.67158739 0.73509669
vn -0.11053247 0.48856421 0.86549846
vn -0.15887974 0.84417862 0.51197625
vn -0.12843853 0.68303430 0.71900465
vn -0.16323718 0.48226541 0.86068211
vn -0.18528324 0.68835209 0.70131414
vn -0.22061563 0.58056388 0.78375655
vn -0.30482373 0.64685832 0.69903992
vn -0.29731574 0.43484909 0.85000566
vn -0.51455225 0.58708981 0.62494922
f 1//1 2//2 3//3
f 4//4 2//2 5//5
f 2//2 4//4 3//3
f 3//3 4//4 6//6
f 5//5 7//7 4//4
f 8//8 4//4 7//7
f 9//9 8//8 7//7
f 4//4 8//8 6//6
f 6//6 8//8 10//10
f 11//11 12//12 13//13
f 2//2 14//14 13//13
f 15//15 16//16 1//1
f 16//16 14//14 1//1
f 2//2 1//1 14//14
f 17//17 18//18 19//19
f 15//15 20//20 16//16
f 16//16 20//20 17//17
f 17//17 20//20 18//18
f 19//19 11//11 17//17
f 17//17 11//11 14//14
f 13//13 14//14 11//11
f 17//17 14//14 16//16
f 21//21 13//13 22//22
f 21//21 22//22 7//7
f 22//22 23//23 7//7
f 9//9 7//7 23//23
f 13//13 12//12 22//22
f 22//22 12//12 24//24
f 22//22 24//24 23//23
f 23//23 24//24 25//25
f 5//5 2//2 21//21
f 13//13 21//21 2//2
f 21//21 7//7 5//5
f 26//26 27//27 11//11
f 12//12 11//11 27//27
f 28//28 29//29 26//26
f 27//27 26//26 29//29
f 18//18 30//30 19//19
f 19//19 30//30 31//31
f 32//32 30//30 20//20
f 18//18 20//20 30//30
f 19//19 31//31 11//11
f 11//11 31//31 26//26
f 30//30 33//33 31//31
f 31//31 33//33 34//34
f 35//35 33//33 32//32
f 30//30 32//32 33//33
f 31//31 34//34 26//26
f 26//26 34//34 28//28
f 27//27 36//36 12//12
f 24//24 12//12 36//36
f 36//36 37//37 24//24
f 25//25 24//24 37//37
f 29//29 38//38 27//27
f 36//36 27//27 38//38
f 38//38 39//39 36//36
f 37//37 36//36 39//39
f 40//40 41//41 28//28
f 29//29 28//28 41//41
f 42//42 43//43 40//40
f 41//41 40//40 43//43
f 33//33 44//44 34//34
f 34//34 44//44 45//45
f 46//46 44//44 35//35
f 33//33 35//35 44//44
f 34//34 45//45 28//28
f 28//28 45//45 40//40
f 44//44 47//47 45//45
f 45//45 47//47 48//48
f 49//49 47//47 46//46
f 44//44 46//46 47//47
f 48//48 42//42 45//45
f 40//40 45//45 42//42
f 29//29 41//41 38//38
f 38//38 41//41 50//50
f 38//38 50//50 39//39
f 39//39 50//50 51//51
f 41//41 43//43 50//50
f 50//50 43//43 52//52
f 50//50 52//52 51//51
f 51//51 52//52 53//53
f 54//54 55//55 42//42
f 43//43 42//42 55//55
f 56//56 57//57 54//54
f 55//55 54//54 57//57
f 47//47 58//58 48//48
f 48//48 58//58 59//59
f 60//60 58//58 49//49
f 47//47 49//49 58//58
f 48//48 59//59 42//42
f 42//42 59//59 54//54
f 58//58 61//61 59//59
f 59//59 61//61 62//62
f 63//63 61//61 60//60
f 58//58 60//60 61//61
f 59//59 62//62 54//54
f 54//54 62//62 56//56
f 43//43 55//55 52//52
f 52//52 55//55 64//64
f 52//52 64//64 53//53
f 53//53 64//64 65//65
f 55//55 57//57 64//64
f 64//64 57//57 66//66
f 64//64 66//66 65//65
f 65//65 66//66 67//67
f 56//56 68//68 57//57
f 57//57 68//68 69//69
f 68//68 70//70 69//69
f 69//69 70//70 71//71
f 61//61 72//72 62//62
f 62//62 72//72 73//73
f 63//63 74//74 61//61
f 61//61 74//74 72//72
f 73//73 68//68 62//62
f 56//56 62//62 68//68
f 72//72 75//75 73//73
f 73//73 75//75 76//76
f 74//74 77//77 72//72
f 72//72 77//77 75//75
f 76//76 70//70 73//73
f 68//68 73//73 70//70
f 57//57 69//69 66//66
f 66//66 69//69 78//78
f 78//78 79//79 66//66
f 67//67 66//66 79//79
f 69//69 71//71 78//78
f 78//78 71//71 80//80
f 80//80 81//81 78//78
f 79//79 78//78 81//81
f 70//70 82//82 71//71
f 71//71 82//82 83//83
f 84//84 85//85 82//82
f 83//83 82//82 85//85
f 75//75 86//86 76//76
f 76//76 86//86 87//87
f 77//77 88//88 75//75
f 75//75 88//88 86//86
f 87//87 82//82 76//76
f 70//70 76//76 82//82
f 89//89 90//90 86//86
f 87//87 86//86 90//90
f 91//91 89//89 88//88
f 86//86 88//88 89//89
f 90//90 84//84 87//87
f 82//82 87//87 84//84
f 80//80 92//92 93//93
f 83//83 92//92 71//71
f 80//80 71//71 92//92
f 80//80 93//93 94//94
f 94//94 81//81 80//80
f 81//81 94//94 95//95
f 92//92 96//96 93//93
f 93//93 96//96 97//97
f 83//83 85//85 92//92
f 92//92 85//85 96//96
f 97//97 98//98 93//93
f 94//94 93//93 98//98
f 98//98 99//99 94//94
f 95//95 94//94 99//99
f 100//100 101//101 84//84
f 85//85 84//84 101//101
f 102//102 103//103 100//100
f 101//101 100//100 103//103
f 89//89 104//104 90//90
f 90//90 104//104 105//105
f 106//106 104//104 91//91
f 89//89 91//91 104//104
f 90//90 105//105 84//84
f 84//84 105//105 100//100
f 104//104 107//107 105//105
f 105//105 107//107 102//102
f 108//108 107//107 106//106
f 104//104 106//106 107//107
f 105//105 102//102 100//100
f 96//96 109//109 97//97
f 85//85 101//101 96//96
f 96//96 101//101 109//109
f 109//109 110//110 97//97
f 98//98 97//97 110//110
f 110//110 111//111 98//98
f 99//99 98//98 111//111
f 112//112 113//113 109//109
f 103//103 112//112 101//101
f 109//109 101//101 112//112
f 109//109 113//113 110//110
f 110//110 113//113 114//114
f 110//110 114//114 111//111
f 102//102 115//115 103//103
f 103//103 115//115 116//116
f 117//117 118//118 119//119
f 115//115 119//119 116//116
f 116//116 119//119 118//118
f 107//107 120//120 102//102
f 102//102 120//120 115//115
f 108//108 121//121 107//107
f 107//107 121//121 120//120
f 122//122 119//119 120//120
f 115//115 120//120 119//119
f 119//119 122//122 117//117
f 123//123 122//122 121//121
f 120//120 121//121 122//122
f 124//124 125//125 112//112
f 113//113 112//112 125//125
f 116//116 124//124 103//103
f 112//112 103//103 124//124
f 125//125 126//126 113//113
f 114//114 113//113 126//126
f 126//126 125//125 127//127
f 128//128 129//129 124//124
f 125//125 124//124 129//129
f 118//118 128//128 116//116
f 124//124 116//116 128//128
f 129//129 130//130 125//125
f 127//127 125//125 130//130
f 117//117 131//131 132//132
f 117//117 132//132 118//118
f 118//118 132//132 133//133
f 131//131 134//134 132//132
f 134//134 135//135 132//132
f 133//133 132//132 135//135
f 136//136 131//131 122//122
f 117//117 122//122 131//131
f 137//137 136//136 123//123
f 122//122 123//123 136//136
f 136//136 138//138 131//131
f 131//131 138//138 134//134
f 137//137 139//139 136//136
f 136//136 139//139 138//138
f 140//140 141//141 128//128
f 129//129 128//128 141//141
f 133//133 140//140 118//118
f 128//128 118//118 140//140
f 141//141 142//142 129//129
f 130//130 129//129 142//142
f 140//140 143//143 141//141
f 141//141 143//143 144//144
f 133//133 135//135 140//140
f 140//140 135//135 143//143
f 144//144 145//145 141//141
f 142//142 141//141 145//145
f 146//146 147//147 134//134
f 135//135 134//134 147//147
f 148//148 149//149 150//150
f 146//146 150//150 147//147
f 147//147 150//150 149//149
f 138//138 151//151 134//134
f 134//134 151//151 146//146
f 139//139 152//152 138//138
f 138//138 152//152 151//151
f 153//153 150//150 151//151
f 146//146 151//151 150//150
f 150//150 153//153 148//148
f 152//152 154//154 151//151
f 151//151 154//154 153//153
f 155//155 156//156 143//143
f 144//144 143//143 156//156
f 135//135 147//147 143//143
f 143//143 147//147 155//155
f 144//144 156//156 145//145
f 145//145 156//156 157//157
f 158//158 159//159 155//155
f 156//156 155//155 159//159
f 149//149 158//158 147//147
f 155//155 147//147 158//158
f 156//156 159//159 157//157
f 157//157 159//159 160//160
f 148//148 161//161 149//149
f 149//149 161//161 162//162
f 161//161 163//163 162//162
f 162//162 163//163 164//164
f 165//165 166//166 153//153
f 148//148 153//153 166//166
f 167//167 165//165 154//154
f 153//153 154//154 165//165
f 166//166 161//161 148//148
f 168//168 169//169 165//165
f 166//166 165//165 169//169
f 167//167 170//170 165//165
f 165//165 170//170 168//168
f 169//169 163//163 166//166
f 161//161 166//166 163//163
f 158//158 171//171 159//159
f 159//159 171//171 172//172
f 149//149 162//162 158//158
f 158//158 162//162 171//171
f 159//159 172//172 160//160
f 160//160 172//172 173//173
f 174//174 172//172 171//171
f 162//162 164//164 171//171
f 171//171 164//164 174//174
f 174//174 164//164 175//175
f 173//173 172//172 176//176
f 174//174 176//176 172//172
f 175//175 177//177 174//174
f 176//176 174//174 177//177
f 163//163 178//178 164//164
f 164//164 178//178 179//179
f 180//180 179//179 178//178
f 181//181 169//169 168//168
f 181//181 168//168 170//170
f 181//181 182//182 169//169
f 169//169 182//182 163//163
f 163//163 182//182 178//178
f 170//170 183//183 181//181
f 181//181 183//183 182//182
f 178//178 182//182 180//180
f 184//184 180//180 182//182
f 184//184 182//182 185//185
f 185//185 182//182 183//183
f 179//179 186//186 164//164
f 175//175 164//164 186//186
f 175//175 186//186 177//177
f 177//177 186//186 187//187
f 188//188 186//186 180//180
f 180//180 186//186 179//179
f 187//187 186//186 189//189
f 188//188 189//189 186//186
f 190//190 191//191 184//184
f 180//180 184//184 188//188
f 188//188 184//184 191//191
f 192//192 190//190 185//185
f 184//184 185//185 190//190
f 188//188 191//191 189//189
f 189//189 191//191 193//193
f 194//194 192//192 195//195
f 196//196 191//191 190//190
f 196//196 190//190 192//192
f 197//197 193//193 196//196
f 196//196 193//193 191//191
f 192//192 194//194 196//196
f 197//197 196//196 194//194
f 9//9 198//198 8//8
f 8//8 198//198 199//199
f 199//199 198//198 200//200
f 199//199 201//201 8//8
f 10//10 8//8 201//201
f 199//199 200//200 202//202
f 202//202 203//203 199//199
f 201//201 199//199 204//204
f 204//204 199//199 203//203
f 204//204 203//203 205//205
f 9//9 23//23 198//198
f 23//23 206//206 198//198
f 207//207 198//198 206//206
f 207//207 206//206 208//208
f 25//25 209//209 23//23
f 206//206 23//23 209//209
f 209//209 210//210 206//206
f 208//208 206//206 210//210
f 210//210 209//209 211//211
f 207//207 200//200 198//198
f 207//207 208//208 200//200
f 200//200 208//208 202//202
f 208//208 212//212 202//202
f 213//213 202//202 212//212
f 213//213 203//203 202//202
f 210//210 212//212 208//208
f 213//213 212//212 214//214
f 213//213 214//214 203//203
f 203//203 214//214 205//205
f 205//205 214//214 215//215
f 211//211 216//216 210//210
f 212//212 210//210 214//214
f 214//214 210//210 216//216
f 216//216 217//217 214//214
f 215//215 214//214 217//217
f 215//215 217//217 218//218
f 25//25 37//37 209//209
f 209//209 37//37 219//219
f 219//219 220//220 209//209
f 211//211 209//209 220//220
f 220//220 219//219 221//221
f 37//37 39//39 219//219
f 219//219 39//39 222//222
f 222//222 223//223 219//219
f 221//221 219//219 223//223
f 220//220 221//221 224//224
f 223//223 225//225 221//221
f 224//224 221//221 225//225
f 224//224 226//226 220//220
f 211//211 220//220 216//216
f 216//216 220//220 226//226
f 216//216 226//226 217//217
f 217//217 226//226 227//227
f 227//227 226//226 228//228
f 227//227 218//218 217//217
f 224//224 225//225 226//226
f 226//226 225//225 229//229
f 229//229 230//230 226//226
f 228//228 226//226 230//230
f 51//51 231//231 39//39
f 222//222 39//39 231//231
f 231//231 232//232 222//222
f 223//223 222//222 232//232
f 53//53 233//233 51//51
f 231//231 51//51 233//233
f 233//233 234//234 231//231
f 232//232 231//231 234//234
f 223//223 232//232 225//225
f 225//225 232//232 235//235
f 232//232 234//234 235//235
f 235//235 234//234 236//236
f 225//225 235//235 229//229
f 229//229 235//235 237//237
f 237//237 238//238 229//229
f 230//230 229//229 238//238
f 236//236 239//239 235//235
f 237//237 235//235 239//239
f 239//239 240//240 237//237
f 238//238 237//237 240//240
f 65//65 241//241 53//53
f 233//233 53//53 241//241
f 233//233 241//241 234//234
f 234//234 241//241 242//242
f 67//67 243//243 65//65
f 241//241 65//65 243//243
f 243//243 244//244 241//241
f 242//242 241//241 244//244
f 234//234 242//242 236//236
f 236//236 242//242 245//245
f 242//242 244//244 245//245
f 245//245 244//244 246//246
f 245//245 247//247 236//236
f 239//239 236//236 247//247
f 247//247 248//248 239//239
f 240//240 239//239 248//248
f 246//246 249//249 245//245
f 247//247 245//245 249//249
f 247//247 249//249 248//248
f 248//248 249//249 250//250
f 79//79 251//251 67//67
f 243//243 67//67 251//251
f 251//251 252//252 243//243
f 244//244 243//243 252//252
f 81//81 253//253 79//79
f 251//251 79//79 253//253
f 251//251 253//253 252//252
f 252//252 253//253 254//254
f 252//252 255//255 244//244
f 246//246 244//244 255//255
f 254//254 256//256 252//252
f 255//255 252//252 256//256
f 246//246 255//255 249//249
f 249//249 255//255 257//257
f 249//249 257//257 250//250
f 250//250 257//257 258//258
f 256//256 259//259 255//255
f 257//257 255//255 259//259
f 257//257 259//259 258//258
f 258//258 259//259 260//260
f 95//95 261//261 81//81
f 253//253 81//81 261//261
f 261//261 262//262 253//253
f 254//254 253//253 262//262
f 95//95 99//99 261//261
f 261//261 99//99 263//263
f 263//263 264//264 261//261
f 262//262 261//261 264//264
f 254//254 262//262 256//256
f 256//256 262//262 265//265
f 264//264 266//266 262//262
f 265//265 262//262 266//266
f 265//265 267//267 256//256
f 259//259 256//256 267//267
f 267//267 268//268 259//259
f 260//260 259//259 268//268
f 265//265 266//266 267//267
f 267//267 266//266 269//269
f 269//269 270//270 267//267
f 268//268 267//267 270//270
f 111//111 271//271 99//99
f 263//263 99//99 271//271
f 263//263 271//271 264//264
f 264//264 271//271 272//272
f 114//114 273//273 111//111
f 271//271 111//111 273//273
f 271//271 273//273 272//272
f 272//272 273//273 274//274
f 272//272 275//275 264//264
f 266//266 264//264 275//275
f 274//274 276//276 272//272
f 275//275 272//272 276//276
f 275//275 277//277 266//266
f 269//269 266//266 277//277
f 269//269 277//277 270//270
f 270//270 277//277 278//278
f 276//276 279//279 275//275
f 277//277 275//275 279//279
f 277//277 279//279 278//278
f 278//278 279//279 280//280
f 126//126 127//127 281//281
f 281//281 273//273 126//126
f 114//114 126//126 273//273
f 273//273 281//281 282//282
f 282//282 283//283 273//273
f 274//274 273//273 283//283
f 127//127 130//130 281//281
f 281//281 130//130 284//284
f 281//281 284//284 282//282
f 282//282 284//284 285//285
f 285//285 286//286 282//282
f 283//283 282//282 286//286
f 274//274 283//283 276//276
f 276//276 283//283 287//287
f 283//283 286//286 287//287
f 287//287 286//286 288//288
f 287//287 289//289 276//276
f 279//279 276//276 289//289
f 289//289 290//290 279//279
f 280//280 279//279 290//290
f 288//288 291//291 287//287
f 289//289 287//287 291//291
f 291//291 292//292 289//289
f 290//290 289//289 292//292
f 130//130 142//142 284//284
f 284//284 142//142 293//293
f 284//284 293//293 285//285
f 285//285 293//293 294//294
f 294//294 295//295 285//285
f 286//286 285//285 295//295
f 142//142 145//145 293//293
f 293//293 145//145 296//296
f 293//293 296//296 294//294
f 294//294 296//296 297//297
f 297//297 298//298 294//294
f 295//295 294//294 298//298
f 295//295 299//299 286//286
f 288//288 286//286 299//299
f 295//295 298//298 299//299
f 299//299 298//298 300//300
f 299//299 301//301 288//288
f 291//291 288//288 301//301
f 301//301 302//302 291//291
f 292//292 291//291 302//302
f 299//299 300//300 301//301
f 301//301 300//300 303//303
f 303//303 304//304 301//301
f 302//302 301//301 304//304
f 157//157 305//305 145//145
f 296//296 145//145 305//305
f 305//305 306//306 296//296
f 297//297 296//296 306//306
f 306//306 307//307 297//297
f 298//298 297//297 307//307
f 160//160 308//308 157//157
f 305//305 157//157 308//308
f 308//308 309//309 305//305
f 306//306 305//305 309//309
f 309//309 310//310 306//306
f 307//307 306//306 310//310
f 298//298 307//307 300//300
f 300//300 307//307 311//311
f 307//307 310//310 311//311
f 311//311 310//310 312//312
f 300//300 311//311 303//303
f 303//303 311//311 313//313
f 313//313 314//314 303//303
f 304//304 303//303 314//314
f 311//311 312//312 313//313
f 313//313 312//312 315//315
f 313//313 315//315 314//314
f 314//314 315//315 316//316
f 173//173 317//317 160//160
f 308//308 160//160 317//317
f 317//317 318//318 308//308
f 309//309 308//308 318//318
f 318//318 319//319 309//309
f 310//310 309//309 319//319
f 176//176 317//317 173//173
f 177//177 320//320 176//176
f 317//317 176//176 318//318
f 318//318 176//176 320//320
f 320//320 321//321 318//318
f 319//319 318//318 321//321
f 310//310 319//319 312//312
f 312//312 319//319 322//322
f 323//323 324//324 325//325
f 321//321 326//326 319//319
f 322//322 319//319 327//327
f 327//327 319//319 326//326
f 327//327 326//326 324//324
f 326//326 328//328 324//324
f 325//325 324//324 328//328
f 312//312 322//322 315//315
f 315//315 322//322 329//329
f 329//329 323//323 315//315
f 316//316 315//315 323//323
f 323//323 329//329 324//324
f 327//327 329//329 322//322
f 327//327 324//324 329//329
f 177//177 187//187 320//320
f 320//320 187//187 330//330
f 330//330 187//187 331//331
f 330//330 321//321 320//320
f 189//189 331//331 187//187
f 330//330 331//331 332//332
f 332//332 333//333 330//330
f 321//321 330//330 326//326
f 326//326 330//330 333//333
f 326//326 333//333 328//328
f 328//328 333//333 334//334
f 193//193 335//335 189//189
f 331//331 189//189 332//332
f 332//332 189//189 335//335
f 335//335 193//193 336//336
f 335//335 336//336 337//337
f 336//336 194//194 337//337
f 195//195 337//337 194//194
f 335//335 333//333 332//332
f 334//334 333//333 337//337
f 335//335 337//337 333//333
f 197//197 336//336 193//193
f 197//197 194//194 336//336
f 338//338 339//339 3//3
f 3//3 339//339 1//1
f 338//338 340//340 339//339
f 6//6 341//341 3//3
f 338//338 3//3 341//341
f 342//342 340//340 341//341
f 338//338 341//341 340//340
f 10//10 343//343 6//6
f 341//341 6//6 343//343
f 344//344 345//345 343//343
f 343//343 345//345 341//341
f 341//341 345//345 342//342
f 344//344 346//346 345//345
f 347//347 348//348 339//339
f 1//1 339//339 348//348
f 15//15 1//1 348//348
f 349//349 347//347 350//350
f 350//350 347//347 340//340
f 339//339 340//340 347//347
f 351//351 20//20 352//352
f 348//348 352//352 20//20
f 15//15 348//348 20//20
f 352//352 353//353 351//351
f 352//352 348//348 347//347
f 354//354 352//352 349//349
f 347//347 349//349 352//352
f 352//352 354//354 353//353
f 350//350 355//355 349//349
f 355//355 356//356 349//349
f 349//349 356//356 354//354
f 350//350 340//340 357//357
f 357//357 340//340 342//342
f 357//357 342//342 345//345
f 357//357 358//358 350//350
f 350//350 358//358 355//355
f 359//359 358//358 346//346
f 345//345 346//346 358//358
f 357//357 345//345 358//358
f 360//360 356//356 358//358
f 355//355 358//358 356//356
f 361//361 360//360 359//359
f 358//358 359//359 360//360
f 351//351 362//362 20//20
f 20//20 362//362 32//32
f 363//363 362//362 353//353
f 351//351 353//353 362//362
f 364//364 363//363 354//354
f 353//353 354//354 363//363
f 365//365 35//35 362//362
f 32//32 362//362 35//35
f 363//363 366//366 362//362
f 362//362 366//366 365//365
f 367//367 366//366 364//364
f 363//363 364//364 366//366
f 368//368 364//364 356//356
f 354//354 356//356 364//364
f 369//369 367//367 368//368
f 364//364 368//368 367//367
f 360//360 370//370 356//356
f 356//356 370//370 368//368
f 361//361 371//371 360//360
f 360//360 371//371 370//370
f 370//370 372//372 368//368
f 368//368 372//372 369//369
f 371//371 373//373 370//370
f 370//370 373//373 372//372
f 374//374 46//46 365//365
f 35//35 365//365 46//46
f 366//366 375//375 365//365
f 365//365 375//375 374//374
f 376//376 375//375 367//367
f 366//366 367//367 375//375
f 374//374 377//377 46//46
f 46//46 377//377 49//49
f 378//378 377//377 375//375
f 374//374 375//375 377//377
f 379//379 378//378 380//380
f 376//376 380//380 375//375
f 375//375 380//380 378//378
f 367//367 369//369 376//376
f 372//372 381//381 369//369
f 369//369 381//381 376//376
f 373//373 382//382 372//372
f 372//372 382//382 381//381
f 383//383 380//380 381//381
f 376//376 381//381 380//380
f 380//380 383//383 379//379
f 382//382 384//384 381//381
f 381//381 384//384 383//383
f 377//377 385//385 49//49
f 49//49 385//385 60//60
f 386//386 385//385 378//378
f 377//377 378//378 385//385
f 379//379 387//387 378//378
f 378//378 387//387 386//386
f 385//385 388//388 60//60
f 60//60 388//388 63//63
f 389//389 388//388 386//386
f 385//385 386//386 388//388
f 390//390 389//389 387//387
f 386//386 387//387 389//389
f 391//391 387//387 379//379
f 391//391 392//392 387//387
f 387//387 392//392 390//390
f 393//393 391//391 383//383
f 379//379 383//383 391//391
f 384//384 394//394 383//383
f 383//383 394//394 393//393
f 393//393 395//395 391//391
f 391//391 395//395 392//392
f 396//396 395//395 394//394
f 393//393 394//394 395//395
f 397//397 74//74 388//388
f 63//63 388//388 74//74
f 398//398 397//397 389//389
f 388//388 389//389 397//397
f 399//399 398//398 390//390
f 389//389 390//390 398//398
f 400//400 77//77 397//397
f 74//74 397//397 77//77
f 401//401 400//400 398//398
f 397//397 398//398 400//400
f 399//399 402//402 398//398
f 398//398 402//402 401//401
f 392//392 399//399 390//390
f 403//403 402//402 399//399
f 395//395 404//404 392//392
f 392//392 404//404 399//399
f 405//405 404//404 396//396
f 395//395 396//396 404//404
f 406//406 403//403 404//404
f 399//399 404//404 403//403
f 405//405 407//407 404//404
f 404//404 407//407 406//406
f 408//408 88//88 400//400
f 77//77 400//400 88//88
f 401//401 408//408 400//400
f 402//402 409//409 401//401
f 401//401 409//409 408//408
f 410//410 91//91 408//408
f 88//88 408//408 91//91
f 409//409 411//411 408//408
f 408//408 411//411 410//410
f 412//412 409//409 403//403
f 402//402 403//403 409//409
f 413//413 411//411 412//412
f 409//409 412//412 411//411
f 414//414 412//412 406//406
f 403//403 406//406 412//412
f 407//407 415//415 406//406
f 406//406 415//415 414//414
f 416//416 413//413 414//414
f 412//412 414//414 413//413
f 415//415 417//417 414//414
f 414//414 417//417 416//416
f 418//418 106//106 410//410
f 91//91 410//410 106//106
f 419//419 410//410 411//411
f 410//410 419//419 418//418
f 420//420 108//108 421//421
f 418//418 421//421 106//106
f 106//106 421//421 108//108
f 422//422 421//421 419//419
f 418//418 419//419 421//421
f 421//421 422//422 420//420
f 423//423 419//419 413//413
f 411//411 413//413 419//419
f 424//424 422//422 423//423
f 419//419 423//423 422//422
f 425//425 423//423 416//416
f 413//413 416//416 423//423
f 417//417 426//426 416//416
f 416//416 426//426 425//425
f 427//427 424//424 425//425
f 423//423 425//425 424//424
f 426//426 428//428 425//425
f 425//425 428//428 427//427
f 420//420 429//429 108//108
f 108//108 429//429 121//121
f 430//430 429//429 422//422
f 420//420 422//422 429//429
f 429//429 431//431 121//121
f 121//121 431//431 123//123
f 429//429 432//432 431//431
f 433//433 432//432 430//430
f 429//429 430//430 432//432
f 434//434 430//430 424//424
f 422//422 424//424 430//430
f 435//435 433//433 434//434
f 430//430 434//434 433//433
f 436//436 434//434 427//427
f 424//424 427//427 434//434
f 428//428 437//437 427//427
f 427//427 437//437 436//436
f 438//438 435//435 436//436
f 434//434 436//436 435//435
f 437//437 439//439 436//436
f 436//436 439//439 438//438
f 431//431 440//440 123//123
f 123//123 440//440 137//137
f 432//432 440//440 431//431
f 433//433 441//441 432//432
f 432//432 441//441 440//440
f 442//442 139//139 443//443
f 440//440 443//443 137//137
f 137//137 443//443 139//139
f 444//444 443//443 441//441
f 440//440 441//441 443//443
f 443//443 444//444 442//442
f 445//445 441//441 435//435
f 433//433 435//435 441//441
f 446//446 444//444 447//447
f 445//445 447//447 441//441
f 441//441 447//447 444//444
f 448//448 449//449 447//447
f 447//447 449//449 446//446
f 450//450 445//445 438//438
f 435//435 438//438 445//445
f 439//439 451//451 438//438
f 438//438 451//451 450//450
f 447//447 445//445 450//450
f 447//447 450//450 448//448
f 448//448 450//450 451//451
f 442//442 452//452 139//139
f 139//139 452//452 152//152
f 442//442 453//453 452//452
f 454//454 453//453 444//444
f 442//442 444//444 453//453
f 452//452 455//455 152//152
f 152//152 455//455 154//154
f 456//456 455//455 453//453
f 452//452 453//453 455//455
f 457//457 456//456 454//454
f 453//453 454//454 456//456
f 446//446 458//458 444//444
f 444//444 458//458 454//454
f 459//459 458//458 449//449
f 446//446 449//449 458//458
f 458//458 460//460 454//454
f 454//454 460//460 457//457
f 461//461 460//460 459//459
f 458//458 459//459 460//460
f 455//455 462//462 154//154
f 154//154 462//462 167//167
f 456//456 463//463 455//455
f 455//455 463//463 462//462
f 464//464 463//463 457//457
f 456//456 457//457 463//463
f 170//170 167//167 462//462
f 463//463 465//465 462//462
f 462//462 465//465 170//170
f 466//466 465//465 464//464
f 463//463 464//464 465//465
f 460//460 467//467 457//457
f 457//457 467//467 464//464
f 468//468 467//467 461//461
f 460//460 461//461 467//467
f 467//467 469//469 464//464
f 464//464 469//469 466//466
f 470//470 469//469 468//468
f 467//467 468//468 469//469
f 471//471 183//183 472//472
f 472//472 183//183 465//465
f 170//170 465//465 183//183
f 472//472 465//465 466//466
f 185//185 183//183 471//471
f 473//473 471//471 474//474
f 472//472 474//474 471//471
f 466//466 469//469 472//472
f 474//474 472//472 469//469
f 475//475 476//476 474//474
f 474//474 476//476 473//473
f 474//474 469//469 475//475
f 475//475 469//469 470//470
f 471//471 473//473 185//185
f 192//192 185//185 473//473
f 192//192 473//473 195//195
f 195//195 473//473 476//476
f 10//10 201//201 343//343
f 343//343 201//201 477//477
f 478//478 479//479 477//477
f 343//343 477//477 479//479
f 344//344 343//343 479//479
f 201//201 204//204 477//477
f 477//477 204//204 480//480
f 477//477 480//480 478//478
f 344//344 479//479 346//346
f 205//205 480//480 204//204
f 481//481 479//479 478//478
f 481//481 478//478 482//482
f 482//482 478//478 480//480
f 481//481 483//483 479//479
f 483//483 359//359 479//479
f 346//346 479//479 359//359
f 481//481 482//482 483//483
f 483//483 484//484 359//359
f 359//359 484//484 361//361
f 482//482 485//485 483//483
f 483//483 485//485 484//484
f 215//215 486//486 205//205
f 480//480 205//205 486//486
f 480//480 486//486 482//482
f 487//487 486//486 215//215
f 486//486 487//487 488//488
f 488//488 489//489 486//486
f 482//482 486//486 489//489
f 215//215 218//218 487//487
f 489//489 485//485 482//482
f 490//490 491//491 492//492
f 491//491 493//493 492//492
f 492//492 493//493 494//494
f 495//495 371//371 484//484
f 361//361 484//484 371//371
f 492//492 495//495 490//490
f 485//485 490//490 484//484
f 484//484 490//490 495//495
f 496//496 373//373 495//495
f 371//371 495//495 373//373
f 492//492 494//494 495//495
f 495//495 494//494 496//496
f 228//228 497//497 227//227
f 487//487 227//227 497//497
f 488//488 487//487 497//497
f 488//488 497//497 489//489
f 489//489 497//497 490//490
f 490//490 497//497 491//491
f 227//227 487//487 218//218
f 228//228 230//230 497//497
f 497//497 230//230 498//498
f 498//498 493//493 497//497
f 491//491 497//497 493//493
f 490//490 485//485 489//489
f 493//493 499//499 494//494
f 494//494 499//499 500//500
f 499//499 501//501 500//500
f 500//500 501//501 502//502
f 503//503 382//382 496//496
f 373//373 496//496 382//382
f 494//494 500//500 496//496
f 496//496 500//500 503//503
f 504//504 384//384 503//503
f 382//382 503//503 384//384
f 500//500 502//502 503//503
f 503//503 502//502 504//504
f 230//230 238//238 498//498
f 498//498 238//238 505//505
f 505//505 499//499 498//498
f 493//493 498//498 499//499
f 238//238 240//240 505//505
f 505//505 240//240 506//506
f 506//506 501//501 505//505
f 499//499 505//505 501//501
f 501//501 507//507 502//502
f 502//502 507//507 508//508
f 509//509 510//510 507//507
f 508//508 507//507 510//510
f 511//511 394//394 504//504
f 384//384 504//504 394//394
f 502//502 508//508 504//504
f 504//504 508//508 511//511
f 511//511 512//512 394//394
f 394//394 512//512 396//396
f 510//510 512//512 508//508
f 511//511 508//508 512//512
f 240//240 248//248 506//506
f 506//506 248//248 513//513
f 506//506 513//513 501//501
f 501//501 513//513 507//507
f 250//250 514//514 248//248
f 513//513 248//248 514//514
f 513//513 514//514 507//507
f 507//507 514//514 509//509
f 509//509 515//515 510//510
f 510//510 515//515 516//516
f 515//515 517//517 516//516
f 516//516 517//517 518//518
f 512//512 519//519 396//396
f 396//396 519//519 405//405
f 516//516 519//519 510//510
f 512//512 510//510 519//519
f 520//520 407//407 519//519
f 405//405 519//519 407//407
f 516//516 518//518 519//519
f 519//519 518//518 520//520
f 258//258 521//521 250//250
f 514//514 250//250 521//521
f 514//514 521//521 509//509
f 509//509 521//521 515//515
f 260//260 522//522 258//258
f 521//521 258//258 522//522
f 522//522 517//517 521//521
f 515//515 521//521 517//517
f 517//517 523//523 518//518
f 518//518 523//523 524//524
f 525//525 526//526 523//523
f 524//524 523//523 526//526
f 526//526 525//525 527//527
f 524//524 415//415 520//520
f 407//407 520//520 415//415
f 518//518 524//524 520//520
f 527//527 417//417 526//526
f 524//524 526//526 415//415
f 415//415 526//526 417//417
f 260//260 268//268 522//522
f 522//522 268//268 528//528
f 528//528 523//523 522//522
f 517//517 522//522 523//523
f 268//268 270//270 528//528
f 528//528 270//270 529//529
f 529//529 525//525 528//528
f 523//523 528//528 525//525
f 527//527 530//530 531//531
f 532//532 530//530 525//525
f 527//527 525//525 530//530
f 530//530 533//533 531//531
f 531//531 533//533 534//534
f 535//535 533//533 532//532
f 530//530 532//532 533//533
f 527//527 531//531 417//417
f 417//417 531//531 426//426
f 531//531 534//534 426//426
f 426//426 534//534 428//428
f 270//270 278//278 529//529
f 529//529 278//278 536//536
f 536//536 532//532 529//529
f 525//525 529//529 532//532
f 278//278 280//280 536//536
f 536//536 280//280 537//537
f 537//537 535//535 536//536
f 532//532 536//536 535//535
f 533//533 538//538 534//534
f 534//534 538//538 539//539
f 540//540 538//538 535//535
f 533//533 535//535 538//538
f 538//538 541//541 539//539
f 539//539 541//541 542//542
f 543//543 541//541 540//540
f 538//538 540//540 541//541
f 534//534 539//539 428//428
f 428//428 539//539 437//437
f 539//539 542//542 437//437
f 437//437 542//542 439//439
f 280//280 290//290 537//537
f 537//537 290//290 544//544
f 544//544 540//540 537//537
f 535//535 537//537 540//540
f 290//290 292//292 544//544
f 544//544 292//292 545//545
f 545//545 543//543 544//544
f 540//540 544//544 543//543
f 541//541 546//546 542//542
f 542//542 546//546 547//547
f 548//548 546//546 549//549
f 543//543 549//549 541//541
f 541//541 549//549 546//546
f 550//550 448//448 546//546
f 547//547 546//546 448//448
f 448//448 550//550 449//449
f 551//551 552//552 548//548
f 548//548 552//552 546//546
f 546//546 552//552 550//550
f 547//547 451//451 542//542
f 439//439 542//542 451//451
f 448//448 451//451 547//547
f 302//302 549//549 292//292
f 545//545 292//292 549//549
f 549//549 302//302 548//548
f 549//549 543//543 545//545
f 304//304 551//551 302//302
f 548//548 302//302 551//551
f 553//553 459//459 550//550
f 449//449 550//550 459//459
f 554//554 555//555 551//551
f 552//552 551//551 555//555
f 552//552 555//555 550//550
f 550//550 555//555 553//553
f 556//556 461//461 553//553
f 459//459 553//553 461//461
f 557//557 558//558 554//554
f 555//555 554//554 558//558
f 555//555 558//558 553//553
f 553//553 558//558 556//556
f 314//314 554//554 304//304
f 551//551 304//304 554//554
f 316//316 557//557 314//314
f 554//554 314//314 557//557
f 559//559 468//468 556//556
f 461//461 556//556 468//468
f 325//325 560//560 323//323
f 323//323 560//560 557//557
f 558//558 557//557 560//560
f 558//558 560//560 556//556
f 556//556 560//560 559//559
f 561//561 562//562 563//563
f 563//563 470//470 561//561
f 559//559 561//561 468//468
f 468//468 561//561 470//470
f 325//325 328//328 560//560
f 560//560 328//328 561//561
f 561//561 328//328 562//562
f 561//561 559//559 560//560
f 323//323 557//557 316//316
f 562//562 564//564 563//563
f 563//563 564//564 475//475
f 475//475 564//564 476//476
f 475//475 470//470 563//563
f 334//334 564//564 328//328
f 562//562 328//328 564//564
f 195//195 476//476 337//337
f 337//337 476//476 564//564
f 337//337 564//564 334//334

